<svg width="159" height="101" viewBox="0 0 159 101" fill="none" xmlns="http://www.w3.org/2000/svg">
<g clip-path="url(#clip0_149_179)">
<path d="M120.878 96.8648H120.687V96.7692H120.878V96.8648ZM147.253 76.6534C147.253 77.0038 146.983 77.4976 146.441 78.1346C146.218 78.4532 145.629 78.9469 144.673 79.6158C143.431 80.667 142.491 81.543 141.854 82.2438C141.568 82.626 141.185 83.0561 140.707 83.5339C140.803 83.725 140.851 83.8365 140.851 83.8684C140.851 84.0913 140.835 84.1869 140.803 84.155C140.93 84.5054 141.106 84.824 141.329 85.1107C141.36 85.2062 141.424 85.3814 141.52 85.6362C141.806 86.0503 142.189 86.7034 142.666 87.5953C142.603 87.6908 142.571 87.8342 142.571 88.0253C142.762 88.3757 143.001 88.8694 143.288 89.5065V90.271C143.447 90.4621 143.527 90.6533 143.527 90.8444C143.527 91.5133 143.351 92.246 143.001 93.0423C142.81 93.2653 142.539 93.5997 142.189 94.0457C141.679 95.0013 140.93 95.4791 139.943 95.4791C139.338 95.4791 138.78 95.3039 138.271 94.9535C137.952 94.635 137.427 94.1413 136.694 93.4723C136.407 93.2812 136.057 93.0264 135.643 92.7078C135.483 92.5486 135.229 92.2778 134.878 91.8956C134.273 91.577 133.62 91.0355 132.919 90.271C132.664 90.048 132.441 89.9365 132.25 89.9365C131.772 89.9365 131.374 90.0321 131.056 90.2232C130.196 90.7647 129.447 91.4337 128.81 92.23C128.906 92.4849 128.507 92.9786 127.615 93.7112C127.488 93.7749 126.58 94.3483 124.892 95.4313C124.701 95.7817 124.271 96.1321 123.602 96.4825C123.06 96.7374 122.726 96.8648 122.598 96.8648C122.567 96.8648 122.535 96.8489 122.503 96.817H122.407C122.344 96.817 122.153 96.8807 121.834 97.0081C121.515 97.1355 121.308 97.1992 121.213 97.1992H120.878C120.464 97.1992 120.066 97.0559 119.684 96.7692C119.493 96.6737 119.349 96.4507 119.254 96.1003C118.967 95.0491 118.824 94.3324 118.824 93.9501C118.824 93.6635 118.903 93.0742 119.063 92.1822C119.254 91.2903 119.397 90.7329 119.493 90.5099C119.779 89.8728 120.05 89.0446 120.305 88.0253C120.337 87.6112 120.401 86.9263 120.496 85.9707C120.273 85.8752 119.859 85.7796 119.254 85.684C116.769 85.2381 115.67 85.0151 115.957 85.0151C115.893 85.0151 115.845 85.031 115.814 85.0629C115.814 85.0947 115.798 85.1107 115.766 85.1107C115.702 85.1107 115.288 84.9355 114.524 84.5851C113.759 84.2028 113.329 84.0117 113.233 84.0117H113.186C113.154 84.0435 113.122 84.0595 113.09 84.0595C113.09 84.0276 112.915 83.9161 112.564 83.725C112.246 83.5339 111.704 83.2472 110.94 82.865C110.43 82.5783 110.08 82.3553 109.889 82.196C109.22 81.5589 108.885 81.113 108.885 80.8582C108.885 80.7944 108.917 80.7148 108.981 80.6192C109.076 80.4918 109.124 80.3963 109.124 80.3326C109.156 80.237 109.22 80.0459 109.315 79.7592L109.841 78.9947C110 78.8036 110.351 78.3735 110.892 77.7046L111.657 77.179C111.72 76.9242 112.58 76.3667 114.237 75.5067C114.587 75.22 115.113 74.8537 115.814 74.4077L117.486 73.5954C118.059 73.3088 118.521 72.9743 118.872 72.592C120.018 70.8719 121.165 69.2633 122.312 67.7662C122.503 67.5432 122.885 67.0972 123.459 66.4283C123.586 66.2372 123.825 65.9186 124.175 65.4727C124.398 65.409 124.701 65.2656 125.083 65.0426C125.242 64.9152 125.513 64.74 125.895 64.5171C126.246 64.4215 126.628 64.3737 127.042 64.3737C127.807 64.3737 128.571 64.963 129.336 66.1416C129.59 66.5239 130.1 67.4795 130.865 69.0085C131.279 69.8048 131.677 70.4419 132.059 70.9197C132.123 71.079 132.234 71.3497 132.394 71.732C133.222 72.8787 133.843 73.4521 134.257 73.4521C134.416 73.4521 134.799 73.4202 135.404 73.3565L136.455 73.2132H136.742C136.869 73.245 136.949 73.2769 136.981 73.3088C137.108 73.3088 137.411 73.2291 137.888 73.0699C138.207 73.0061 138.733 72.9743 139.465 72.9743C140.612 72.9743 141.759 73.1336 142.905 73.4521L143.765 73.691C143.797 73.691 143.829 73.6751 143.861 73.6432H143.909C144.482 73.6432 145.183 74.0095 146.011 74.7422C146.839 75.4748 147.253 76.1119 147.253 76.6534ZM136.646 73.5954V73.4999H136.407V73.5954H136.646ZM136.742 74.7422V74.6466H136.551V74.7422H136.742ZM139.417 83.0083L139.322 82.9605L139.035 83.4383L139.131 83.4861L139.417 83.0083ZM134.448 79.138V79.0425H134.305V79.138H134.448ZM143.097 90.0321V89.841H143.001V90.0321H143.097ZM144.148 77.0357C144.148 76.7808 144.02 76.4942 143.765 76.1756C143.511 76.0163 143.272 75.8411 143.049 75.65C142.412 75.0448 141.918 74.7422 141.568 74.7422C141.058 74.7422 140.628 74.774 140.277 74.8377C139.577 75.0607 139.178 75.1722 139.083 75.1722C139.019 75.1722 138.94 75.1563 138.844 75.1244H138.653C138.175 75.1244 137.379 75.2837 136.264 75.6022C135.945 75.6978 135.85 75.7456 135.977 75.7456H135.499C135.276 75.7774 135.133 75.7934 135.069 75.7934C135.006 75.7934 134.607 75.6978 133.875 75.5067L131.677 74.5511C131.295 73.9777 130.737 72.8469 130.005 71.1586C129.941 71.0312 129.829 70.7764 129.67 70.3941C129.638 70.203 129.575 69.98 129.479 69.7252L128.332 67.6228C127.982 67.1132 127.329 66.8583 126.373 66.8583C124.972 66.8583 123.443 68.5944 121.786 72.0665C121.691 72.2257 121.484 72.5602 121.165 73.0699C121.101 73.1973 120.687 73.8343 119.923 74.9811C119.955 75.0129 119.955 75.0607 119.923 75.1244C119.732 75.4111 119.413 75.7774 118.967 76.2234C118.776 76.3827 118.457 76.5419 118.012 76.7012H117.39C116.976 76.8286 116.26 77.0675 115.24 77.4179C115.017 77.4816 114.492 77.8002 113.663 78.3735C112.644 79.0743 112.134 79.584 112.134 79.9025C112.134 80.444 112.326 81.0015 112.708 81.5749C112.835 81.7341 113.138 81.8775 113.616 82.0049C113.966 82.0686 114.316 82.1482 114.667 82.2438C115.336 82.3075 116.116 82.419 117.008 82.5783C118.378 82.8331 119.429 83.1198 120.162 83.4383C121.563 84.0436 122.264 85.1266 122.264 86.6874C122.264 87.2289 122.216 87.7386 122.121 88.2164C121.802 88.535 121.643 89.1402 121.643 90.0321C121.643 90.4143 121.691 90.9399 121.786 91.6089C121.786 91.7363 121.834 92.007 121.93 92.4211C122.153 92.8034 122.455 92.9945 122.837 92.9945C123.029 92.9945 123.984 92.453 125.704 91.37C125.736 91.3381 126.628 90.4143 128.38 88.5987C128.922 88.0253 129.479 87.6908 130.052 87.5953C130.052 87.5316 130.084 87.4838 130.148 87.4519L130.482 87.5953C130.578 87.5634 130.801 87.5475 131.151 87.5475H131.868C132.091 87.5475 132.425 87.6271 132.871 87.7864C133.795 88.4235 135.069 89.3472 136.694 90.5577C136.853 90.5895 137.044 90.6692 137.267 90.7966C137.809 91.2426 138.621 91.8478 139.704 92.6123C139.831 92.7078 140.054 92.7556 140.373 92.7556C141.074 92.7556 141.424 92.5008 141.424 91.9911C141.424 92.0548 141.376 91.8956 141.281 91.5133L141.376 91.4177C141.44 91.4815 141.472 91.5292 141.472 91.5611L141.663 90.2232C141.663 89.3313 141.138 88.0412 140.086 86.353L139.561 85.8274C138.892 84.8399 138.557 84.171 138.557 83.8206L138.987 83.1039C139.433 82.3394 140.102 81.5112 140.994 80.6192C141.727 79.8548 142.475 79.0903 143.24 78.3258C143.845 77.6887 144.148 77.2587 144.148 77.0357ZM133.923 89.8888V89.7454H133.875V89.8888H133.923ZM121.882 88.2164V88.0253H121.786V88.2164H121.882ZM111.083 79.6636H110.988L110.94 79.807H110.988L111.083 79.6636ZM113.472 83.1039C113.472 83.072 113.425 83.0242 113.329 82.9605V83.1516C113.393 83.1516 113.44 83.1357 113.472 83.1039ZM124.892 94.4757L124.844 94.4279L124.701 94.4757V94.5713L124.892 94.4757ZM119.923 90.271H119.827L119.684 90.7488L119.732 90.7966L119.923 90.271ZM142.093 76.9401C142.093 77.0357 141.998 77.2746 141.806 77.6568C141.647 78.0072 141.536 78.1983 141.472 78.2302C141.249 78.4213 140.93 78.708 140.516 79.0903C140.325 79.3769 140.007 79.7592 139.561 80.237L138.414 81.2404C138.159 81.5589 137.793 82.0527 137.315 82.7216C137.188 83.0083 137.124 83.4224 137.124 83.9639C137.124 84.5691 137.363 85.3018 137.841 86.1618C138.159 86.7352 138.605 87.4679 139.178 88.3598C139.784 89.2198 140.086 89.7932 140.086 90.0799C140.054 90.1754 139.991 90.5736 139.895 91.2744C139.831 91.4018 139.752 91.4655 139.656 91.4655H139.226C139.003 91.4974 138.876 91.5133 138.844 91.5133C138.143 91.1948 137.586 90.8762 137.172 90.5577C137.012 90.1436 135.993 88.9968 134.114 87.1175C132.808 86.7034 131.979 86.4963 131.629 86.4963H131.103C131.008 86.56 130.801 86.6715 130.482 86.8308C130.036 86.9582 129.383 87.1971 128.523 87.5475C128.491 87.5793 127.488 88.2005 125.513 89.4109C124.462 90.048 123.873 90.3666 123.745 90.3666C123.331 90.3666 123.124 90.1436 123.124 89.6976L123.076 85.4929C123.076 85.0788 122.933 84.5691 122.646 83.9639C122.519 83.7091 122.184 83.3746 121.643 82.9605C120.815 82.3553 120.241 82.0527 119.923 82.0527H119.827C119.827 82.0845 119.811 82.1005 119.779 82.1005C119.748 82.1005 119.556 82.0367 119.206 81.9093C118.856 81.7819 118.585 81.7182 118.394 81.7182C118.362 81.7182 118.33 81.7341 118.298 81.766H118.203C118.489 81.766 117.996 81.6226 116.721 81.336C116.371 81.2723 115.941 81.1608 115.431 81.0015C115.208 80.9378 114.954 80.7467 114.667 80.4281C114.635 80.3007 114.555 80.1255 114.428 79.9025C114.81 79.5521 115.049 79.3769 115.145 79.3769C115.208 79.3769 115.256 79.4088 115.288 79.4725C115.32 79.5044 115.352 79.5203 115.384 79.5203C115.065 79.5203 115.32 79.4088 116.148 79.1858C117.709 78.7717 119.031 78.0231 120.114 76.9401C120.369 76.749 121.117 75.65 122.36 73.6432C122.774 72.9743 123.586 71.6683 124.796 69.7252C124.988 69.4385 125.354 69.1359 125.895 68.8173H126.23C127.09 68.8173 127.743 69.4066 128.189 70.5852C128.253 70.7445 128.476 71.2701 128.858 72.162C128.953 72.5761 129.129 73.1495 129.383 73.8821C129.543 74.0733 129.718 74.3281 129.909 74.6466C130.673 75.9526 132.011 76.5738 133.923 76.5101L140.325 75.6978C140.676 75.666 141.058 75.7774 141.472 76.0323C141.886 76.2871 142.093 76.5897 142.093 76.9401ZM127.807 70.4897V70.3463H127.711V70.4897H127.807ZM128.428 74.2166L128.332 73.8821L128.237 73.9299L128.38 74.2166H128.428ZM138.796 77.5613C138.414 77.402 138.255 77.3224 138.318 77.3224L133.923 78.1824C133.668 78.1506 133.285 78.1346 132.776 78.1346C131.693 78.1346 130.371 77.3542 128.81 75.7934L127.759 73.5477C127.568 73.261 127.345 72.8947 127.09 72.4487C127.09 72.0346 126.994 71.5409 126.803 70.9675C126.612 70.7445 126.389 70.633 126.134 70.633C125.688 70.633 125.115 71.286 124.414 72.592C124.127 73.1336 123.713 73.9458 123.172 75.0289C123.076 75.6978 122.328 76.6534 120.926 77.8957C120.767 78.1187 120.464 78.3895 120.018 78.708C119.827 78.7717 119.556 78.9151 119.206 79.138H119.015L118.059 79.6158C117.709 79.807 117.454 80.0459 117.295 80.3326C117.518 80.3326 117.661 80.3485 117.725 80.3803C118.012 80.4759 118.41 80.5874 118.919 80.7148C119.238 80.7148 119.7 80.7626 120.305 80.8582C120.592 80.9856 120.974 81.1448 121.452 81.336C122.248 81.4634 122.758 81.5908 122.981 81.7182C123.363 81.9093 123.697 82.2916 123.984 82.865C124.303 83.4065 124.462 83.8206 124.462 84.1073C124.462 84.5214 124.43 84.9673 124.366 85.4451C124.239 86.4326 124.175 86.8308 124.175 86.6396C124.175 87.436 124.366 87.8342 124.749 87.8342C124.972 87.8342 125.163 87.7864 125.322 87.6908C125.832 87.2767 126.74 86.7511 128.046 86.1141C128.237 85.9548 128.507 85.7796 128.858 85.5885C128.985 85.5566 129.304 85.4929 129.813 85.3973L131.295 85.0629C131.549 85.0629 132.011 85.1744 132.68 85.3973C133.381 85.6203 133.827 85.7955 134.018 85.9229C134.432 86.2415 135.197 86.9582 136.312 88.0731H136.551C136.646 88.2961 136.789 88.5509 136.981 88.8376C137.076 88.9331 137.251 88.9809 137.506 88.9809C137.602 88.9809 137.681 88.9491 137.745 88.8854V88.742C137.745 88.4553 137.458 87.7864 136.885 86.7352L136.121 85.3018C136.025 85.1744 135.945 85.031 135.882 84.8718C135.786 84.5532 135.738 84.171 135.738 83.725C135.738 82.8331 135.929 82.1482 136.312 81.6704L136.646 81.2404C136.805 81.0174 137.427 80.0937 138.51 78.4691C138.605 78.3098 138.701 78.0072 138.796 77.5613ZM135.499 79.4247C135.499 79.9662 135.022 80.683 134.066 81.5749C133.875 81.766 133.779 81.989 133.779 82.2438C133.779 82.3075 133.843 82.5464 133.97 82.9605C134.034 82.9605 134.098 82.9924 134.161 83.0561C134.703 84.2984 134.974 84.8877 134.974 84.824V85.5885C134.528 85.684 134.257 85.7318 134.161 85.7318C134.13 85.7318 134.002 85.684 133.779 85.5885C133.556 85.4929 133.413 85.4451 133.349 85.4451C132.967 85.031 132.569 84.6806 132.155 84.3939C131.231 84.0754 130.355 83.9161 129.527 83.9161C129.24 83.9161 129.065 83.9321 129.001 83.9639C126.771 85.3018 125.72 85.9707 125.848 85.9707C125.402 85.9707 125.179 85.6522 125.179 85.0151C125.179 84.7921 125.226 84.4417 125.322 83.9639C125.449 83.4861 125.513 83.1357 125.513 82.9127V82.3394C125.481 82.2438 125.195 81.9412 124.653 81.4315C124.526 81.2723 124.303 81.0971 123.984 80.9059C123.538 80.8104 123.029 80.7626 122.455 80.7626C122.391 80.7626 122.28 80.7785 122.121 80.8104H121.786C121.308 80.8104 120.878 80.683 120.496 80.4281C120.018 80.1414 119.827 79.7751 119.923 79.3292C120.369 79.0743 120.639 78.9469 120.735 78.9469C120.799 78.9469 120.831 78.9628 120.831 78.9947C120.831 79.0265 120.847 79.0425 120.878 79.0425C121.038 79.0425 121.563 78.6762 122.455 77.9435C123.029 77.2427 123.857 76.2712 124.94 75.0289C125.003 74.9333 125.115 74.8855 125.274 74.8855C125.656 74.8855 126.23 75.3633 126.994 76.319C127.249 76.6375 127.711 77.0835 128.38 77.6568C128.635 77.8798 129.16 78.1346 129.957 78.4213C130.084 78.5169 130.307 78.6284 130.626 78.7558C131.39 78.9469 131.995 79.0425 132.441 79.0425C132.505 79.0425 132.601 79.0265 132.728 78.9947C132.855 78.9628 132.951 78.9469 133.015 78.9469C134.639 78.8513 135.308 78.8036 135.022 78.8036C135.213 78.8036 135.372 79.0106 135.499 79.4247ZM132.632 80.667C132.282 80.4759 132.059 80.3803 131.964 80.3803C131.9 80.3803 131.804 80.3963 131.677 80.4281H131.342C131.215 80.4281 130.817 80.2689 130.148 79.9503C129.829 79.8866 129.367 79.7433 128.762 79.5203C128.476 79.361 127.902 78.8991 127.042 78.1346C126.182 77.3701 125.625 76.9879 125.37 76.9879C124.51 78.4532 123.618 79.3769 122.694 79.7592C123.044 79.8866 123.57 80.0459 124.271 80.237C124.94 80.237 125.577 80.4918 126.182 81.0015C126.628 81.3837 126.835 82.3075 126.803 83.7728C126.994 83.7728 127.265 83.7409 127.615 83.6772C127.775 83.4861 127.982 83.2631 128.237 83.0083C128.81 82.7216 129.272 82.5783 129.622 82.5783C129.909 82.5783 130.243 82.6101 130.626 82.6738C130.785 82.7375 131.135 82.8968 131.677 83.1516C131.964 83.3428 132.123 83.4543 132.155 83.4861H132.441C132.505 83.295 132.537 83.1676 132.537 83.1039C132.537 82.9446 132.505 82.7057 132.441 82.3871C132.378 82.0686 132.346 81.8297 132.346 81.6704C132.346 81.3519 132.441 81.0174 132.632 80.667Z" fill="#4D0803"/>
<path d="M141.235 67.7929L141.156 67.7735L141.165 67.7339L141.245 67.7533L141.235 67.7929ZM154.219 62.0985C154.183 62.2437 154.021 62.4207 153.732 62.6297C153.607 62.739 153.312 62.8837 152.848 63.0638C152.227 63.3731 151.748 63.6406 151.413 63.8662C151.255 63.9955 151.053 64.1348 150.807 64.2843C150.827 64.3732 150.835 64.4242 150.832 64.4374C150.81 64.5298 150.793 64.5678 150.783 64.5514C150.8 64.7095 150.841 64.8593 150.904 65.0008C150.907 65.0436 150.916 65.1227 150.93 65.238C151.006 65.4387 151.098 65.7482 151.206 66.1663C151.17 66.1995 151.142 66.2556 151.122 66.3348C151.166 66.4995 151.215 66.7283 151.269 67.0215L151.191 67.3383C151.238 67.4337 151.251 67.5209 151.232 67.6001C151.164 67.8773 151.017 68.1631 150.791 68.4575C150.689 68.5305 150.543 68.6416 150.352 68.7907C150.044 69.1349 149.685 69.2568 149.276 69.1565C149.025 69.0949 148.812 68.9657 148.636 68.7687C148.537 68.6043 148.369 68.3463 148.133 67.9946C148.034 67.8863 147.915 67.7451 147.776 67.571C147.726 67.4888 147.648 67.3507 147.541 67.1567C147.323 66.9632 147.107 66.6724 146.895 66.2844C146.812 66.1661 146.731 66.0972 146.651 66.0778C146.453 66.0292 146.279 66.0284 146.127 66.0752C145.716 66.2122 145.338 66.4133 144.993 66.6785C145.006 66.7938 144.791 66.9579 144.347 67.1709C144.288 67.1843 143.853 67.3296 143.044 67.6068C142.929 67.7326 142.715 67.8341 142.402 67.9113C142.152 67.9619 142.001 67.9807 141.948 67.9677C141.935 67.9645 141.923 67.9546 141.913 67.9382L141.873 67.9285C141.847 67.922 141.761 67.929 141.616 67.9494C141.471 67.9698 141.379 67.9752 141.34 67.9655L141.201 67.9315C141.029 67.8894 140.879 67.7895 140.75 67.6319C140.68 67.5728 140.643 67.4659 140.639 67.311C140.628 66.8462 140.641 66.5347 140.68 66.3763C140.709 66.2575 140.802 66.0214 140.959 65.668C141.128 65.3178 141.244 65.1014 141.307 65.0187C141.49 64.7838 141.687 64.4682 141.896 64.0717C141.951 63.9033 142.047 63.626 142.184 63.2397C142.101 63.1774 141.939 63.0958 141.698 62.9946C140.714 62.5573 140.281 62.3532 140.4 62.3823C140.374 62.3759 140.352 62.3776 140.336 62.3876C140.333 62.4008 140.324 62.4058 140.311 62.4025C140.285 62.396 140.131 62.2814 139.85 62.0585C139.572 61.8223 139.413 61.6994 139.373 61.6897L139.354 61.6849C139.337 61.6948 139.322 61.6982 139.309 61.695C139.312 61.6818 139.251 61.6178 139.125 61.5029C139.013 61.3914 138.818 61.2175 138.54 60.9814C138.358 60.8108 138.235 60.6828 138.172 60.5974C137.96 60.2654 137.866 60.0466 137.892 59.941C137.899 59.9146 137.92 59.8848 137.956 59.8517C138.009 59.8086 138.038 59.7739 138.045 59.7475C138.068 59.7111 138.113 59.6384 138.182 59.5293L138.478 59.2659C138.563 59.2029 138.752 59.0604 139.044 58.8382L139.415 58.6981C139.467 58.599 139.88 58.4554 140.654 58.2674C140.828 58.1842 141.083 58.0858 141.419 57.9723L142.194 57.8056C142.461 57.7451 142.686 57.6535 142.871 57.5307C143.521 56.9345 144.159 56.3844 144.787 55.8806C144.888 55.8076 145.092 55.6617 145.398 55.4428C145.47 55.3765 145.601 55.2688 145.792 55.1196C145.891 55.1159 146.031 55.0873 146.212 55.0337C146.291 54.9971 146.421 54.952 146.602 54.8985C146.757 54.8945 146.92 54.9135 147.092 54.9556C147.408 55.0333 147.665 55.3552 147.862 55.9213C147.929 56.1056 148.043 56.5534 148.204 57.2647C148.295 57.6368 148.395 57.9413 148.505 58.1781C148.515 58.2506 148.534 58.3741 148.561 58.5487C148.788 59.1081 148.987 59.4088 149.159 59.4509C149.225 59.4671 149.386 59.4927 149.643 59.5279L150.094 59.5753L150.212 59.6044C150.262 59.6306 150.292 59.6519 150.302 59.6683C150.355 59.6813 150.488 59.679 150.702 59.6616C150.841 59.6676 151.062 59.7078 151.365 59.7823C151.84 59.8988 152.299 60.0814 152.742 60.3299L153.074 60.5164C153.088 60.5196 153.102 60.5162 153.119 60.5063L153.139 60.5111C153.376 60.5694 153.629 60.7924 153.898 61.1802C154.167 61.568 154.274 61.8741 154.219 62.0985ZM150.134 59.7531L150.144 59.7135L150.045 59.6892L150.035 59.7288L150.134 59.7531ZM150.057 60.238L150.067 60.1984L149.988 60.179L149.978 60.2186L150.057 60.238ZM150.326 63.9353L150.291 63.9058L150.124 64.0747L150.158 64.1042L150.326 63.9353ZM148.66 61.8265L148.67 61.7869L148.61 61.7723L148.6 61.8119L148.66 61.8265ZM151.136 67.2198L151.156 67.1406L151.116 67.1309L151.097 67.2101L151.136 67.2198ZM152.893 61.9412C152.919 61.8356 152.895 61.7038 152.822 61.5459C152.732 61.454 152.651 61.3572 152.578 61.2553C152.376 60.9397 152.202 60.7642 152.057 60.7285C151.846 60.6767 151.664 60.6462 151.512 60.637C151.199 60.6582 151.023 60.6639 150.984 60.6542C150.957 60.6477 150.926 60.633 150.889 60.6101L150.81 60.5907C150.612 60.5421 150.266 60.5272 149.772 60.5459C149.63 60.5531 149.585 60.5632 149.638 60.5761L149.44 60.5276C149.345 60.5181 149.284 60.5101 149.257 60.5036C149.231 60.4972 149.076 60.4171 148.791 60.2634L147.978 59.644C147.878 59.3676 147.762 58.8423 147.63 58.0683C147.616 58.009 147.596 57.8921 147.569 57.7175C147.575 57.6351 147.571 57.5362 147.557 57.4209L147.296 56.4331C147.203 56.1863 146.958 56.0144 146.562 55.9172C145.981 55.7748 145.171 56.3387 144.132 57.6091C144.076 57.6654 143.956 57.783 143.772 57.9618C143.733 58.0081 143.497 58.23 143.063 58.6275C143.073 58.644 143.068 58.6638 143.049 58.6869C142.94 58.7863 142.771 58.9057 142.541 59.0452C142.446 59.0918 142.297 59.1254 142.096 59.146L141.839 59.0829C141.655 59.0936 141.333 59.1198 140.875 59.1614C140.776 59.1651 140.526 59.2437 140.125 59.3971C139.631 59.5839 139.368 59.7433 139.336 59.8753C139.281 60.0997 139.303 60.3501 139.403 60.6265C139.44 60.7055 139.551 60.7956 139.736 60.897C139.875 60.959 140.012 61.0276 140.147 61.1028C140.418 61.1972 140.73 61.3228 141.083 61.4794C141.625 61.7242 142.031 61.9499 142.303 62.1563C142.822 62.5496 143.002 63.0696 142.844 63.7164C142.789 63.9408 142.717 64.1471 142.629 64.3354C142.464 64.435 142.337 64.6696 142.246 65.0392C142.207 65.1976 142.174 65.4203 142.145 65.7072C142.132 65.76 142.125 65.877 142.122 66.0584C142.176 66.2394 142.282 66.3494 142.44 66.3882C142.519 66.4077 142.97 66.2804 143.793 66.0064C143.81 65.9965 144.273 65.7043 145.184 65.13C145.466 64.9475 145.731 64.8655 145.979 64.8842C145.985 64.8578 146.003 64.8413 146.033 64.8345L146.157 64.9279C146.2 64.9244 146.294 64.9405 146.439 64.9761L146.736 65.049C146.828 65.0716 146.959 65.1386 147.127 65.25C147.445 65.6078 147.88 66.1201 148.43 66.7869C148.492 66.8162 148.564 66.8687 148.643 66.9441C148.822 67.184 149.097 67.5173 149.468 67.9442C149.511 67.9968 149.599 68.0392 149.731 68.0716C150.021 68.1428 150.192 68.0728 150.244 67.8616C150.238 67.888 150.234 67.8172 150.233 67.6491L150.283 67.6192C150.303 67.6521 150.311 67.6751 150.308 67.6883L150.523 67.1533C150.614 66.7837 150.527 66.1957 150.263 65.3893L150.098 65.1181C149.922 64.6409 149.851 64.3297 149.887 64.1845L150.138 63.9312C150.4 63.6598 150.762 63.3846 151.222 63.1056C151.603 62.8633 151.991 62.6226 152.386 62.3835C152.701 62.181 152.87 62.0336 152.893 61.9412ZM147.349 66.228L147.364 66.1686L147.344 66.1637L147.33 66.2231L147.349 66.228ZM142.53 64.3111L142.549 64.2319L142.51 64.2222L142.49 64.3014L142.53 64.3111ZM138.924 59.6694L138.885 59.6597L138.85 59.7142L138.87 59.7191L138.924 59.6694ZM139.565 61.3378C139.568 61.3246 139.553 61.3 139.52 61.2638L139.5 61.343C139.527 61.3495 139.548 61.3478 139.565 61.3378ZM143.141 67.2108L143.126 67.1862L143.062 67.1914L143.052 67.231L143.141 67.2108ZM141.509 64.9634L141.47 64.9537L141.362 65.1371L141.377 65.1618L141.509 64.9634ZM152.051 61.6928C152.041 61.7324 151.978 61.8216 151.86 61.9606C151.758 62.0896 151.692 62.1575 151.663 62.1642C151.551 62.2207 151.39 62.3072 151.179 62.4235C151.071 62.5228 150.9 62.6489 150.667 62.8015L150.09 63.1008C149.952 63.2069 149.75 63.3742 149.484 63.6029C149.402 63.7087 149.333 63.8738 149.278 64.0982C149.217 64.349 149.241 64.6769 149.352 65.0818C149.425 65.3518 149.536 65.7007 149.683 66.1286C149.846 66.5465 149.913 66.8149 149.884 66.9337C149.861 66.97 149.794 67.1286 149.683 67.4092C149.644 67.4556 149.605 67.4739 149.565 67.4642L149.387 67.4204C149.291 67.411 149.237 67.4046 149.224 67.4014C148.966 67.1982 148.767 67.0095 148.628 66.8354C148.604 66.6476 148.298 66.0688 147.71 65.099C147.211 64.7947 146.889 64.6247 146.744 64.5891L146.526 64.5357C146.48 64.5524 146.383 64.5775 146.235 64.6111C146.037 64.6186 145.742 64.6512 145.35 64.709C145.333 64.719 144.855 64.8744 143.913 65.1752C143.413 65.3324 143.136 65.4045 143.083 65.3915C142.912 65.3494 142.849 65.236 142.894 65.0512L143.302 63.304C143.344 63.1324 143.336 62.9066 143.279 62.6267C143.252 62.5081 143.147 62.3355 142.965 62.1089C142.683 61.7739 142.477 61.5902 142.345 61.5579L142.305 61.5481C142.302 61.5613 142.293 61.5663 142.28 61.5631C142.267 61.5599 142.194 61.514 142.062 61.4256C141.93 61.3372 141.824 61.2833 141.745 61.2639C141.732 61.2606 141.717 61.264 141.7 61.2739L141.661 61.2642C141.78 61.2934 141.59 61.1838 141.091 60.9355C140.952 60.8735 140.785 60.7836 140.59 60.6658C140.504 60.6167 140.418 60.5116 140.332 60.3505C140.331 60.2944 140.316 60.2137 140.286 60.1084C140.48 60.002 140.597 59.9537 140.637 59.9634C140.663 59.9699 140.679 59.988 140.686 60.0176C140.696 60.034 140.708 60.0439 140.721 60.0471C140.589 60.0147 140.706 59.9944 141.072 59.9862C141.761 59.9733 142.384 59.7974 142.943 59.4587C143.068 59.4054 143.49 59.0261 144.209 58.3208C144.449 58.0857 144.918 57.6271 145.617 56.9449C145.725 56.8456 145.908 56.7574 146.165 56.6804L146.303 56.7144C146.66 56.8019 146.87 57.1124 146.935 57.6461C146.946 57.7186 146.985 57.9591 147.052 58.3675C147.05 58.5488 147.064 58.8042 147.095 59.1337C147.142 59.2291 147.189 59.3525 147.235 59.5039C147.419 60.1228 147.911 60.5162 148.709 60.6841L151.445 60.9983C151.593 61.0207 151.74 61.1057 151.886 61.2534C152.032 61.4011 152.087 61.5476 152.051 61.6928ZM146.787 57.5677L146.801 57.5083L146.762 57.4986L146.747 57.558L146.787 57.5677ZM146.665 59.1752L146.66 59.0269L146.615 59.037L146.646 59.1703L146.665 59.1752ZM150.622 61.615C150.48 61.5102 150.422 61.461 150.448 61.4675L148.539 61.3771C148.437 61.338 148.28 61.2925 148.069 61.2407C147.62 61.1306 147.152 60.6729 146.663 59.8674L146.456 58.83C146.406 58.6918 146.351 58.5173 146.291 58.3066C146.333 58.135 146.343 57.9207 146.322 57.6637C146.266 57.5519 146.185 57.483 146.079 57.4571C145.894 57.4118 145.59 57.6241 145.167 58.0941C144.993 58.2893 144.739 58.5838 144.405 58.9776C144.297 59.245 143.89 59.565 143.183 59.9373C143.094 60.0135 142.941 60.0949 142.724 60.1816C142.638 60.1886 142.512 60.2205 142.344 60.2772L142.265 60.2578L141.82 60.3587C141.655 60.4023 141.526 60.4754 141.43 60.578C141.523 60.6006 141.581 60.6218 141.604 60.6415C141.713 60.7102 141.866 60.7969 142.065 60.9015C142.197 60.9339 142.383 61.0006 142.624 61.1017C142.73 61.1837 142.872 61.2885 143.051 61.4163C143.368 61.55 143.566 61.6546 143.646 61.7301C143.785 61.8481 143.884 62.0405 143.945 62.3073C144.022 62.564 144.046 62.7518 144.017 62.8706C143.975 63.0422 143.916 63.2238 143.841 63.4153C143.688 63.8115 143.621 63.9701 143.64 63.8909C143.56 64.2209 143.598 64.4053 143.757 64.4441C143.849 64.4668 143.933 64.4664 144.009 64.443C144.262 64.3232 144.692 64.1977 145.298 64.0664C145.393 64.0199 145.523 63.9748 145.688 63.9312C145.744 63.931 145.882 63.9369 146.103 63.9491L146.751 63.9611C146.856 63.987 147.037 64.0802 147.291 64.2405C147.559 64.4042 147.726 64.5221 147.792 64.5943C147.931 64.7684 148.175 65.1431 148.524 65.7184L148.623 65.7427C148.64 65.8448 148.673 65.965 148.723 66.1032C148.753 66.1525 148.821 66.1901 148.927 66.216C148.966 66.2257 149.002 66.2206 149.035 66.2007L149.05 66.1413C149.079 66.0225 149.028 65.7162 148.897 65.2223L148.726 64.5506C148.7 64.4881 148.681 64.4206 148.671 64.3481C148.664 64.2064 148.683 64.0432 148.728 63.8584C148.819 63.4888 148.968 63.2244 149.175 63.0653L149.357 62.9211C149.446 62.8449 149.797 62.5252 150.411 61.9621C150.467 61.9058 150.537 61.7901 150.622 61.615ZM149.066 62.0521C149.011 62.2765 148.74 62.525 148.254 62.7974C148.155 62.8572 148.093 62.9399 148.067 63.0455C148.06 63.0719 148.063 63.1773 148.073 63.3619C148.1 63.3684 148.123 63.388 148.143 63.4209C148.241 63.9907 148.293 64.2625 148.3 64.2361L148.222 64.5529C148.027 64.5471 147.91 64.5394 147.871 64.5297C147.858 64.5265 147.81 64.4937 147.727 64.4314C147.644 64.3692 147.59 64.3348 147.563 64.3283C147.447 64.1179 147.318 63.9322 147.175 63.7713C146.825 63.5454 146.478 63.3904 146.135 63.3062C146.016 63.2771 145.942 63.2659 145.912 63.2726C144.852 63.6003 144.349 63.7707 144.401 63.7836C144.217 63.7383 144.157 63.5837 144.221 63.3197C144.244 63.2273 144.299 63.0869 144.388 62.8986C144.489 62.7136 144.551 62.5749 144.574 62.4825L144.632 62.2449C144.628 62.202 144.54 62.0475 144.368 61.7813C144.331 61.7023 144.257 61.6071 144.144 61.4955C143.969 61.4106 143.763 61.339 143.525 61.2807C143.499 61.2742 143.451 61.2695 143.382 61.2665L143.243 61.2325C143.045 61.1839 142.88 61.0874 142.747 60.943C142.578 60.7756 142.536 60.6044 142.621 60.4293C142.832 60.369 142.957 60.3437 142.997 60.3534C143.023 60.3599 143.035 60.3698 143.032 60.383C143.028 60.3962 143.033 60.4044 143.046 60.4076C143.112 60.4238 143.367 60.3254 143.812 60.1125C144.12 59.8804 144.562 59.562 145.137 59.1573C145.173 59.1241 145.225 59.1157 145.291 59.1319C145.449 59.1707 145.638 59.427 145.858 59.9007C145.931 60.0586 146.077 60.2903 146.296 60.5959C146.379 60.7142 146.571 60.8732 146.872 61.073C146.915 61.1255 146.996 61.1944 147.115 61.2796C147.412 61.4365 147.653 61.5376 147.838 61.5829C147.864 61.5894 147.906 61.5925 147.962 61.5922C148.018 61.592 148.059 61.5951 148.085 61.6016C148.768 61.7271 149.05 61.7753 148.931 61.7462C149.011 61.7656 149.056 61.8676 149.066 62.0521ZM147.752 62.2755C147.626 62.1607 147.544 62.0984 147.504 62.0887C147.478 62.0823 147.436 62.0791 147.38 62.0794L147.242 62.0454C147.189 62.0324 147.04 61.926 146.795 61.726C146.67 61.6672 146.493 61.5609 146.265 61.4069C146.162 61.3118 145.972 61.0621 145.693 60.6579C145.414 60.2537 145.222 60.0387 145.116 60.0128C144.611 60.5325 144.148 60.8247 143.726 60.8892C143.858 60.9776 144.06 61.097 144.331 61.2474C144.608 61.3154 144.846 61.4858 145.045 61.7585C145.191 61.9622 145.183 62.366 145.021 62.97C145.1 62.9894 145.215 63.0037 145.367 63.013C145.453 62.9499 145.561 62.8786 145.693 62.7989C145.959 62.7384 146.165 62.7259 146.31 62.7615C146.429 62.7907 146.565 62.8379 146.716 62.9031C146.776 62.9457 146.905 63.0473 147.104 63.208C147.203 63.3163 147.258 63.3787 147.268 63.3951L147.386 63.4243C147.432 63.3516 147.458 63.302 147.465 63.2756C147.481 63.2096 147.492 63.1074 147.498 62.9689C147.504 62.8304 147.515 62.7282 147.531 62.6622C147.564 62.5302 147.637 62.4013 147.752 62.2755Z" fill="#4D0803"/>
<path d="M14.9714 73.9665L14.8628 74.0227L14.8347 73.9683L14.9434 73.9122L14.9714 73.9665ZM24.0286 54.7253C24.1316 54.9245 24.1227 55.2848 24.002 55.8061C23.9688 56.0527 23.7789 56.5066 23.4321 57.1677C23.0346 58.1304 22.7577 58.9046 22.6014 59.4902C22.5508 59.7918 22.4598 60.1486 22.3285 60.5607C22.439 60.6413 22.4989 60.6906 22.5083 60.7087C22.5738 60.8355 22.5928 60.8945 22.5654 60.8858C22.7408 61.0475 22.934 61.1772 23.145 61.2747C23.1912 61.3196 23.2789 61.4005 23.4081 61.5173C23.6928 61.6685 24.102 61.9275 24.6357 62.2942C24.6276 62.3673 24.6516 62.4581 24.7077 62.5668C24.9193 62.7098 25.2002 62.9204 25.5504 63.1984L25.7751 63.633C25.9218 63.6949 26.0232 63.7801 26.0794 63.8888C26.2759 64.2691 26.3916 64.7372 26.4264 65.2929C26.3832 65.4758 26.3275 65.7456 26.2594 66.1021C26.2504 66.7952 25.9652 67.2868 25.4037 67.5769C25.0596 67.7548 24.6912 67.8189 24.2985 67.7695C24.0238 67.682 23.5798 67.5557 22.9667 67.3906C22.7476 67.3662 22.4735 67.3243 22.1444 67.2648C22.0071 67.2211 21.7826 67.142 21.4711 67.0276C21.0334 67.0244 20.503 66.9083 19.8799 66.6796C19.6695 66.6277 19.51 66.6298 19.4013 66.686C19.1297 66.8264 18.9314 66.9977 18.8064 67.2C18.4765 67.7606 18.2475 68.3608 18.1192 69.0008C18.2485 69.1176 18.1671 69.5153 17.8753 70.194C17.8216 70.2676 17.4739 70.8604 16.8322 71.9722C16.8265 72.2276 16.685 72.5532 16.4076 72.9489C16.1746 73.2529 16.0219 73.4237 15.9494 73.4611C15.9313 73.4705 15.9085 73.4708 15.8811 73.462L15.8267 73.4901C15.7905 73.5088 15.7006 73.6012 15.5569 73.7672C15.4132 73.9333 15.3142 74.0303 15.2599 74.0584L15.0697 74.1567C14.8343 74.2784 14.5658 74.3139 14.2642 74.2632C14.1275 74.265 13.9804 74.1803 13.8231 74.0092C13.3513 73.4958 13.0592 73.1304 12.9469 72.9131C12.8626 72.7501 12.7348 72.3916 12.5632 71.8377C12.4098 71.2744 12.3275 70.9154 12.3164 70.7605C12.2922 70.3141 12.2028 69.7636 12.0481 69.1092C11.9446 68.8644 11.7796 68.4563 11.5531 67.8849C11.3982 67.8961 11.1347 67.9634 10.7625 68.0869C9.21884 68.5634 8.5285 68.7595 8.69149 68.6753C8.65527 68.694 8.63279 68.7171 8.62403 68.7446C8.63339 68.7627 8.62902 68.7764 8.61091 68.7858C8.57468 68.8045 8.28776 68.8266 7.75014 68.852C7.20316 68.8593 6.90251 68.877 6.84817 68.905L6.82101 68.9191C6.81226 68.9466 6.79883 68.965 6.78071 68.9743C6.77135 68.9562 6.63899 68.9443 6.38361 68.9386C6.14634 68.9235 5.75422 68.9196 5.20724 68.9269C4.83322 68.9137 4.56848 68.8899 4.41302 68.8555C3.8455 68.6898 3.52429 68.5345 3.44942 68.3897C3.4307 68.3534 3.42541 68.2988 3.43355 68.2257C3.45045 68.1252 3.44953 68.0568 3.43081 68.0206C3.42085 67.9569 3.40091 67.8295 3.37101 67.6385L3.44521 67.0494C3.4796 66.8939 3.55247 66.5464 3.6638 66.007L3.94403 65.4835C3.90538 65.3199 4.23058 64.7503 4.91964 63.7746C5.03463 63.5086 5.22582 63.1459 5.49323 62.6864L6.20538 61.7332C6.44714 61.4018 6.61148 61.0759 6.69838 60.7556C6.84496 59.4407 7.02429 58.1891 7.23638 57.0009C7.27953 56.818 7.36583 56.4521 7.49527 55.9033C7.51156 55.7572 7.55379 55.5059 7.62198 55.1494C7.73004 55.0477 7.85997 54.8772 8.01179 54.6382C8.0649 54.5189 8.16737 54.3397 8.31918 54.1007C8.49032 53.9434 8.69362 53.8039 8.92906 53.6822C9.36372 53.4576 9.97154 53.568 10.7525 54.0135C11.0097 54.1559 11.5803 54.5495 12.4642 55.1942C12.9336 55.5253 13.3472 55.7705 13.705 55.9299C13.788 56.0017 13.9309 56.1229 14.1338 56.2934C14.9416 56.7021 15.4633 56.8455 15.6987 56.7239C15.7893 56.6771 15.9972 56.5466 16.3226 56.3326L16.8782 55.9422L17.0412 55.858C17.123 55.8387 17.1776 55.8334 17.2051 55.8421C17.2775 55.8047 17.4262 55.6705 17.651 55.4395C17.8134 55.3097 18.1029 55.1372 18.5195 54.9219C19.1715 54.585 19.8702 54.3386 20.6158 54.1827L21.175 54.0658C21.1931 54.0565 21.2066 54.0381 21.2153 54.0106L21.2425 53.9966C21.5685 53.8281 22.0746 53.8305 22.7607 54.0037C23.4469 54.1769 23.8695 54.4174 24.0286 54.7253ZM17.0991 56.1034L17.0711 56.0491L16.9352 56.1193L16.9633 56.1736L17.0991 56.1034ZM17.4904 56.7273L17.4623 56.673L17.3537 56.7291L17.3818 56.7835L17.4904 56.7273ZM21.4406 60.6409L21.3722 60.6418L21.3496 60.9977L21.418 60.9968L21.4406 60.6409ZM17.4781 59.9005L17.45 59.8462L17.3685 59.8883L17.3966 59.9426L17.4781 59.9005ZM25.5962 63.5533L25.5401 63.4447L25.4857 63.4728L25.5419 63.5814L25.5962 63.5533ZM22.3751 55.8552C22.3003 55.7103 22.1436 55.5847 21.9051 55.4785C21.7134 55.4628 21.5261 55.4334 21.3432 55.3903C20.8031 55.2334 20.4335 55.2064 20.2342 55.3093C19.9445 55.4591 19.7093 55.6035 19.5288 55.7427C19.1959 56.0754 19.0023 56.2558 18.9479 56.2839C18.9117 56.3026 18.8618 56.3169 18.7981 56.3269L18.6894 56.3831C18.4177 56.5235 18.0118 56.848 17.4715 57.3567C17.3184 57.5046 17.2781 57.5599 17.3506 57.5224L17.0789 57.6628C16.9615 57.7465 16.8847 57.7976 16.8485 57.8164C16.8122 57.8351 16.5578 57.8977 16.0851 58.0043L14.5546 58.1068C14.1688 57.8932 13.5196 57.414 12.607 56.6694C12.5333 56.6157 12.3951 56.5035 12.1922 56.333C12.1179 56.2337 12.0162 56.1256 11.887 56.0088L10.6172 55.1505C10.2683 54.9636 9.82211 55.0106 9.27878 55.2914C8.4819 55.7032 8.12267 57.1396 8.2011 59.6004C8.19357 59.719 8.17412 59.97 8.14277 60.3534C8.14398 60.4445 8.09574 60.9284 7.99802 61.805C8.02549 61.8138 8.03953 61.841 8.04014 61.8865C8.01571 62.1057 7.94223 62.4076 7.81972 62.7922C7.75785 62.9389 7.62354 63.123 7.41678 63.3446L7.06362 63.5271C6.86561 63.7213 6.52831 64.0677 6.05172 64.5664C5.94366 64.6682 5.73843 65.0037 5.43601 65.573C5.06237 66.271 4.92235 66.7105 5.01595 66.8916C5.17506 67.1995 5.44752 67.4603 5.83333 67.674C5.95257 67.7271 6.16674 67.7197 6.47585 67.6517C6.69379 67.585 6.91641 67.5273 7.14371 67.4787C7.54276 67.3184 8.01924 67.1524 8.57314 66.9809C9.42679 66.7234 10.1087 66.5775 10.6188 66.5433C11.5936 66.4756 12.3102 66.8855 12.7689 67.7729C12.928 68.0808 13.0506 68.3846 13.1366 68.6844C13.0491 68.9591 13.1364 69.35 13.3985 69.8571C13.5108 70.0744 13.6924 70.3592 13.9433 70.7114C13.9807 70.7839 14.0874 70.9238 14.2634 71.1312C14.5025 71.283 14.7307 71.3027 14.9481 71.1904C15.0567 71.1343 15.4409 70.5456 16.1007 69.4244C16.1095 69.3969 16.3451 68.6096 16.8077 67.0625C16.9472 66.5774 17.1658 66.2234 17.4637 66.0006C17.445 65.9644 17.4491 65.9279 17.476 65.8911L17.7082 65.8743C17.7532 65.8281 17.8753 65.7535 18.0745 65.6506L18.482 65.44C18.6088 65.3744 18.8224 65.3214 19.1227 65.281C19.8351 65.3718 20.831 65.5226 22.1103 65.7335C22.2102 65.7048 22.3423 65.6939 22.5065 65.7008C22.9455 65.7953 23.5851 65.9007 24.4255 66.0171C24.526 66.034 24.6669 65.9957 24.848 65.9021C25.2464 65.6962 25.3708 65.4483 25.221 65.1585C25.2397 65.1948 25.1658 65.1183 24.9991 64.929L25.0254 64.8466C25.0803 64.8641 25.1125 64.8819 25.1218 64.9L24.8374 64.0832C24.5753 63.5761 23.8974 62.997 22.8037 62.346L22.3504 62.2016C21.6799 61.8367 21.2932 61.5547 21.1903 61.3554L21.2242 60.8216C21.2531 60.2559 21.3901 59.5885 21.6351 58.8193C21.827 58.1693 22.028 57.5147 22.238 56.8554C22.3949 56.3154 22.4406 55.982 22.3751 55.8552ZM20.3381 66.1674L20.296 66.0859L20.2688 66.1L20.311 66.1815L20.3381 66.1674ZM13.0008 68.7545L12.9446 68.6459L12.8903 68.674L12.9465 68.7826L13.0008 68.7545ZM4.34809 67.0647L4.29376 67.0927L4.30871 67.1883L4.33587 67.1742L4.34809 67.0647ZM6.71726 68.3187C6.7079 68.3006 6.66669 68.2874 6.59364 68.2793L6.6498 68.388C6.68602 68.3692 6.70851 68.3462 6.71726 68.3187ZM16.5514 71.4289L16.5102 71.4157L16.4428 71.485L16.4709 71.5394L16.5514 71.4289ZM12.4907 70.4983L12.4363 70.5264L12.4952 70.8402L12.5364 70.8533L12.4907 70.4983ZM21.1789 56.4046C21.207 56.4589 21.2228 56.6228 21.2265 56.8963C21.2389 57.1423 21.2317 57.2837 21.2048 57.3206C21.1342 57.4947 21.0373 57.7513 20.9142 58.0903C20.8897 58.3095 20.821 58.6204 20.7078 59.0231L20.3506 59.9306C20.2993 60.1866 20.2361 60.5749 20.161 61.0956C20.1728 61.2961 20.2583 61.5502 20.4174 61.8581C20.5952 62.2022 20.9463 62.5486 21.4707 62.8972C21.8203 63.1296 22.2891 63.4151 22.8772 63.7538C23.474 64.0649 23.8145 64.302 23.8988 64.465C23.9087 64.5287 23.9895 64.7738 24.1411 65.2003C24.1423 65.2915 24.1157 65.3511 24.0614 65.3792L23.8169 65.5055C23.6995 65.5892 23.6317 65.6357 23.6136 65.645C23.1216 65.6698 22.711 65.6525 22.382 65.5931C22.1698 65.4044 21.2533 65.0519 19.6325 64.5356C18.7683 64.6839 18.2365 64.8095 18.0373 64.9125L17.7385 65.0669C17.7029 65.1312 17.6179 65.2555 17.4836 65.4396C17.2675 65.6431 16.9664 65.9708 16.5804 66.4227C16.5716 66.4502 16.1836 67.0982 15.4164 68.3667C15.006 69.0378 14.7645 69.3921 14.6921 69.4295C14.4566 69.5512 14.2734 69.4852 14.1423 69.2317L12.8797 66.8551C12.758 66.6196 12.5268 66.372 12.1859 66.1121C12.0386 66.0046 11.7502 65.9128 11.3206 65.8364C10.6719 65.7357 10.257 65.7321 10.0759 65.8257L10.0215 65.8538C10.0309 65.8719 10.0265 65.8856 10.0084 65.895C9.99029 65.9043 9.86291 65.9243 9.62625 65.9548C9.38959 65.9853 9.21693 66.0286 9.10826 66.0848C9.09015 66.0941 9.07672 66.1126 9.06797 66.14L9.01363 66.1681C9.17663 66.0839 8.85379 66.1475 8.04512 66.3588C7.82718 66.4256 7.54992 66.4885 7.21334 66.5477C7.06785 66.577 6.8668 66.5432 6.61021 66.4464C6.55466 66.3833 6.4579 66.3071 6.31994 66.2177C6.43432 65.9062 6.51867 65.7364 6.573 65.7083C6.60923 65.6896 6.64575 65.6937 6.68258 65.7205C6.71005 65.7293 6.73284 65.729 6.75095 65.7196C6.56984 65.8132 6.68197 65.6749 7.08734 65.3048C7.8531 64.6108 8.38476 63.7967 8.6823 62.8627C8.77103 62.6792 8.87373 61.8344 8.9904 60.3284C9.0293 59.8264 9.10738 58.8451 9.22466 57.3847C9.24909 57.1655 9.36845 56.8859 9.58274 56.5456L9.7729 56.4474C10.2619 56.1946 10.8063 56.3378 11.4062 56.8769C11.4892 56.9487 11.7704 57.182 12.2498 57.5768C12.4258 57.7842 12.6939 58.0587 13.0541 58.4004C13.2008 58.4623 13.3753 58.5557 13.5775 58.6806C14.396 59.1985 15.3391 59.1586 16.4071 58.5608L19.8087 56.2177C19.9986 56.0966 20.2487 56.0477 20.559 56.0709C20.8693 56.0941 21.0759 56.2053 21.1789 56.4046ZM11.1608 56.9349L11.1187 56.8534L11.0643 56.8815L11.1064 56.963L11.1608 56.9349ZM12.609 58.8714L12.4564 58.7093L12.4161 58.7645L12.5819 58.8854L12.609 58.8714ZM19.4869 57.7264C19.2228 57.7482 19.1088 57.7497 19.1451 57.731L16.8984 59.5116C16.7442 59.5684 16.5222 59.6717 16.2324 59.8214C15.6166 60.1396 14.6357 60.0843 13.2897 59.6555L12.0321 58.6876C11.8392 58.5807 11.6048 58.438 11.3289 58.2593C11.2072 58.0239 11.0078 57.7712 10.7307 57.5014C10.5565 57.4308 10.397 57.4329 10.2521 57.5078C9.99852 57.6388 9.86439 58.1785 9.8497 59.127C9.84581 59.5191 9.84904 60.1026 9.85938 60.8775C10.0016 61.2859 9.85678 62.0492 9.42492 63.1674C9.39989 63.341 9.30739 63.5838 9.14743 63.896C9.05749 63.9883 8.94566 64.1494 8.81196 64.3791L8.70329 64.4353L8.30036 64.9877C8.15729 65.1994 8.0826 65.4101 8.07628 65.6199C8.20306 65.5544 8.28924 65.5213 8.33482 65.5207C8.5259 65.4908 8.78505 65.4372 9.11226 65.3599C9.29337 65.2663 9.57002 65.1577 9.94221 65.0342C10.1426 65.0224 10.4068 65.0007 10.7346 64.9689C11.2248 64.8074 11.552 64.7301 11.7162 64.737C11.9897 64.7333 12.2922 64.8524 12.6237 65.0942C12.9639 65.3085 13.1761 65.4971 13.2604 65.6601C13.3821 65.8955 13.495 66.1585 13.5992 66.4488C13.8169 67.0477 13.8976 67.2928 13.8415 67.1842C14.0755 67.6369 14.3011 67.8072 14.5185 67.6948C14.6452 67.6293 14.7399 67.546 14.8023 67.4449C14.9704 67.0597 15.3322 66.4941 15.8875 65.7481C15.9494 65.6014 16.0519 65.4222 16.1949 65.2106C16.258 65.1551 16.4204 65.0253 16.6821 64.8212L17.426 64.1958C17.5709 64.1209 17.8662 64.0486 18.3121 63.9788C18.776 63.8997 19.0811 63.8682 19.2272 63.8845C19.5562 63.944 20.2015 64.1268 21.1629 64.4331L21.2988 64.3629C21.4186 64.4616 21.575 64.5644 21.7679 64.6712C21.8503 64.6975 21.964 64.6732 22.1089 64.5983C22.1632 64.5702 22.1991 64.5287 22.2166 64.4738L22.1745 64.3923C22.0903 64.2293 21.7307 63.9332 21.0958 63.504L20.24 62.9136C20.1482 62.8693 20.0608 62.8112 19.9778 62.7393C19.8299 62.5863 19.6904 62.383 19.5594 62.1294C19.2973 61.6223 19.2047 61.1768 19.2817 60.7928L19.3455 60.45C19.3705 60.2765 19.4522 59.5687 19.5907 58.3268C19.5982 58.2082 19.5636 58.0081 19.4869 57.7264ZM18.16 59.7547C18.3191 60.0625 18.258 60.6104 17.9768 61.3983C17.9242 61.5632 17.9354 61.718 18.0103 61.8629C18.029 61.8991 18.1354 62.0162 18.3296 62.2142C18.3658 62.1955 18.4114 62.1949 18.4663 62.2124C19.1392 62.7596 19.4663 63.0151 19.4476 62.9789L19.6722 63.4136C19.4468 63.5989 19.3069 63.7057 19.2525 63.7337C19.2344 63.7431 19.1479 63.7534 18.9931 63.7646C18.8382 63.7757 18.7427 63.7907 18.7065 63.8094C18.3674 63.6863 18.0381 63.6041 17.7184 63.5627C17.0996 63.6531 16.5548 63.8199 16.0839 64.0632C15.9209 64.1475 15.8259 64.208 15.7991 64.2448C14.9244 65.6607 14.5233 66.3499 14.5957 66.3124C14.3422 66.4435 14.1218 66.3279 13.9346 65.9657C13.8691 65.8389 13.7933 65.6256 13.7073 65.3259C13.6393 65.0168 13.5726 64.7988 13.5071 64.6721L13.3386 64.3461C13.2924 64.3011 13.0405 64.2133 12.5828 64.0826C12.4636 64.0295 12.2853 63.9954 12.0481 63.9803C11.7664 64.057 11.4626 64.1796 11.1366 64.3481C11.1004 64.3668 11.0417 64.4086 10.9605 64.4735L10.7703 64.5718C10.4987 64.7122 10.2167 64.7661 9.92452 64.7336C9.56862 64.711 9.35232 64.5588 9.27561 64.2772C9.45429 64.0013 9.57079 63.8493 9.62513 63.8212C9.66135 63.8025 9.68414 63.8022 9.6935 63.8203C9.70286 63.8384 9.7166 63.8428 9.73471 63.8334C9.82526 63.7866 10.0165 63.4239 10.3083 62.7453C10.4284 62.1784 10.6138 61.3826 10.8645 60.3581C10.8727 60.285 10.922 60.2251 11.0126 60.1783C11.2299 60.066 11.6963 60.1692 12.4118 60.4879C12.6503 60.5941 13.0439 60.7119 13.5927 60.8414C13.8031 60.8933 14.1768 60.8837 14.7138 60.8127C14.8143 60.8296 14.9739 60.8275 15.1924 60.8064C15.6833 60.6904 16.0554 60.5669 16.309 60.4359C16.3452 60.4171 16.3949 60.38 16.458 60.3245C16.521 60.2689 16.5707 60.2318 16.6069 60.213C17.5025 59.6814 17.8688 59.4577 17.7058 59.5419C17.8145 59.4857 17.9658 59.5567 18.16 59.7547ZM16.895 61.3034C16.6396 61.2976 16.4848 61.3088 16.4304 61.3369C16.3942 61.3556 16.3446 61.3928 16.2815 61.4483L16.0913 61.5466C16.0189 61.584 15.7457 61.6105 15.2718 61.6259C15.0719 61.6833 14.7672 61.7375 14.3576 61.7886C14.1478 61.7822 13.6861 61.6881 12.9724 61.5062C12.2588 61.3242 11.8295 61.2707 11.6847 61.3455C11.6262 62.4314 11.3905 63.2186 10.9776 63.7074C11.2143 63.6769 11.5599 63.613 12.0145 63.5158C12.3948 63.3192 12.8319 63.2769 13.3258 63.3889C13.6917 63.4752 14.0808 63.9395 14.4933 64.782C14.6019 64.7258 14.7465 64.6282 14.927 64.489C14.9614 64.3335 15.0136 64.1459 15.0836 63.9261C15.3254 63.5947 15.5459 63.3775 15.7451 63.2745C15.9081 63.1903 16.1076 63.1101 16.3437 63.034C16.4529 63.0234 16.699 63.011 17.0817 62.9968C17.3009 63.0212 17.4242 63.0378 17.4517 63.0466L17.6147 62.9623C17.5947 62.835 17.5754 62.7531 17.5567 62.7169C17.5099 62.6264 17.4216 62.4999 17.2918 62.3375C17.1619 62.1751 17.0736 62.0486 17.0268 61.9581C16.9332 61.777 16.8893 61.5587 16.895 61.3034Z" fill="#4D0803"/>
<path d="M103.008 16.6743C103.518 16.6743 105.047 16.1221 107.595 15.0179C110.228 13.9136 112.14 13.3615 113.329 13.3615C113.924 13.4464 115.537 13.6163 118.171 13.8711C120.209 14.041 123.013 15.4001 126.58 17.9484C127.43 18.7129 128.534 19.6473 129.893 20.7516C130.318 21.0914 130.615 21.7284 130.785 22.6628C130.785 22.9177 130.87 23.215 131.04 23.5547L124.414 26.8676L112.564 28.3965C110.866 28.0568 109.931 27.8869 109.761 27.8869C110.866 28.8213 112.395 30.3078 114.348 32.3464L115.495 35.6593C115.835 36.084 116.302 36.7635 116.897 37.6979L117.279 39.6091L118.935 43.4316C118.935 44.5359 118.553 45.088 117.788 45.088H117.406L117.151 45.2155H116.642L113.074 41.1381C113.244 41.9026 113.499 42.9644 113.839 44.3235C113.924 45.173 114.136 46.3197 114.476 47.7638C115.41 49.9723 115.877 50.9492 115.877 50.6943C115.877 50.9492 115.453 51.6712 114.603 52.8604C114.433 53.0303 114.263 53.3276 114.093 53.7523C113.839 53.5824 113.541 53.3276 113.201 52.9878L113.074 52.733L112.947 52.6056C112.862 54.3894 112.437 56.9802 111.673 60.3779C110.823 61.6521 109.337 64.0305 107.213 67.5132C104.835 71.7604 102.286 75.1582 99.568 77.7065C96.8498 80.1699 94.0466 82.6757 91.1585 85.2241L90.5215 85.8611C90.0118 86.2859 87.5484 87.5175 83.1313 89.5562C82.6217 89.896 81.6873 90.4481 80.3282 91.2126C79.7336 91.2126 78.8417 91.34 77.6524 91.5949L77.1428 91.8497C73.745 93.5486 68.3936 94.3131 61.0884 94.1432C60.7486 94.1432 60.2814 94.1856 59.6868 94.2706C59.0922 94.3555 58.6675 94.398 58.4126 94.398C55.8643 94.398 54.0805 94.2281 53.0612 93.8883L52.6789 93.7609H52.4241C50.98 93.7609 48.7715 93.3362 45.7985 92.4868C44.7791 92.2319 43.5474 91.6798 42.1034 90.8304C41.3389 89.9809 40.2346 88.2396 38.7906 85.6063C38.4508 85.0117 38.0261 83.1429 37.5164 80C37.0068 76.7721 36.7519 74.691 36.7519 73.7566C36.7519 70.8685 37.0917 67.938 37.7713 64.9649C38.0261 63.9456 38.9605 60.9301 40.5744 55.9184C41.0841 53.7098 41.5513 51.5013 41.976 49.2928C42.6555 46.3197 43.505 44.3235 44.5243 43.3042L44.7791 43.0494C45.4587 41.6053 46.3081 39.9914 47.3275 38.2076C49.3661 34.6399 52.9762 30.4777 58.1578 25.7208C57.818 25.2961 57.7331 24.6165 57.903 23.6822C58.0729 22.8327 58.3702 22.1956 58.7949 21.7709C60.9185 19.6473 63.5942 17.906 66.8221 16.5469C68.8607 15.7824 71.8763 14.5507 75.8686 12.8518C75.1891 12.512 73.745 11.9599 71.5365 11.1954C70.6021 10.8556 68.9032 10.2185 66.4398 9.28416L66.185 9.02932C66.1001 8.94438 66.0576 8.77449 66.0576 8.51966C66.0576 7.84011 66.8221 7.28797 68.3511 6.86326V6.60842C68.436 6.35359 68.5634 6.14123 68.7333 5.97134C70.5172 5.37673 72.0037 5.07943 73.1929 5.07943C75.6563 5.07943 77.2702 5.16438 78.0347 5.33426C78.7992 5.84392 79.6911 6.39606 80.7104 6.99067C80.7954 6.90573 80.9653 6.86326 81.2201 6.86326C82.1545 6.86326 83.1738 7.28797 84.2781 8.13741C85.7221 9.15674 86.614 9.75135 86.9538 9.92124C88.8226 10.6857 90.8612 11.9174 93.0698 13.6163L98.8035 17.9484C100.078 16.4194 100.715 15.1878 100.715 14.2534C100.715 12.8943 100.205 11.5776 99.1857 10.3035C98.2514 8.94438 97.1471 8.26483 95.8729 8.26483H90.2666C89.2473 8.26483 88.228 7.20303 87.2086 5.07943C87.1237 4.8246 87.0812 4.56976 87.0812 4.31493C87.0812 3.89021 87.2086 3.42302 87.4635 2.91336H88.865C88.7801 5.20685 89.8419 6.35359 92.0504 6.35359C95.703 6.35359 98.039 6.52348 99.0583 6.86326C101.946 7.79764 103.348 10.0062 103.263 13.4889C103.263 13.7437 103.221 14.1684 103.136 14.763C103.051 15.2727 103.008 15.655 103.008 15.9098V16.6743ZM128.491 22.2806C125.858 19.1377 123.352 17.5662 120.974 17.5662C118.001 17.5662 116.09 17.9484 115.24 18.7129C117.534 19.2226 121.653 20.3693 127.599 22.1532L127.982 22.2806H128.491ZM120.719 22.7902L119.572 22.2806L119.827 22.9177C120.507 24.1918 121.314 24.8289 122.248 24.8289C122.418 24.8289 122.588 24.7864 122.758 24.7015L122.885 24.5741C122.97 24.4891 123.14 24.4467 123.395 24.4467L123.904 25.0837C124.159 25.0837 124.881 24.7015 126.07 23.937C124.966 23.852 123.182 23.4698 120.719 22.7902ZM119.955 16.1646C119.87 16.0797 119.827 15.9947 119.827 15.9098C117.534 15.57 115.495 15.4001 113.711 15.4001C111.333 15.4001 109.634 16.292 108.615 18.0759C109.464 18.1608 110.398 18.2033 111.418 18.2033C112.012 18.2033 113.414 17.8635 115.622 17.1839C117.831 16.4194 119.402 15.9947 120.337 15.9098L120.209 16.4194L119.955 16.1646ZM105.939 17.5662C106.279 17.6511 106.533 17.7361 106.703 17.821C106.873 17.5662 107.001 17.3538 107.086 17.1839C106.746 17.2689 106.364 17.3963 105.939 17.5662ZM117.534 21.5161C115.495 20.6666 114.136 20.2419 113.456 20.2419C113.286 20.2419 113.159 20.3269 113.074 20.4968H112.947C112.777 20.7516 112.564 20.879 112.31 20.879C111.63 20.879 110.611 20.7516 109.252 20.4968C107.977 20.157 107.001 19.9871 106.321 19.9871C105.641 19.9871 105.217 20.072 105.047 20.2419C103.518 21.2613 102.753 22.2381 102.753 23.1725C102.753 23.852 102.966 24.3192 103.39 24.5741C104.75 25.4235 106.024 25.8482 107.213 25.8482H108.232C107.977 24.9138 107.85 24.0644 107.85 23.2999C107.85 21.9408 108.317 21.0064 109.252 20.4968C109.591 20.8365 109.761 21.3037 109.761 21.8983C109.761 22.1532 109.719 22.5779 109.634 23.1725C109.549 23.7671 109.506 24.1918 109.506 24.4467C109.506 25.7208 110.356 26.3579 112.055 26.3579C111.8 26.3579 112.479 26.3154 114.093 26.2305C113.414 24.6165 113.074 23.3849 113.074 22.5354C113.074 21.2613 113.499 20.4543 114.348 20.1145C114.858 20.6242 115.028 21.0489 114.858 21.3887C114.688 21.5586 114.603 21.7709 114.603 22.0257C114.603 22.5354 114.73 23.1725 114.985 23.937C115.24 25.2961 115.707 25.9756 116.387 25.9756C116.557 25.9756 116.812 25.8907 117.151 25.7208C117.576 25.5509 117.873 25.466 118.043 25.466C118.213 25.466 118.51 25.5509 118.935 25.7208C119.275 25.8058 119.657 25.8058 120.082 25.7208C118.553 24.4467 117.704 23.0451 117.534 21.5161ZM101.097 22.1532C101.182 21.5586 101.564 20.7516 102.244 19.7323C101.394 20.4968 100.97 21.2188 100.97 21.8983C100.97 21.9833 101.012 22.0682 101.097 22.1532ZM113.711 36.0415L113.839 35.7867L114.221 36.5512L113.966 36.9334L113.456 35.9141L113.711 36.0415ZM83.1313 22.9177C83.1313 23.0875 83.0464 23.2574 82.8765 23.4273C82.5367 23.2574 82.1969 22.9601 81.8572 22.5354C81.7722 22.3655 81.6448 22.2381 81.4749 22.1532C80.7954 22.1532 77.61 22.8752 71.9187 24.3192C69.8801 24.8289 67.8414 25.3386 65.8028 25.8482C63.1695 26.5278 61.3007 27.3772 60.1965 28.3965C57.818 30.4352 54.845 33.7055 51.2773 38.2076C46.6904 43.9838 44.5668 47.9337 44.9065 50.0573C44.9915 50.397 44.7367 51.2889 44.1421 52.733C43.4625 54.4319 43.0803 55.4087 42.9953 55.6636C42.9104 56.2582 42.4007 57.4474 41.4663 59.2312C40.9567 62.2892 40.0647 66.7912 38.7906 72.7373L38.5358 73.3744V73.7566C38.5358 75.2007 38.7906 77.1968 39.3002 79.7452C40.3196 84.587 41.7211 87.8148 43.505 89.4288C44.4394 90.2782 45.9259 90.8728 47.9645 91.2126C49.0688 91.3825 50.7252 91.6373 52.9338 91.9771L54.2079 92.2319C54.3778 92.3169 54.5902 92.3593 54.845 92.3593H64.0189C68.6909 92.3593 73.8724 91.2551 79.5637 89.0465C81.1776 88.4519 83.0889 87.6025 85.2974 86.4982C85.892 85.9885 86.7839 85.3939 87.9731 84.7144C89.9268 83.78 91.6682 82.7182 93.1972 81.529C96.0853 79.1506 100.375 73.7991 106.066 65.4746C107.595 63.1811 108.53 61.5672 108.869 60.6328C109.464 59.2737 110.016 57.4474 110.526 55.1539L111.035 55.4087C109.676 57.2775 108.615 58.2119 107.85 58.2119C107.51 58.2119 107.128 58.042 106.703 57.7022C106.279 57.2775 106.066 56.8952 106.066 56.5555C106.066 55.9609 106.236 55.1539 106.576 54.1346C106.916 53.0303 107.086 52.2233 107.086 51.7137C107.086 51.4588 106.873 48.5707 106.448 43.0494C106.364 41.9451 105.981 41.1381 105.302 40.6285C104.622 40.4586 103.688 40.1188 102.499 39.6091C101.734 39.0145 100.8 38.335 99.6954 37.5705C97.8266 36.8909 95.9154 36.5512 93.9617 36.5512C93.537 36.5512 92.2203 37.613 90.0118 39.7366C87.8882 41.7752 86.5291 42.7945 85.9345 42.7945C85.6796 42.7945 85.2974 42.5397 84.7877 42.0301V40.7559C84.7877 40.1613 84.9576 39.5242 85.2974 38.8447C85.6372 38.0802 85.8071 37.613 85.8071 37.4431C86.1468 35.6593 86.3167 33.4932 86.3167 30.9449V29.4159C86.3167 27.5471 85.6796 26.1455 84.4055 25.2111C84.3205 24.4467 83.8958 23.6822 83.1313 22.9177ZM101.734 45.2155C99.9502 45.2155 99.0583 44.5784 99.0583 43.3042C99.0583 42.6247 99.3556 41.9451 99.9502 41.2656C100.545 40.5011 101.182 40.1188 101.861 40.1188C102.456 40.1188 103.136 40.4586 103.9 41.1381C104.75 41.8177 105.174 42.4548 105.174 43.0494C105.174 44.4934 104.028 45.2155 101.734 45.2155ZM96.0003 44.3235C93.9617 45.2579 92.9424 45.7676 92.9424 45.8525C92.7725 45.8525 91.8806 45.3853 90.2666 44.451V44.0687C90.0967 43.644 90.0118 43.3042 90.0118 43.0494C90.0118 42.3698 90.394 41.7327 91.1585 41.1381C91.923 40.4586 92.6451 40.1188 93.3246 40.1188C93.6644 40.1188 94.3015 40.3312 95.2358 40.7559C96.2552 41.1806 96.8073 41.5204 96.8922 41.7752C96.8922 42.0301 96.5949 42.8795 96.0003 44.3235ZM104.282 55.6636C103.688 56.0883 102.923 56.3006 101.989 56.3006C100.29 56.3006 99.4406 55.4087 99.4406 53.6249C99.4406 51.926 100.63 51.0766 103.008 51.0766C103.433 51.0766 103.943 51.5862 104.537 52.6056C105.217 53.6249 105.557 54.3469 105.557 54.7716L104.282 55.6636ZM73.1929 30.3078C72.4284 30.3078 71.7913 29.8831 71.2816 29.0336C70.772 28.1842 70.6446 27.4197 70.8994 26.7401C72.0886 25.8907 73.2778 25.466 74.467 25.466C75.9111 25.466 76.5482 26.6552 76.3783 29.0336C74.6794 29.8831 73.6176 30.3078 73.1929 30.3078ZM79.054 36.6786C77.3551 36.6786 76.5057 35.6593 76.5057 33.6206C76.5057 32.941 76.8879 32.3889 77.6524 31.9642C78.5019 31.4545 79.2664 31.1997 79.9459 31.1997C81.8996 31.1997 82.8765 32.0491 82.8765 33.748C82.8765 35.7017 81.6023 36.6786 79.054 36.6786ZM100.332 64.7101C98.2938 64.7101 97.2745 63.8606 97.2745 62.1618C97.2745 60.2081 98.039 59.2312 99.568 59.2312C100.163 59.2312 100.885 59.6559 101.734 60.5054C102.583 61.2699 103.008 61.9494 103.008 62.544C103.008 63.9881 102.116 64.7101 100.332 64.7101ZM89.6295 58.2119C87.1662 58.2119 85.9345 57.235 85.9345 55.2813C85.9345 53.4975 87.0812 52.6056 89.3747 52.6056C89.8844 52.6056 90.2666 52.648 90.5215 52.733C90.8612 53.3276 91.201 53.7948 91.5408 54.1346L91.7956 54.3894C92.2203 54.6442 92.4327 55.1539 92.4327 55.9184C92.4327 57.4474 91.4983 58.2119 89.6295 58.2119ZM79.5637 52.0959C77.9497 52.0959 77.1428 51.1191 77.1428 49.1653C77.1428 48.6557 77.3976 48.0186 77.9073 47.2541C78.5019 46.4047 79.054 45.9799 79.5637 45.9799C81.7722 45.9799 82.8765 47.1692 82.8765 49.5476C82.8765 51.2465 81.7722 52.0959 79.5637 52.0959ZM69.4978 42.7945C68.9032 42.7945 68.3086 42.4548 67.714 41.7752C67.2043 41.0107 66.9495 40.3312 66.9495 39.7366C66.9495 38.6323 68.0113 37.6554 70.1349 36.806C72.0037 37.9952 72.9381 39.2269 72.9381 40.5011C72.9381 40.9258 72.4709 41.4354 71.5365 42.0301C70.6021 42.5397 69.9225 42.7945 69.4978 42.7945ZM62.4899 35.0222C60.2814 35.0222 59.1771 34.1727 59.1771 32.4739C59.1771 31.1148 60.069 30.4352 61.8529 30.4352C63.5517 30.4352 64.5711 31.0723 64.9109 32.3464C64.9958 32.1766 65.1232 32.0916 65.2931 32.0916C65.6329 32.0067 65.8028 32.2615 65.8028 32.8561C65.8028 34.3002 64.6985 35.0222 62.4899 35.0222ZM89.5021 72.4825C88.0581 72.4825 87.3361 71.8029 87.3361 70.4438C87.3361 67.9804 88.3554 66.7487 90.394 66.7487C91.1585 66.7487 91.8381 67.2584 92.4327 68.2777C93.0273 69.2971 93.1972 70.189 92.9424 70.9535C91.7531 71.9728 90.6064 72.4825 89.5021 72.4825ZM82.112 64.4553C81.5174 64.88 80.9228 65.0923 80.3282 65.0923C78.7142 65.0923 77.9073 64.1155 77.9073 62.1618C77.9073 61.6521 78.2471 61.1849 78.9266 60.7602C79.6911 60.2505 80.3282 59.9957 80.8378 59.9957C82.2819 59.9957 83.0039 60.7177 83.0039 62.1618C83.0039 62.9263 82.7066 63.6908 82.112 64.4553ZM63.6367 49.4202C62.7873 50.1847 61.8529 50.5669 60.8335 50.5669C60.154 50.5669 59.5169 50.1847 58.9223 49.4202C58.3277 48.6557 58.0304 47.9337 58.0304 47.2541C58.0304 45.2154 59.2621 44.1961 61.7255 44.1961C62.3201 44.1961 62.9996 44.5359 63.7641 45.2155C64.5286 45.8101 64.9109 46.4047 64.9109 46.9993C64.9109 47.7638 64.4861 48.5707 63.6367 49.4202ZM70.0075 58.5941H69.243C67.4592 58.5941 66.5673 57.7447 66.5673 56.0458C66.5673 55.4512 66.907 54.8991 67.5866 54.3894C68.2661 53.7948 68.9032 53.4975 69.4978 53.4975C70.3473 53.4975 71.1118 53.7523 71.7913 54.262C72.6408 55.0265 73.0655 55.7485 73.0655 56.4281C73.0655 57.2775 72.0461 57.9995 70.0075 58.5941ZM53.9531 44.451H54.2079L54.3353 44.5784C54.4203 44.7483 54.4627 45.1305 54.4627 45.7251C54.2929 45.5552 53.9106 45.3004 53.316 44.9606C53.1461 44.7907 52.6364 44.3235 51.787 43.559C51.3623 43.1343 51.1499 42.5822 51.1499 41.9026C51.1499 41.393 51.3623 40.8833 51.787 40.3736C53.2311 39.6091 54.3353 39.2269 55.0998 39.2269C55.3547 39.2269 55.652 39.3543 55.9917 39.6091L56.374 39.9914C57.2234 40.6709 57.6481 41.308 57.6481 41.9026C57.6481 42.5822 57.1809 43.2193 56.2466 43.8139C55.3122 44.3235 54.5477 44.5359 53.9531 44.451ZM87.8457 83.3128C85.8071 83.3128 84.7877 82.251 84.7877 80.1274C84.7877 79.4479 85.2125 78.8533 86.0619 78.3436C86.9113 77.8339 87.6758 77.5791 88.3554 77.5791C90.0543 77.5791 90.9037 78.5135 90.9037 80.3822C90.9037 81.0618 90.5639 81.6989 89.8844 82.2935C89.2048 82.973 88.5253 83.3128 87.8457 83.3128ZM79.8185 77.8339C79.7336 78.0038 79.5637 78.0888 79.3089 78.0888C78.3745 78.0888 77.9073 77.4517 77.9073 76.1775C77.9073 74.5636 78.8841 73.7566 80.8378 73.7566C82.5367 73.7566 83.3862 74.4786 83.3862 75.9227C83.3862 76.3474 83.0889 76.7721 82.4943 77.1968C81.8996 77.6216 81.3475 77.8339 80.8378 77.8339H79.8185ZM71.2816 72.1002C68.3086 72.1002 66.8221 71.2508 66.8221 69.5519C66.8221 68.7874 67.2043 68.0229 67.9688 67.2584C68.7333 66.409 69.4978 65.9842 70.2623 65.9842C70.9419 65.9842 71.6639 66.409 72.4284 67.2584C73.2778 68.1078 73.7026 68.8723 73.7026 69.5519C73.7026 69.9766 73.4052 70.5287 72.8106 71.2083C72.216 71.8029 71.7064 72.1002 71.2816 72.1002ZM60.5787 59.6134L60.4513 59.9957C60.3664 60.2505 60.3664 60.6752 60.4513 61.2699L59.6868 61.5247C58.6675 62.0344 58.0304 62.2892 57.7756 62.2892C55.7369 62.2892 54.7176 61.3123 54.7176 59.3586C54.7176 58.6791 54.9724 58.042 55.4821 57.4474C56.0767 56.7678 56.6713 56.4281 57.2659 56.4281C57.9454 56.4281 58.6675 56.7254 59.432 57.32C60.1965 57.9146 60.5787 58.5517 60.5787 59.2312V59.6134ZM50.6403 50.4395C50.7252 50.3546 50.8526 50.2696 51.0225 50.1847L51.9144 50.9492C51.6596 51.6287 51.3198 52.6056 50.8951 53.8797C49.6209 54.4743 48.8564 54.7716 48.6016 54.7716C46.563 54.7716 45.5436 53.7948 45.5436 51.8411C45.5436 50.1422 46.3931 49.2928 48.0919 49.2928C48.9414 49.2928 49.5785 49.5051 50.0032 49.9298C50.1731 50.0148 50.3854 50.1847 50.6403 50.4395ZM68.6059 87.8998C67.7565 87.8998 66.5673 87.4751 65.0383 86.6256C65.5479 83.9924 66.3124 82.6757 67.3318 82.6757C68.1812 82.6757 69.0306 82.9306 69.8801 83.4402C70.7295 84.0348 71.1542 84.7569 71.1542 85.6063C71.1542 86.116 70.8569 86.6256 70.2623 87.1353C69.6677 87.645 69.1156 87.8998 68.6059 87.8998ZM43.7598 60.6328C43.9297 60.5478 44.1421 60.5054 44.3969 60.5054C45.5861 60.5054 46.1807 61.3548 46.1807 63.0537C46.1807 64.6676 45.1189 65.4746 42.9953 65.4746C41.8061 65.4746 41.2115 64.5402 41.2115 62.6714C41.2115 61.9069 41.7211 61.015 42.7405 59.9957C43.1652 59.9957 43.505 60.2081 43.7598 60.6328ZM62.4899 77.7065L62.1077 78.0888L61.9803 78.3436C61.5556 80.1274 60.2814 81.0193 58.1578 81.0193C56.1192 81.0193 55.0998 80.1274 55.0998 78.3436C55.0998 77.664 55.652 77.027 56.7562 76.4324C57.8605 75.8377 58.7949 75.5404 59.5594 75.5404C61.0034 75.5404 62.1077 76.0076 62.8722 76.942C62.8722 77.2818 62.7448 77.5366 62.4899 77.7065ZM50.1306 72.4825H49.3661C47.9221 72.4825 47.2 71.6755 47.2 70.0616C47.2 68.6175 48.2618 67.5982 50.3854 67.0036H51.2773C52.1268 69.0422 52.5515 70.1465 52.5515 70.3164C52.5515 71.7604 51.7445 72.4825 50.1306 72.4825ZM59.432 90.5755C59.0072 90.9153 58.4126 91.0852 57.6481 91.0852C55.7794 91.0852 54.845 90.2357 54.845 88.5369C54.845 86.9229 55.6944 86.116 57.3933 86.116C58.3277 86.116 59.0922 86.5832 59.6868 87.5175C59.8567 87.8573 60.1965 88.282 60.7061 88.7917V89.9384C60.3663 90.1083 59.9416 90.3207 59.432 90.5755ZM43.505 80.3822C41.7211 80.3822 40.8292 79.4903 40.8292 77.7065C40.8292 77.027 41.169 76.3899 41.8486 75.7953C42.5281 75.2007 43.2077 74.9034 43.8872 74.9034C44.3969 74.9034 44.9065 75.2856 45.4162 76.0501C45.9259 76.7297 46.1807 77.3243 46.1807 77.8339C46.1807 78.4285 45.8834 79.0231 45.2888 79.6178C44.6942 80.1274 44.0996 80.3822 43.505 80.3822ZM49.3661 87.3901C47.6672 87.3901 46.8178 86.6681 46.8178 85.2241C46.8178 85.0542 46.8603 84.7993 46.9452 84.4596L47.0726 84.2047V83.8225C48.9414 83.058 50.0881 82.6757 50.5128 82.6757C51.6171 82.6757 52.1693 83.3978 52.1693 84.8418C52.1693 86.5407 51.2349 87.3901 49.3661 87.3901ZM102.753 42.7945L102.244 42.4123H101.607C101.522 42.5822 101.522 42.7096 101.607 42.7945V43.1768L102.753 43.0494V42.7945ZM93.9617 42.5397L93.452 43.0494C92.9424 42.7945 92.5601 42.6247 92.3053 42.5397V42.6671C92.2203 42.7521 92.0929 42.9644 91.923 43.3042L92.0504 43.4316H92.8149C93.0698 43.4316 93.4945 43.1768 94.0891 42.6671L93.9617 42.5397ZM101.607 54.3894H101.734C101.904 54.4743 102.031 54.5168 102.116 54.5168C102.371 54.5168 102.711 54.4319 103.136 54.262V53.8797L102.626 53.3701V53.4975C102.541 53.8373 102.414 54.0496 102.244 54.1346C101.989 54.1346 101.734 54.0921 101.479 54.0071L101.607 54.3894ZM73.0655 27.6321V27.7595C73.1504 27.7595 73.2354 27.717 73.3203 27.6321H73.0655ZM80.3282 33.8754C79.9884 34.1303 79.7336 34.4276 79.5637 34.7673H79.8185L79.9459 34.6399L80.2008 34.5125L80.4556 34.2577L80.3282 33.8754ZM99.9502 61.6521C100.035 61.6521 100.078 61.6946 100.078 61.7795H99.568C99.483 61.7795 99.3981 61.822 99.3132 61.9069L99.0583 62.0344V62.4166C99.3981 62.7564 99.7379 62.9263 100.078 62.9263C100.248 62.8413 100.417 62.7988 100.587 62.7988L100.715 62.6714C100.205 62.3317 99.9502 61.9919 99.9502 61.6521ZM90.394 55.791C90.0543 55.1964 89.8419 54.8991 89.757 54.8991C89.3322 54.984 88.7376 55.2813 87.9731 55.791V56.0458C88.3979 56.1307 88.7801 56.1732 89.1199 56.1732C89.5446 56.1732 89.9693 56.1307 90.394 56.0458V55.791ZM80.3282 48.146C79.9035 48.4008 79.4787 48.7831 79.054 49.2928C79.4787 49.7175 79.861 49.9298 80.2008 49.9298C80.7954 49.9298 81.0927 49.7175 81.0927 49.2928C81.0927 48.5283 80.8378 48.146 80.3282 48.146ZM70.8994 39.864C70.7295 39.6941 70.5172 39.5667 70.2623 39.4817C70.1774 39.7366 70.05 40.0339 69.8801 40.3736C70.1349 40.3736 70.4747 40.3312 70.8994 40.2462V39.864ZM61.3432 32.9835L61.598 33.1109C61.7679 33.1959 61.8953 33.2384 61.9803 33.2384C62.7448 32.8136 63.1695 32.4314 63.2544 32.0916L63.5093 32.4739H63.2544L62.8722 32.3464C62.7023 32.2615 62.5324 32.219 62.3625 32.219C62.1926 32.304 61.8529 32.4739 61.3432 32.7287V32.9835ZM91.0311 69.1696L89.2473 70.189H89.6295C90.2242 70.0191 90.6913 69.8067 91.0311 69.5519V69.1696ZM80.0733 63.1811C80.3282 63.0112 80.6255 62.7564 80.9653 62.4166V62.1618L80.583 62.0344L80.3282 62.1618C80.0733 62.4166 79.9459 62.629 79.9459 62.7988V63.0537L80.0733 63.1811ZM60.7061 46.7444L60.4513 46.8719L60.3239 46.9993C60.5787 47.2541 60.8335 47.3815 61.0884 47.3815C61.598 47.3815 61.9378 47.2116 62.1077 46.8719L62.2351 47.2541C61.8104 47.339 61.3007 47.1692 60.7061 46.7444ZM70.6446 55.9184L68.8607 56.4281C68.9457 56.6829 69.0731 56.8103 69.243 56.8103C70.0075 56.6404 70.5596 56.4281 70.8994 56.1732L70.6446 55.9184ZM53.9531 41.7752C54.2929 41.7752 54.5902 41.7327 54.845 41.6478L54.9724 42.2849C54.8025 42.2849 54.4627 42.115 53.9531 41.7752ZM53.9531 41.7752L53.5708 41.5204L53.4434 41.393L53.0612 41.7752H53.9531ZM87.2086 80.8919L87.3361 81.0193C87.421 81.1043 87.5059 81.1467 87.5909 81.1467C87.8457 81.1467 88.3129 80.8919 88.9925 80.3822C88.9075 79.9575 88.6952 79.5328 88.3554 79.1081C88.0156 79.278 87.6334 79.5328 87.2086 79.8726V80.8919ZM80.3282 75.6679L79.9459 76.0501H80.3282C80.583 76.0501 80.7954 75.9652 80.9653 75.7953C80.7954 75.7953 80.583 75.7528 80.3282 75.6679ZM71.2816 69.1696C70.687 68.66 70.2623 68.4051 70.0075 68.4051C69.158 68.4051 68.7333 68.7449 68.7333 69.4245C68.7333 69.8492 69.158 70.0616 70.0075 70.0616C70.3473 70.0616 70.772 69.9341 71.2816 69.6793V69.1696ZM57.1385 60.2505L57.2659 60.3779C57.5207 60.293 57.9454 60.1231 58.5401 59.8683C58.5401 58.849 58.1578 58.3818 57.3933 58.4667L57.5207 57.957C57.8605 58.2119 58.1578 58.6791 58.4126 59.3586V59.6134H58.1578C58.2428 59.7833 58.2428 59.8683 58.1578 59.8683C57.818 59.9532 57.5207 59.9108 57.2659 59.7409L57.1385 59.9957V60.2505ZM47.8371 52.0959H47.9645C48.1344 52.1809 48.2618 52.2233 48.3468 52.2233C48.5167 52.2233 48.6441 52.1809 48.729 52.0959L48.9839 51.8411V51.7137L48.0919 51.4588L47.8371 51.7137V52.0959ZM67.9688 84.8418C67.714 85.0117 67.5016 85.2665 67.3318 85.6063C67.5016 85.7762 67.8414 85.8611 68.3511 85.8611V84.8418H67.9688ZM44.3969 62.4166H43.8872L43.505 62.7988C43.3351 63.0537 43.1227 63.1811 42.8679 63.1811C42.698 63.0112 42.6131 62.8838 42.6131 62.7988L42.4856 62.544C42.4856 62.4591 42.4432 62.3741 42.3582 62.2892L42.8679 62.0344C42.8679 62.1193 42.8254 62.2892 42.7405 62.544C42.6555 62.7988 42.6131 62.9687 42.6131 63.0537C42.6131 63.5633 42.8679 63.8182 43.3776 63.8182C44.1421 63.8182 44.5243 63.5633 44.5243 63.0537C44.5243 62.8838 44.4818 62.7139 44.3969 62.544V62.4166ZM59.9416 77.3243H59.6868C59.347 77.8339 58.9223 78.2162 58.4126 78.471L57.7756 77.9613C57.4358 78.1312 57.2234 78.3436 57.1385 78.5984C57.5632 78.9382 57.903 79.1081 58.1578 79.1081C59.5169 79.1081 60.1965 78.8108 60.1965 78.2162C60.1965 78.1312 60.154 78.0038 60.069 77.8339C59.9841 77.5791 59.9416 77.4092 59.9416 77.3243ZM49.2387 69.8067H49.1113V70.3164C49.4511 70.4863 49.7484 70.5712 50.0032 70.5712C50.258 70.5712 50.5128 70.4863 50.7677 70.3164V69.5519C50.6827 69.5519 50.5553 69.6368 50.3854 69.8067L50.1306 69.5519C50.1306 69.7218 50.0457 69.8492 49.8758 69.9341L49.2387 69.8067ZM57.6481 88.5369C57.5632 88.6218 57.5207 88.7492 57.5207 88.9191L57.3933 89.0465L58.0304 89.1739L58.1578 88.5369C58.0729 88.4519 57.9879 88.4519 57.903 88.5369H57.6481ZM42.3582 77.5791C42.3582 78.3436 42.698 78.7258 43.3776 78.7258C43.5474 78.6409 43.8872 78.3436 44.3969 77.8339C44.227 77.664 44.0571 77.5366 43.8872 77.4517C43.5474 77.9613 43.2077 78.2162 42.8679 78.2162C42.6131 78.0463 42.4432 77.8339 42.3582 77.5791ZM50.1306 84.9692H50.0032L49.8758 84.8418H49.7484C49.6634 84.6719 49.536 84.587 49.3661 84.587C49.1962 84.6719 48.9839 84.8418 48.729 85.0966L48.8564 85.2241H48.9839L49.1113 85.3515H50.0032L50.1306 84.9692Z" fill="#4D0803"/>
</g>
<defs>
<clipPath id="clip0_149_179">
<rect width="159" height="101" fill="white"/>
</clipPath>
</defs>
</svg>
