<svg width="263" height="225" viewBox="0 0 263 225" fill="none" xmlns="http://www.w3.org/2000/svg">
<path d="M189.841 217.735H189.551V217.589H189.841V217.735ZM229.937 187.009C229.937 187.542 229.526 188.292 228.702 189.261C228.363 189.745 227.467 190.496 226.015 191.513C224.126 193.111 222.698 194.442 221.729 195.508C221.293 196.089 220.712 196.742 219.986 197.469C220.131 197.759 220.204 197.929 220.204 197.977C220.204 198.316 220.18 198.462 220.131 198.413C220.325 198.946 220.591 199.43 220.93 199.866C220.979 200.011 221.075 200.277 221.221 200.665C221.657 201.294 222.238 202.287 222.964 203.643C222.867 203.788 222.819 204.006 222.819 204.297C223.109 204.829 223.472 205.58 223.908 206.548V207.711C224.15 208.001 224.271 208.292 224.271 208.582C224.271 209.599 224.005 210.713 223.472 211.924C223.182 212.263 222.77 212.771 222.238 213.449C221.463 214.902 220.325 215.628 218.824 215.628C217.904 215.628 217.056 215.362 216.281 214.829C215.797 214.345 214.998 213.594 213.884 212.577C213.449 212.287 212.916 211.899 212.286 211.415C212.044 211.173 211.657 210.761 211.124 210.18C210.204 209.696 209.211 208.873 208.146 207.711C207.759 207.372 207.42 207.202 207.129 207.202C206.403 207.202 205.797 207.347 205.313 207.638C204.006 208.461 202.868 209.478 201.899 210.689C202.044 211.076 201.439 211.827 200.083 212.941C199.89 213.037 198.509 213.909 195.943 215.555C195.652 216.088 194.999 216.621 193.982 217.153C193.159 217.541 192.65 217.735 192.456 217.735C192.408 217.735 192.36 217.71 192.311 217.662H192.166C192.069 217.662 191.778 217.759 191.294 217.952C190.81 218.146 190.495 218.243 190.35 218.243H189.841C189.212 218.243 188.607 218.025 188.026 217.589C187.735 217.444 187.517 217.105 187.372 216.572C186.936 214.974 186.718 213.885 186.718 213.304C186.718 212.868 186.839 211.972 187.081 210.616C187.372 209.26 187.59 208.413 187.735 208.074C188.171 207.105 188.582 205.846 188.97 204.297C189.018 203.667 189.115 202.626 189.26 201.173C188.921 201.028 188.292 200.883 187.372 200.738C183.595 200.06 181.924 199.721 182.36 199.721C182.263 199.721 182.19 199.745 182.142 199.793C182.142 199.842 182.118 199.866 182.069 199.866C181.972 199.866 181.343 199.6 180.181 199.067C179.019 198.486 178.365 198.195 178.22 198.195H178.147C178.098 198.244 178.05 198.268 178.002 198.268C178.002 198.219 177.735 198.05 177.203 197.759C176.718 197.469 175.895 197.033 174.733 196.452C173.958 196.016 173.425 195.677 173.135 195.435C172.118 194.466 171.61 193.789 171.61 193.401C171.61 193.304 171.658 193.183 171.755 193.038C171.9 192.844 171.973 192.699 171.973 192.602C172.021 192.457 172.118 192.166 172.263 191.731L173.062 190.568C173.304 190.278 173.837 189.624 174.66 188.607L175.822 187.808C175.919 187.421 177.227 186.573 179.745 185.266C180.278 184.83 181.077 184.273 182.142 183.595L184.684 182.36C185.556 181.924 186.258 181.416 186.791 180.835C188.534 178.22 190.277 175.775 192.021 173.499C192.311 173.16 192.892 172.482 193.764 171.465C193.958 171.174 194.321 170.69 194.853 170.012C195.192 169.915 195.652 169.697 196.234 169.358C196.476 169.165 196.887 168.898 197.468 168.559C198.001 168.414 198.582 168.341 199.212 168.341C200.374 168.341 201.536 169.237 202.698 171.029C203.086 171.61 203.86 173.063 205.023 175.387C205.652 176.598 206.257 177.566 206.839 178.293C206.935 178.535 207.105 178.946 207.347 179.527C208.606 181.271 209.55 182.142 210.18 182.142C210.422 182.142 211.003 182.094 211.923 181.997L213.521 181.779H213.957C214.151 181.828 214.272 181.876 214.32 181.924C214.514 181.924 214.974 181.803 215.7 181.561C216.185 181.464 216.984 181.416 218.097 181.416C219.841 181.416 221.584 181.658 223.327 182.142L224.635 182.506C224.683 182.506 224.731 182.481 224.78 182.433H224.853C225.724 182.433 226.79 182.99 228.049 184.104C229.308 185.217 229.937 186.186 229.937 187.009ZM213.812 182.36V182.215H213.449V182.36H213.812ZM213.957 184.104V183.958H213.666V184.104H213.957ZM218.025 196.67L217.879 196.597L217.444 197.324L217.589 197.396L218.025 196.67ZM210.47 190.786V190.641H210.252V190.786H210.47ZM223.618 207.347V207.057H223.472V207.347H223.618ZM225.216 187.59C225.216 187.203 225.022 186.767 224.635 186.283C224.247 186.041 223.884 185.774 223.545 185.484C222.577 184.564 221.826 184.104 221.293 184.104C220.519 184.104 219.865 184.152 219.332 184.249C218.267 184.588 217.661 184.757 217.516 184.757C217.419 184.757 217.298 184.733 217.153 184.685H216.862C216.136 184.685 214.925 184.927 213.231 185.411C212.746 185.556 212.601 185.629 212.795 185.629H212.068C211.729 185.677 211.512 185.702 211.415 185.702C211.318 185.702 210.713 185.556 209.599 185.266L206.257 183.813C205.676 182.941 204.829 181.222 203.715 178.656C203.618 178.462 203.449 178.075 203.207 177.494C203.158 177.203 203.061 176.864 202.916 176.477L201.173 173.281C200.64 172.506 199.647 172.118 198.195 172.118C196.064 172.118 193.74 174.758 191.222 180.036C191.076 180.278 190.762 180.787 190.277 181.561C190.18 181.755 189.551 182.723 188.389 184.467C188.437 184.515 188.437 184.588 188.389 184.685C188.098 185.121 187.614 185.677 186.936 186.355C186.645 186.597 186.161 186.84 185.483 187.082H184.539C183.909 187.275 182.82 187.639 181.27 188.171C180.931 188.268 180.132 188.752 178.873 189.624C177.324 190.689 176.549 191.464 176.549 191.948C176.549 192.772 176.839 193.619 177.42 194.491C177.614 194.733 178.074 194.951 178.801 195.144C179.333 195.241 179.866 195.362 180.399 195.508C181.416 195.604 182.602 195.774 183.958 196.016C186.04 196.403 187.638 196.839 188.752 197.324C190.883 198.244 191.948 199.89 191.948 202.263C191.948 203.086 191.875 203.861 191.73 204.587C191.246 205.072 191.004 205.992 191.004 207.347C191.004 207.929 191.076 208.728 191.222 209.745C191.222 209.938 191.294 210.35 191.439 210.979C191.778 211.56 192.238 211.851 192.82 211.851C193.11 211.851 194.563 211.028 197.178 209.381C197.226 209.333 198.582 207.929 201.245 205.168C202.069 204.297 202.916 203.788 203.788 203.643C203.788 203.546 203.836 203.474 203.933 203.425L204.442 203.643C204.587 203.595 204.926 203.57 205.458 203.57H206.548C206.887 203.57 207.395 203.691 208.073 203.934C209.478 204.902 211.415 206.306 213.884 208.146C214.126 208.195 214.417 208.316 214.756 208.51C215.579 209.188 216.814 210.108 218.46 211.27C218.654 211.415 218.993 211.488 219.477 211.488C220.543 211.488 221.075 211.1 221.075 210.326C221.075 210.422 221.003 210.18 220.857 209.599L221.003 209.454C221.1 209.551 221.148 209.623 221.148 209.672L221.439 207.638C221.439 206.282 220.64 204.321 219.042 201.754L218.243 200.955C217.226 199.454 216.717 198.437 216.717 197.905L217.371 196.815C218.049 195.653 219.066 194.394 220.422 193.038C221.535 191.876 222.673 190.714 223.836 189.551C224.756 188.583 225.216 187.929 225.216 187.59ZM209.671 207.13V206.912H209.599V207.13H209.671ZM191.367 204.587V204.297H191.222V204.587H191.367ZM174.951 191.585H174.806L174.733 191.803H174.806L174.951 191.585ZM178.583 196.815C178.583 196.767 178.51 196.694 178.365 196.597V196.888C178.462 196.888 178.534 196.864 178.583 196.815ZM195.943 214.103L195.87 214.03L195.652 214.103V214.248L195.943 214.103ZM188.389 207.711H188.243L188.026 208.437L188.098 208.51L188.389 207.711ZM222.092 187.445C222.092 187.59 221.947 187.953 221.657 188.534C221.414 189.067 221.245 189.358 221.148 189.406C220.809 189.697 220.325 190.132 219.695 190.714C219.405 191.149 218.921 191.731 218.243 192.457L216.499 193.982C216.112 194.466 215.555 195.217 214.829 196.234C214.635 196.67 214.538 197.299 214.538 198.123C214.538 199.043 214.901 200.156 215.628 201.464C216.112 202.336 216.79 203.449 217.661 204.805C218.582 206.113 219.042 206.984 219.042 207.42C218.993 207.565 218.896 208.171 218.751 209.236C218.654 209.43 218.533 209.527 218.388 209.527H217.734C217.395 209.575 217.201 209.599 217.153 209.599C216.088 209.115 215.24 208.631 214.611 208.146C214.369 207.517 212.819 205.774 209.962 202.917C207.977 202.287 206.717 201.972 206.185 201.972H205.386C205.241 202.069 204.926 202.239 204.442 202.481C203.764 202.674 202.771 203.038 201.463 203.57C201.415 203.619 199.89 204.563 196.887 206.403C195.289 207.372 194.393 207.856 194.2 207.856C193.57 207.856 193.255 207.517 193.255 206.839L193.183 200.447C193.183 199.817 192.965 199.043 192.529 198.123C192.335 197.735 191.827 197.227 191.004 196.597C189.745 195.677 188.873 195.217 188.389 195.217H188.243C188.243 195.266 188.219 195.29 188.171 195.29C188.122 195.29 187.832 195.193 187.299 194.999C186.766 194.805 186.355 194.709 186.064 194.709C186.016 194.709 185.967 194.733 185.919 194.781H185.774C186.21 194.781 185.459 194.563 183.522 194.128C182.989 194.031 182.336 193.861 181.561 193.619C181.222 193.522 180.834 193.232 180.399 192.747C180.35 192.554 180.229 192.287 180.035 191.948C180.617 191.416 180.98 191.149 181.125 191.149C181.222 191.149 181.294 191.198 181.343 191.295C181.391 191.343 181.44 191.367 181.488 191.367C181.004 191.367 181.391 191.198 182.65 190.859C185.023 190.229 187.033 189.091 188.679 187.445C189.067 187.154 190.205 185.484 192.093 182.433C192.723 181.416 193.958 179.431 195.798 176.477C196.088 176.041 196.645 175.581 197.468 175.097H197.977C199.284 175.097 200.277 175.992 200.955 177.784C201.052 178.026 201.391 178.825 201.972 180.181C202.117 180.811 202.383 181.682 202.771 182.796C203.013 183.087 203.279 183.474 203.57 183.958C204.732 185.944 206.766 186.888 209.671 186.791L219.405 185.556C219.937 185.508 220.519 185.677 221.148 186.065C221.778 186.452 222.092 186.912 222.092 187.445ZM200.374 177.639V177.421H200.229V177.639H200.374ZM201.318 183.305L201.173 182.796L201.028 182.869L201.245 183.305H201.318ZM217.08 188.389C216.499 188.147 216.257 188.026 216.354 188.026L209.671 189.333C209.284 189.285 208.703 189.261 207.928 189.261C206.282 189.261 204.272 188.074 201.899 185.702L200.301 182.288C200.011 181.852 199.672 181.295 199.284 180.617C199.284 179.988 199.139 179.237 198.848 178.365C198.558 178.026 198.219 177.857 197.832 177.857C197.154 177.857 196.282 178.85 195.217 180.835C194.781 181.658 194.151 182.893 193.328 184.539C193.183 185.556 192.045 187.009 189.914 188.898C189.672 189.237 189.212 189.648 188.534 190.132C188.243 190.229 187.832 190.447 187.299 190.786H187.009L185.556 191.513C185.023 191.803 184.636 192.166 184.394 192.602C184.733 192.602 184.951 192.626 185.047 192.675C185.483 192.82 186.089 192.99 186.863 193.183C187.348 193.183 188.05 193.256 188.97 193.401C189.406 193.595 189.987 193.837 190.713 194.128C191.924 194.321 192.699 194.515 193.037 194.709C193.619 194.999 194.127 195.58 194.563 196.452C195.047 197.275 195.289 197.905 195.289 198.34C195.289 198.97 195.241 199.648 195.144 200.374C194.95 201.875 194.853 202.481 194.853 202.19C194.853 203.401 195.144 204.006 195.725 204.006C196.064 204.006 196.355 203.934 196.597 203.788C197.371 203.159 198.752 202.36 200.737 201.391C201.028 201.149 201.439 200.883 201.972 200.592C202.166 200.544 202.65 200.447 203.425 200.302L205.676 199.793C206.064 199.793 206.766 199.963 207.783 200.302C208.848 200.641 209.526 200.907 209.817 201.101C210.446 201.585 211.608 202.674 213.303 204.369H213.666C213.812 204.708 214.03 205.096 214.32 205.532C214.465 205.677 214.732 205.749 215.119 205.749C215.264 205.749 215.385 205.701 215.482 205.604V205.386C215.482 204.95 215.047 203.934 214.175 202.336L213.013 200.156C212.867 199.963 212.746 199.745 212.649 199.503C212.504 199.018 212.432 198.437 212.432 197.759C212.432 196.403 212.722 195.362 213.303 194.636L213.812 193.982C214.054 193.643 214.998 192.239 216.645 189.769C216.79 189.527 216.935 189.067 217.08 188.389ZM212.068 191.222C212.068 192.045 211.342 193.135 209.889 194.491C209.599 194.781 209.453 195.12 209.453 195.508C209.453 195.604 209.55 195.968 209.744 196.597C209.841 196.597 209.938 196.646 210.035 196.742C210.858 198.631 211.269 199.527 211.269 199.43V200.592C210.591 200.738 210.18 200.81 210.035 200.81C209.986 200.81 209.792 200.738 209.453 200.592C209.114 200.447 208.897 200.374 208.8 200.374C208.219 199.745 207.613 199.212 206.984 198.776C205.579 198.292 204.248 198.05 202.989 198.05C202.553 198.05 202.287 198.074 202.19 198.123C198.8 200.156 197.202 201.173 197.396 201.173C196.718 201.173 196.379 200.689 196.379 199.721C196.379 199.382 196.451 198.849 196.597 198.123C196.79 197.396 196.887 196.864 196.887 196.525V195.653C196.839 195.508 196.403 195.048 195.58 194.273C195.386 194.031 195.047 193.764 194.563 193.474C193.885 193.329 193.11 193.256 192.238 193.256C192.142 193.256 191.972 193.28 191.73 193.329H191.222C190.495 193.329 189.841 193.135 189.26 192.747C188.534 192.312 188.243 191.755 188.389 191.077C189.067 190.689 189.478 190.496 189.624 190.496C189.72 190.496 189.769 190.52 189.769 190.568C189.769 190.617 189.793 190.641 189.841 190.641C190.084 190.641 190.883 190.084 192.238 188.97C193.11 187.905 194.369 186.428 196.016 184.539C196.112 184.394 196.282 184.322 196.524 184.322C197.105 184.322 197.977 185.048 199.139 186.501C199.526 186.985 200.229 187.663 201.245 188.534C201.633 188.873 202.432 189.261 203.642 189.697C203.836 189.842 204.175 190.011 204.659 190.205C205.822 190.496 206.742 190.641 207.42 190.641C207.516 190.641 207.662 190.617 207.855 190.568C208.049 190.52 208.194 190.496 208.291 190.496C210.761 190.35 211.778 190.278 211.342 190.278C211.633 190.278 211.875 190.593 212.068 191.222ZM207.71 193.111C207.178 192.82 206.839 192.675 206.693 192.675C206.596 192.675 206.451 192.699 206.257 192.747H205.749C205.555 192.747 204.95 192.505 203.933 192.021C203.449 191.924 202.747 191.706 201.827 191.367C201.391 191.125 200.519 190.423 199.212 189.261C197.904 188.099 197.057 187.518 196.669 187.518C195.362 189.745 194.006 191.149 192.602 191.731C193.134 191.924 193.933 192.166 194.999 192.457C196.016 192.457 196.984 192.844 197.904 193.619C198.582 194.2 198.897 195.604 198.848 197.832C199.139 197.832 199.551 197.784 200.083 197.687C200.325 197.396 200.64 197.057 201.028 196.67C201.899 196.234 202.601 196.016 203.134 196.016C203.57 196.016 204.078 196.065 204.659 196.161C204.902 196.258 205.434 196.5 206.257 196.888C206.693 197.178 206.935 197.348 206.984 197.396H207.42C207.516 197.106 207.565 196.912 207.565 196.815C207.565 196.573 207.516 196.21 207.42 195.726C207.323 195.241 207.274 194.878 207.274 194.636C207.274 194.152 207.42 193.643 207.71 193.111Z" fill="#FFE8A3"/>
<path d="M220.884 172.596L220.763 172.567L220.778 172.507L220.898 172.536L220.884 172.596ZM240.622 163.94C240.568 164.161 240.321 164.43 239.881 164.747C239.691 164.914 239.244 165.134 238.539 165.407C237.594 165.878 236.866 166.284 236.357 166.627C236.117 166.824 235.81 167.035 235.435 167.263C235.466 167.398 235.478 167.475 235.474 167.495C235.439 167.636 235.414 167.694 235.399 167.669C235.425 167.909 235.486 168.137 235.583 168.352C235.588 168.417 235.601 168.537 235.622 168.713C235.738 169.018 235.878 169.488 236.041 170.124C235.987 170.174 235.944 170.26 235.915 170.38C235.981 170.63 236.055 170.978 236.137 171.424L236.019 171.905C236.09 172.05 236.111 172.183 236.081 172.303C235.978 172.725 235.754 173.159 235.41 173.607C235.256 173.718 235.033 173.887 234.744 174.113C234.275 174.637 233.73 174.822 233.108 174.669C232.726 174.576 232.402 174.379 232.135 174.08C231.984 173.83 231.729 173.438 231.371 172.903C231.22 172.738 231.038 172.524 230.827 172.259C230.751 172.134 230.632 171.924 230.471 171.629C230.139 171.335 229.811 170.893 229.488 170.303C229.362 170.123 229.238 170.019 229.118 169.989C228.817 169.915 228.551 169.914 228.321 169.985C227.696 170.193 227.121 170.499 226.596 170.902C226.617 171.078 226.29 171.327 225.615 171.651C225.525 171.671 224.864 171.892 223.634 172.314C223.459 172.505 223.134 172.659 222.658 172.777C222.278 172.853 222.048 172.882 221.967 172.862C221.947 172.857 221.93 172.842 221.914 172.817L221.854 172.803C221.814 172.793 221.684 172.803 221.464 172.834C221.243 172.865 221.103 172.874 221.043 172.859L220.832 172.807C220.571 172.743 220.342 172.591 220.146 172.352C220.04 172.262 219.985 172.099 219.978 171.864C219.96 171.157 219.981 170.684 220.04 170.443C220.084 170.262 220.225 169.903 220.463 169.366C220.722 168.834 220.898 168.505 220.993 168.379C221.272 168.022 221.57 167.542 221.888 166.939C221.972 166.684 222.118 166.262 222.326 165.675C222.201 165.58 221.954 165.456 221.588 165.302C220.092 164.637 219.434 164.327 219.614 164.371C219.574 164.361 219.542 164.364 219.517 164.379C219.512 164.399 219.499 164.407 219.479 164.402C219.439 164.392 219.205 164.218 218.778 163.879C218.355 163.52 218.114 163.333 218.054 163.318L218.024 163.311C217.999 163.326 217.976 163.331 217.956 163.326C217.961 163.306 217.868 163.209 217.677 163.034C217.506 162.865 217.209 162.601 216.786 162.242C216.509 161.982 216.323 161.788 216.227 161.658C215.904 161.153 215.763 160.821 215.802 160.66C215.812 160.62 215.844 160.575 215.899 160.524C215.979 160.459 216.024 160.406 216.034 160.366C216.069 160.311 216.138 160.2 216.243 160.034L216.692 159.634C216.822 159.538 217.109 159.321 217.553 158.984L218.116 158.771C218.196 158.62 218.824 158.402 220 158.116C220.265 157.989 220.653 157.84 221.163 157.667L222.342 157.414C222.748 157.322 223.09 157.182 223.37 156.996C224.358 156.089 225.329 155.253 226.283 154.487C226.438 154.376 226.748 154.155 227.212 153.822C227.322 153.721 227.522 153.557 227.811 153.33C227.962 153.325 228.174 153.281 228.45 153.2C228.57 153.144 228.767 153.076 229.042 152.994C229.278 152.988 229.526 153.017 229.787 153.081C230.269 153.199 230.659 153.689 230.959 154.549C231.06 154.829 231.233 155.51 231.479 156.591C231.617 157.157 231.769 157.62 231.936 157.98C231.952 158.09 231.98 158.278 232.021 158.543C232.366 159.394 232.668 159.851 232.929 159.915C233.03 159.94 233.275 159.979 233.666 160.032L234.351 160.104L234.531 160.148C234.607 160.188 234.652 160.22 234.667 160.245C234.747 160.265 234.95 160.262 235.276 160.235C235.486 160.244 235.822 160.305 236.284 160.419C237.006 160.596 237.704 160.873 238.377 161.251L238.882 161.535C238.902 161.54 238.925 161.534 238.95 161.519L238.98 161.527C239.341 161.615 239.726 161.954 240.134 162.544C240.543 163.133 240.705 163.599 240.622 163.94ZM234.412 160.374L234.427 160.314L234.276 160.277L234.262 160.337L234.412 160.374ZM234.295 161.112L234.31 161.051L234.189 161.022L234.175 161.082L234.295 161.112ZM234.703 166.732L234.651 166.687L234.396 166.944L234.449 166.989L234.703 166.732ZM232.171 163.526L232.186 163.466L232.096 163.444L232.081 163.504L232.171 163.526ZM235.936 171.725L235.965 171.605L235.905 171.59L235.876 171.711L235.936 171.725ZM238.606 163.701C238.646 163.54 238.61 163.34 238.498 163.1C238.362 162.96 238.239 162.813 238.128 162.658C237.82 162.178 237.556 161.911 237.335 161.857C237.014 161.778 236.738 161.732 236.508 161.718C236.032 161.75 235.764 161.759 235.704 161.744C235.663 161.734 235.616 161.712 235.56 161.677L235.44 161.648C235.139 161.574 234.613 161.551 233.861 161.58C233.646 161.59 233.578 161.606 233.658 161.626L233.357 161.552C233.212 161.537 233.119 161.525 233.079 161.515C233.039 161.505 232.803 161.384 232.371 161.15L231.134 160.209C230.982 159.788 230.805 158.99 230.605 157.813C230.584 157.723 230.553 157.545 230.512 157.28C230.522 157.154 230.516 157.004 230.495 156.829L230.098 155.327C229.956 154.952 229.584 154.691 228.982 154.543C228.099 154.326 226.867 155.184 225.287 157.115C225.203 157.201 225.02 157.379 224.741 157.651C224.681 157.722 224.322 158.059 223.663 158.663C223.678 158.688 223.671 158.718 223.641 158.754C223.476 158.905 223.219 159.086 222.869 159.298C222.724 159.369 222.499 159.42 222.193 159.451L221.802 159.356C221.522 159.372 221.033 159.412 220.337 159.475C220.187 159.48 219.806 159.6 219.196 159.833C218.445 160.117 218.046 160.359 217.996 160.56C217.913 160.901 217.947 161.282 218.099 161.702C218.155 161.822 218.323 161.959 218.605 162.113C218.816 162.208 219.024 162.312 219.23 162.426C219.642 162.57 220.116 162.761 220.653 162.999C221.477 163.371 222.095 163.714 222.507 164.028C223.296 164.626 223.57 165.416 223.329 166.399C223.246 166.741 223.137 167.054 223.003 167.34C222.753 167.492 222.559 167.849 222.421 168.41C222.362 168.651 222.311 168.99 222.268 169.426C222.248 169.506 222.236 169.684 222.233 169.96C222.314 170.235 222.475 170.402 222.716 170.461C222.836 170.491 223.522 170.297 224.773 169.881C224.798 169.866 225.502 169.421 226.887 168.548C227.316 168.271 227.719 168.146 228.095 168.175C228.105 168.135 228.132 168.109 228.177 168.099L228.366 168.241C228.431 168.236 228.574 168.26 228.795 168.314L229.246 168.425C229.387 168.46 229.585 168.561 229.841 168.731C230.325 169.275 230.985 170.054 231.821 171.067C231.917 171.112 232.025 171.191 232.146 171.306C232.418 171.671 232.836 172.178 233.4 172.827C233.466 172.906 233.599 172.971 233.799 173.02C234.241 173.128 234.501 173.022 234.58 172.701C234.57 172.741 234.564 172.633 234.563 172.378L234.638 172.332C234.668 172.382 234.681 172.417 234.676 172.438L235.003 171.624C235.141 171.062 235.009 170.168 234.608 168.943L234.358 168.53C234.089 167.805 233.982 167.332 234.036 167.111L234.418 166.726C234.817 166.313 235.366 165.895 236.066 165.471C236.646 165.102 237.235 164.737 237.835 164.373C238.315 164.065 238.572 163.841 238.606 163.701ZM230.179 170.218L230.201 170.127L230.171 170.12L230.149 170.21L230.179 170.218ZM222.852 167.304L222.882 167.183L222.821 167.168L222.792 167.289L222.852 167.304ZM217.371 160.247L217.311 160.232L217.259 160.315L217.289 160.323L217.371 160.247ZM218.345 162.783C218.35 162.763 218.327 162.726 218.276 162.671L218.247 162.791C218.287 162.801 218.32 162.799 218.345 162.783ZM223.781 171.712L223.759 171.674L223.661 171.682L223.646 171.742L223.781 171.712ZM221.301 168.295L221.24 168.28L221.076 168.559L221.099 168.597L221.301 168.295ZM237.327 163.323C237.312 163.383 237.215 163.519 237.035 163.73C236.881 163.926 236.781 164.03 236.736 164.04C236.566 164.126 236.321 164.257 236.001 164.434C235.836 164.585 235.577 164.776 235.222 165.009L234.345 165.463C234.135 165.625 233.828 165.879 233.423 166.227C233.299 166.388 233.195 166.639 233.111 166.98C233.017 167.361 233.055 167.86 233.223 168.475C233.335 168.886 233.503 169.416 233.726 170.066C233.974 170.702 234.076 171.11 234.032 171.29C233.997 171.346 233.896 171.587 233.727 172.013C233.667 172.084 233.607 172.112 233.547 172.097L233.276 172.03C233.131 172.016 233.048 172.006 233.028 172.001C232.636 171.692 232.334 171.406 232.122 171.141C232.086 170.855 231.621 169.976 230.727 168.501C229.969 168.039 229.479 167.78 229.258 167.726L228.927 167.645C228.857 167.67 228.709 167.708 228.484 167.76C228.184 167.771 227.735 167.821 227.139 167.908C227.114 167.923 226.386 168.16 224.955 168.617C224.194 168.856 223.774 168.966 223.694 168.946C223.433 168.882 223.337 168.709 223.406 168.429L224.025 165.772C224.089 165.512 224.078 165.168 223.991 164.743C223.95 164.563 223.791 164.3 223.514 163.956C223.086 163.446 222.771 163.167 222.57 163.118L222.51 163.103C222.505 163.123 222.493 163.131 222.473 163.126C222.453 163.121 222.342 163.051 222.141 162.917C221.94 162.783 221.779 162.701 221.659 162.671C221.639 162.666 221.616 162.671 221.591 162.686L221.531 162.672C221.712 162.716 221.423 162.549 220.665 162.172C220.454 162.078 220.2 161.941 219.904 161.762C219.773 161.687 219.642 161.527 219.511 161.282C219.51 161.197 219.487 161.075 219.441 160.914C219.736 160.753 219.914 160.679 219.974 160.694C220.014 160.704 220.039 160.731 220.049 160.776C220.065 160.801 220.082 160.816 220.102 160.821C219.902 160.772 220.079 160.741 220.636 160.729C221.683 160.709 222.631 160.442 223.481 159.927C223.671 159.846 224.312 159.269 225.405 158.197C225.769 157.84 226.483 157.142 227.545 156.105C227.71 155.954 227.988 155.82 228.378 155.703L228.589 155.755C229.13 155.888 229.451 156.36 229.55 157.171C229.565 157.281 229.624 157.647 229.727 158.268C229.724 158.544 229.745 158.932 229.793 159.433C229.863 159.578 229.934 159.765 230.006 159.996C230.285 160.936 231.032 161.534 232.246 161.79L236.405 162.267C236.631 162.301 236.854 162.431 237.076 162.655C237.297 162.88 237.381 163.102 237.327 163.323ZM229.324 157.052L229.346 156.962L229.286 156.947L229.263 157.037L229.324 157.052ZM229.139 159.496L229.13 159.27L229.063 159.286L229.109 159.488L229.139 159.496ZM235.154 163.205C234.938 163.045 234.85 162.971 234.89 162.981L231.988 162.843C231.832 162.784 231.594 162.715 231.273 162.636C230.59 162.468 229.878 161.773 229.136 160.548L228.821 158.971C228.745 158.761 228.661 158.496 228.569 158.175C228.633 157.915 228.649 157.589 228.618 157.198C228.532 157.028 228.408 156.923 228.248 156.884C227.967 156.815 227.505 157.138 226.862 157.852C226.597 158.149 226.211 158.597 225.703 159.195C225.539 159.602 224.92 160.088 223.845 160.654C223.71 160.77 223.478 160.894 223.147 161.026C223.017 161.036 222.825 161.085 222.569 161.171L222.449 161.142L221.773 161.295C221.523 161.361 221.325 161.472 221.181 161.628C221.321 161.663 221.409 161.695 221.444 161.725C221.61 161.829 221.844 161.961 222.145 162.12C222.346 162.169 222.629 162.271 222.996 162.425C223.157 162.549 223.373 162.708 223.644 162.903C224.126 163.106 224.428 163.265 224.549 163.38C224.76 163.559 224.911 163.852 225.003 164.257C225.12 164.648 225.157 164.933 225.112 165.114C225.048 165.374 224.959 165.65 224.846 165.942C224.613 166.544 224.511 166.785 224.541 166.665C224.417 167.166 224.476 167.447 224.717 167.506C224.858 167.54 224.985 167.54 225.101 167.504C225.486 167.322 226.139 167.131 227.06 166.932C227.205 166.861 227.402 166.792 227.653 166.726C227.738 166.726 227.948 166.735 228.284 166.753L229.269 166.771C229.43 166.811 229.703 166.952 230.09 167.196C230.497 167.445 230.751 167.624 230.852 167.734C231.063 167.999 231.434 168.568 231.964 169.443L232.115 169.48C232.141 169.635 232.192 169.818 232.268 170.028C232.313 170.103 232.416 170.16 232.577 170.199C232.637 170.214 232.692 170.206 232.742 170.176L232.764 170.086C232.808 169.905 232.731 169.439 232.532 168.689L232.272 167.668C232.232 167.573 232.204 167.47 232.188 167.36C232.177 167.144 232.206 166.896 232.275 166.615C232.413 166.053 232.639 165.651 232.954 165.41L233.231 165.19C233.366 165.074 233.9 164.589 234.833 163.732C234.918 163.647 235.025 163.471 235.154 163.205ZM232.789 163.869C232.705 164.21 232.294 164.588 231.554 165.002C231.404 165.093 231.309 165.219 231.27 165.379C231.26 165.42 231.263 165.58 231.279 165.86C231.32 165.87 231.355 165.9 231.385 165.95C231.534 166.816 231.614 167.23 231.624 167.189L231.505 167.671C231.21 167.662 231.032 167.651 230.972 167.636C230.952 167.631 230.879 167.581 230.753 167.486C230.627 167.392 230.544 167.339 230.504 167.33C230.327 167.01 230.131 166.727 229.914 166.483C229.381 166.139 228.854 165.904 228.333 165.776C228.152 165.732 228.039 165.714 227.994 165.725C226.383 166.223 225.617 166.482 225.697 166.502C225.416 166.433 225.325 166.198 225.424 165.796C225.458 165.656 225.542 165.442 225.676 165.156C225.83 164.875 225.925 164.664 225.959 164.524L226.048 164.162C226.043 164.097 225.909 163.862 225.646 163.458C225.591 163.338 225.477 163.193 225.306 163.023C225.04 162.894 224.726 162.785 224.365 162.697C224.325 162.687 224.252 162.68 224.147 162.675L223.936 162.623C223.635 162.549 223.384 162.403 223.183 162.183C222.926 161.929 222.862 161.668 222.991 161.402C223.312 161.311 223.502 161.272 223.562 161.287C223.602 161.297 223.62 161.312 223.615 161.332C223.61 161.352 223.618 161.364 223.638 161.369C223.738 161.394 224.126 161.244 224.801 160.921C225.27 160.568 225.942 160.084 226.816 159.469C226.871 159.418 226.949 159.405 227.049 159.43C227.29 159.489 227.577 159.879 227.911 160.599C228.022 160.839 228.245 161.191 228.577 161.656C228.703 161.835 228.995 162.077 229.452 162.381C229.518 162.461 229.641 162.565 229.822 162.695C230.274 162.933 230.641 163.087 230.922 163.156C230.962 163.166 231.024 163.171 231.11 163.17C231.195 163.17 231.258 163.175 231.298 163.184C232.336 163.375 232.765 163.449 232.584 163.404C232.704 163.434 232.773 163.589 232.789 163.869ZM230.791 164.209C230.6 164.034 230.474 163.94 230.414 163.925C230.374 163.915 230.311 163.91 230.226 163.911L230.015 163.859C229.935 163.839 229.709 163.678 229.337 163.374C229.146 163.284 228.877 163.123 228.53 162.889C228.374 162.744 228.084 162.364 227.661 161.75C227.237 161.135 226.945 160.808 226.784 160.769C226.016 161.559 225.312 162.003 224.671 162.101C224.872 162.236 225.178 162.417 225.59 162.646C226.011 162.749 226.373 163.008 226.676 163.423C226.898 163.733 226.885 164.347 226.639 165.265C226.759 165.294 226.935 165.316 227.165 165.33C227.295 165.234 227.46 165.126 227.66 165.005C228.066 164.913 228.379 164.894 228.599 164.948C228.78 164.992 228.986 165.064 229.217 165.163C229.307 165.228 229.503 165.382 229.805 165.626C229.956 165.791 230.039 165.886 230.054 165.911L230.235 165.955C230.305 165.845 230.344 165.769 230.354 165.729C230.379 165.629 230.396 165.474 230.405 165.263C230.414 165.052 230.431 164.897 230.455 164.797C230.505 164.596 230.617 164.4 230.791 164.209Z" fill="#FFE8A3"/>
<path d="M29.0213 182.724L28.8561 182.809L28.8134 182.727L28.9786 182.641L29.0213 182.724ZM42.7902 153.473C42.9467 153.776 42.9332 154.324 42.7497 155.116C42.6993 155.491 42.4105 156.181 41.8833 157.186C41.2791 158.65 40.8581 159.827 40.6205 160.717C40.5435 161.175 40.4052 161.718 40.2056 162.344C40.3736 162.467 40.4647 162.542 40.4789 162.569C40.5785 162.762 40.6074 162.852 40.5657 162.839C40.8323 163.084 41.126 163.282 41.4468 163.43C41.517 163.498 41.6504 163.621 41.8468 163.799C42.2796 164.029 42.9016 164.422 43.713 164.98C43.7006 165.091 43.7371 165.229 43.8225 165.394C44.1442 165.612 44.5713 165.932 45.1036 166.354L45.4451 167.015C45.6681 167.109 45.8223 167.239 45.9077 167.404C46.2065 167.982 46.3824 168.693 46.4352 169.538C46.3696 169.816 46.285 170.226 46.1813 170.768C46.1677 171.822 45.7341 172.569 44.8806 173.011C44.3575 173.281 43.7974 173.378 43.2004 173.303C42.7827 173.17 42.1079 172.978 41.1759 172.727C40.8427 172.69 40.426 172.626 39.9258 172.536C39.717 172.47 39.3758 172.349 38.9022 172.175C38.2368 172.17 37.4305 171.994 36.4833 171.646C36.1634 171.567 35.9209 171.571 35.7557 171.656C35.3427 171.87 35.0412 172.13 34.8513 172.437C34.3498 173.29 34.0016 174.202 33.8066 175.175C34.0031 175.353 33.8795 175.957 33.4358 176.989C33.3541 177.101 32.8256 178.002 31.8501 179.692C31.8414 180.08 31.6263 180.575 31.2046 181.177C30.8504 181.639 30.6182 181.899 30.5081 181.956C30.4805 181.97 30.4459 181.97 30.4041 181.957L30.3215 182C30.2665 182.028 30.1297 182.169 29.9113 182.421C29.6929 182.673 29.5424 182.821 29.4598 182.864L29.1707 183.013C28.8128 183.198 28.4046 183.252 27.9462 183.175C27.7383 183.178 27.5148 183.049 27.2757 182.789C26.5583 182.008 26.1143 181.453 25.9435 181.123C25.8155 180.875 25.6211 180.33 25.3604 179.488C25.1271 178.631 25.002 178.086 24.985 177.85C24.9483 177.172 24.8123 176.335 24.5773 175.34C24.4198 174.968 24.169 174.347 23.8247 173.479C23.5893 173.496 23.1887 173.598 22.6229 173.786C20.2762 174.51 19.2267 174.808 19.4745 174.68C19.4194 174.709 19.3852 174.744 19.3719 174.786C19.3862 174.813 19.3795 174.834 19.352 174.848C19.2969 174.877 18.8607 174.91 18.0434 174.949C17.2119 174.96 16.7549 174.987 16.6723 175.03L16.631 175.051C16.6177 175.093 16.5972 175.121 16.5697 175.135C16.5555 175.107 16.3542 175.089 15.966 175.081C15.6053 175.058 15.0092 175.052 14.1777 175.063C13.6091 175.043 13.2066 175.006 12.9703 174.954C12.1076 174.702 11.6193 174.466 11.5054 174.246C11.477 174.191 11.4689 174.108 11.4813 173.997C11.507 173.844 11.5056 173.74 11.4772 173.685C11.462 173.588 11.4317 173.395 11.3862 173.104L11.499 172.209C11.5513 171.972 11.6621 171.444 11.8313 170.624L12.2574 169.828C12.1986 169.579 12.693 168.713 13.7405 167.23C13.9153 166.826 14.2059 166.274 14.6125 165.576L15.6951 164.127C16.0626 163.623 16.3124 163.128 16.4445 162.641C16.6674 160.642 16.94 158.739 17.2624 156.933C17.328 156.655 17.4592 156.098 17.656 155.264C17.6807 155.042 17.7449 154.66 17.8486 154.118C18.0129 153.963 18.2104 153.704 18.4412 153.341C18.5219 153.16 18.6777 152.887 18.9085 152.524C19.1687 152.285 19.4777 152.073 19.8356 151.888C20.4964 151.546 21.4204 151.714 22.6077 152.391C22.9987 152.608 23.8661 153.206 25.2098 154.186C25.9234 154.69 26.5522 155.062 27.096 155.305C27.2222 155.414 27.4395 155.598 27.7479 155.857C28.976 156.478 29.769 156.697 30.1269 156.512C30.2646 156.44 30.5807 156.242 31.0754 155.917L31.9199 155.323L32.1677 155.195C32.2921 155.166 32.3752 155.158 32.4169 155.171C32.527 155.114 32.753 154.91 33.0949 154.559C33.3417 154.362 33.7818 154.099 34.4151 153.772C35.4062 153.26 36.4685 152.885 37.602 152.649L38.4521 152.471C38.4796 152.457 38.5 152.429 38.5133 152.387L38.5546 152.366C39.0502 152.109 39.8196 152.113 40.8627 152.376C41.9058 152.64 42.5483 153.005 42.7902 153.473ZM32.2559 155.568L32.2132 155.486L32.0067 155.592L32.0494 155.675L32.2559 155.568ZM32.8507 156.517L32.808 156.434L32.6428 156.52L32.6855 156.602L32.8507 156.517ZM38.8558 162.466L38.7518 162.468L38.7175 163.009L38.8214 163.007L38.8558 162.466ZM32.8319 161.341L32.7892 161.258L32.6653 161.322L32.708 161.405L32.8319 161.341ZM45.1732 166.894L45.0878 166.729L45.0052 166.771L45.0906 166.937L45.1732 166.894ZM40.2765 155.191C40.1627 154.971 39.9245 154.78 39.5619 154.618C39.2705 154.595 38.9858 154.55 38.7077 154.484C37.8867 154.246 37.3247 154.205 37.0219 154.361C36.5814 154.589 36.2239 154.808 35.9495 155.02C35.4434 155.526 35.149 155.8 35.0664 155.843C35.0114 155.871 34.9354 155.893 34.8386 155.908L34.6734 155.993C34.2604 156.207 33.6432 156.7 32.8219 157.474C32.5893 157.699 32.528 157.783 32.6381 157.726L32.2251 157.939C32.0466 158.066 31.9299 158.144 31.8748 158.172C31.8197 158.201 31.4329 158.296 30.7143 158.458L28.3877 158.614C27.8012 158.289 26.8142 157.561 25.4269 156.429C25.3149 156.347 25.1047 156.177 24.7963 155.917C24.6834 155.766 24.5287 155.602 24.3323 155.425L22.402 154.12C21.8715 153.836 21.1933 153.907 20.3673 154.334C19.1559 154.96 18.6098 157.144 18.729 160.884C18.7175 161.065 18.688 161.446 18.6403 162.029C18.6422 162.168 18.5688 162.903 18.4203 164.236C18.462 164.249 18.4834 164.291 18.4843 164.36C18.4472 164.693 18.3355 165.152 18.1492 165.737C18.0552 165.96 17.851 166.24 17.5367 166.577L16.9998 166.854C16.6988 167.149 16.186 167.676 15.4615 168.434C15.2972 168.589 14.9852 169.099 14.5255 169.964C13.9575 171.025 13.7446 171.693 13.8869 171.969C14.1288 172.437 14.543 172.833 15.1295 173.158C15.3108 173.239 15.6363 173.228 16.1062 173.124C16.4376 173.023 16.776 172.935 17.1215 172.861C17.7282 172.617 18.4525 172.365 19.2946 172.104C20.5923 171.713 21.6289 171.491 22.4045 171.439C23.8862 171.336 24.9757 171.959 25.6729 173.308C25.9148 173.776 26.1012 174.238 26.232 174.694C26.099 175.112 26.2317 175.706 26.6301 176.477C26.8008 176.807 27.0769 177.24 27.4583 177.776C27.5152 177.886 27.6774 178.098 27.945 178.414C28.3085 178.644 28.6554 178.675 28.9858 178.504C29.151 178.418 29.7351 177.523 30.7381 175.819C30.7514 175.777 31.1096 174.58 31.8129 172.228C32.0248 171.491 32.3572 170.953 32.8101 170.614C32.7817 170.559 32.7879 170.504 32.8287 170.448L33.1818 170.422C33.2502 170.352 33.4358 170.239 33.7387 170.082L34.3582 169.762C34.5509 169.662 34.8755 169.582 35.3321 169.52C36.4152 169.658 37.9291 169.887 39.8739 170.208C40.0258 170.164 40.2266 170.148 40.4762 170.158C41.1435 170.302 42.1159 170.462 43.3935 170.639C43.5463 170.665 43.7604 170.607 44.0357 170.464C44.6414 170.151 44.8305 169.775 44.6028 169.334C44.6313 169.389 44.5188 169.273 44.2655 168.985L44.3054 168.86C44.3889 168.886 44.4378 168.914 44.452 168.941L44.0196 167.699C43.6212 166.928 42.5907 166.048 40.928 165.058L40.2389 164.839C39.2196 164.284 38.6317 163.855 38.4752 163.553L38.5268 162.741C38.5707 161.881 38.779 160.866 39.1515 159.697C39.4432 158.709 39.7488 157.714 40.0681 156.712C40.3066 155.891 40.3761 155.384 40.2765 155.191ZM37.1798 170.868L37.1158 170.744L37.0745 170.765L37.1385 170.889L37.1798 170.868ZM26.0255 174.801L25.9401 174.636L25.8575 174.678L25.9429 174.843L26.0255 174.801ZM12.8716 172.232L12.789 172.274L12.8117 172.42L12.853 172.398L12.8716 172.232ZM16.4732 174.138C16.459 174.111 16.3964 174.091 16.2853 174.078L16.3707 174.243C16.4257 174.215 16.4599 174.18 16.4732 174.138ZM31.4233 178.866L31.3606 178.846L31.2581 178.952L31.3008 179.034L31.4233 178.866ZM25.25 177.452L25.1674 177.494L25.2569 177.971L25.3196 177.991L25.25 177.452ZM38.458 156.026C38.5006 156.109 38.5248 156.358 38.5303 156.774C38.5492 157.148 38.5382 157.363 38.4973 157.419C38.39 157.683 38.2427 158.074 38.0555 158.589C38.0184 158.922 37.9138 159.395 37.7418 160.007L37.1988 161.386C37.1208 161.776 37.0248 162.366 36.9106 163.158C36.9285 163.462 37.0584 163.849 37.3003 164.317C37.5706 164.84 38.1044 165.366 38.9016 165.896C39.433 166.25 40.1457 166.684 41.0397 167.198C41.947 167.672 42.4647 168.032 42.5927 168.28C42.6079 168.377 42.7307 168.749 42.9611 169.398C42.9629 169.536 42.9226 169.627 42.84 169.669L42.4683 169.862C42.2898 169.989 42.1868 170.059 42.1592 170.074C41.4112 170.111 40.7871 170.085 40.2869 169.995C39.9643 169.708 38.571 169.172 36.1071 168.387C34.7933 168.613 33.985 168.804 33.6821 168.96L33.2278 169.195C33.1737 169.293 33.0445 169.481 32.8403 169.761C32.5118 170.071 32.0541 170.569 31.4672 171.256C31.4539 171.298 30.8641 172.283 29.6978 174.211C29.0738 175.231 28.7067 175.77 28.5966 175.827C28.2387 176.012 27.9601 175.912 27.7609 175.526L25.8414 171.913C25.6565 171.555 25.3049 171.179 24.7868 170.784C24.5628 170.62 24.1243 170.481 23.4713 170.365C22.4851 170.211 21.8543 170.206 21.579 170.348L21.4964 170.391C21.5107 170.418 21.504 170.439 21.4765 170.454C21.4489 170.468 21.2553 170.498 20.8955 170.545C20.5357 170.591 20.2733 170.657 20.1081 170.742C20.0805 170.756 20.0601 170.784 20.0468 170.826L19.9642 170.869C20.212 170.741 19.7212 170.837 18.4919 171.159C18.1605 171.26 17.7391 171.356 17.2274 171.446C17.0062 171.49 16.7006 171.439 16.3105 171.292C16.226 171.196 16.079 171.08 15.8692 170.944C16.0431 170.471 16.1713 170.213 16.2539 170.17C16.309 170.141 16.3645 170.148 16.4205 170.188C16.4623 170.202 16.4969 170.201 16.5245 170.187C16.2491 170.329 16.4196 170.119 17.0358 169.556C18.2 168.501 19.0082 167.264 19.4605 165.844C19.5954 165.565 19.7515 164.281 19.9289 161.991C19.988 161.228 20.1067 159.736 20.285 157.516C20.3221 157.183 20.5036 156.758 20.8294 156.241L21.1185 156.091C21.8618 155.707 22.6895 155.925 23.6014 156.744C23.7276 156.853 24.1551 157.208 24.8839 157.808C25.1515 158.124 25.559 158.541 26.1065 159.06C26.3296 159.154 26.5948 159.296 26.9023 159.486C28.1465 160.274 29.5803 160.213 31.2038 159.304L36.375 155.742C36.6636 155.558 37.0438 155.484 37.5155 155.519C37.9873 155.554 38.3014 155.723 38.458 156.026ZM23.2283 156.832L23.1643 156.708L23.0817 156.751L23.1457 156.875L23.2283 156.832ZM25.43 159.776L25.198 159.53L25.1367 159.614L25.3887 159.798L25.43 159.776ZM35.8858 158.036C35.4843 158.069 35.311 158.071 35.3661 158.043L31.9508 160.75C31.7163 160.836 31.3788 160.993 30.9383 161.221C30.0022 161.704 28.511 161.62 26.4647 160.968L24.553 159.497C24.2597 159.334 23.9034 159.117 23.4839 158.846C23.2989 158.488 22.9958 158.104 22.5745 157.694C22.3097 157.586 22.0671 157.589 21.8469 157.703C21.4614 157.902 21.2575 158.723 21.2352 160.165C21.2293 160.761 21.2342 161.648 21.2499 162.826C21.4661 163.447 21.246 164.607 20.5895 166.307C20.5514 166.571 20.4108 166.94 20.1676 167.415C20.0309 167.555 19.8609 167.8 19.6576 168.149L19.4924 168.235L18.8799 169.074C18.6624 169.396 18.5488 169.716 18.5392 170.035C18.732 169.936 18.863 169.886 18.9323 169.885C19.2228 169.839 19.6167 169.758 20.1141 169.64C20.3895 169.498 20.81 169.333 21.3758 169.145C21.6805 169.127 22.0821 169.094 22.5804 169.046C23.3257 168.8 23.8231 168.683 24.0727 168.693C24.4885 168.688 24.9483 168.869 25.4522 169.236C25.9695 169.562 26.2921 169.849 26.4202 170.097C26.6051 170.454 26.7768 170.854 26.9352 171.296C27.2661 172.206 27.3889 172.579 27.3035 172.413C27.6593 173.102 28.0023 173.361 28.3327 173.19C28.5254 173.09 28.6693 172.964 28.7643 172.81C29.0198 172.224 29.5697 171.364 30.414 170.23C30.508 170.007 30.6638 169.735 30.8813 169.413C30.9772 169.329 31.224 169.131 31.6219 168.821L32.7527 167.87C32.973 167.757 33.422 167.647 34.0998 167.541C34.8051 167.42 35.2688 167.373 35.4909 167.397C35.9911 167.488 36.9721 167.766 38.4337 168.231L38.6402 168.125C38.8224 168.275 39.0601 168.431 39.3534 168.593C39.4787 168.633 39.6514 168.596 39.8717 168.482C39.9543 168.44 40.0089 168.377 40.0355 168.293L39.9715 168.169C39.8434 167.921 39.2968 167.471 38.3317 166.819L37.0306 165.921C36.8911 165.854 36.7583 165.766 36.632 165.656C36.4072 165.424 36.1951 165.115 35.9959 164.729C35.5975 163.958 35.4568 163.281 35.5738 162.697L35.6708 162.176C35.7088 161.912 35.8331 160.836 36.0435 158.948C36.055 158.768 36.0024 158.464 35.8858 158.036ZM33.8686 161.119C34.1104 161.587 34.0176 162.42 33.59 163.618C33.5102 163.868 33.5272 164.104 33.641 164.324C33.6695 164.379 33.8313 164.557 34.1264 164.858C34.1814 164.83 34.2507 164.829 34.3343 164.855C35.3572 165.687 35.8545 166.076 35.826 166.021L36.1675 166.681C35.8247 166.963 35.6121 167.125 35.5295 167.168C35.5019 167.182 35.3705 167.198 35.135 167.215C34.8996 167.232 34.7544 167.255 34.6993 167.283C34.184 167.096 33.6833 166.971 33.1973 166.908C32.2566 167.045 31.4283 167.299 30.7124 167.669C30.4647 167.797 30.3203 167.889 30.2795 167.945C28.9498 170.097 28.3401 171.145 28.4502 171.088C28.0647 171.287 27.7297 171.112 27.4452 170.561C27.3455 170.368 27.2303 170.044 27.0995 169.588C26.9962 169.119 26.8948 168.787 26.7952 168.595L26.539 168.099C26.4688 168.031 26.0859 167.897 25.3901 167.698C25.2089 167.618 24.9379 167.566 24.5772 167.543C24.149 167.66 23.6872 167.846 23.1916 168.102C23.1365 168.13 23.0473 168.194 22.9238 168.293L22.6348 168.442C22.2218 168.656 21.7932 168.738 21.3489 168.688C20.8079 168.654 20.4791 168.422 20.3625 167.994C20.6341 167.575 20.8112 167.344 20.8938 167.301C20.9489 167.273 20.9835 167.272 20.9977 167.3C21.012 167.327 21.0329 167.334 21.0604 167.32C21.1981 167.248 21.4887 166.697 21.9324 165.665C22.1149 164.804 22.3968 163.594 22.778 162.036C22.7904 161.925 22.8654 161.834 23.003 161.763C23.3334 161.592 24.0424 161.749 25.1301 162.234C25.4926 162.395 26.0911 162.574 26.9253 162.771C27.2452 162.85 27.8133 162.835 28.6297 162.728C28.7825 162.753 29.025 162.75 29.3573 162.718C30.1034 162.542 30.6692 162.354 31.0547 162.155C31.1098 162.126 31.1852 162.07 31.2811 161.985C31.377 161.901 31.4525 161.844 31.5076 161.816C32.8691 161.008 33.4259 160.668 33.1781 160.796C33.3433 160.71 33.5735 160.818 33.8686 161.119ZM31.9455 163.473C31.5573 163.465 31.3219 163.482 31.2393 163.524C31.1842 163.553 31.1088 163.609 31.0129 163.694L30.7238 163.843C30.6136 163.9 30.1983 163.94 29.4779 163.964C29.1741 164.051 28.7108 164.133 28.0881 164.211C27.7692 164.201 27.0673 164.058 25.9824 163.782C24.8975 163.505 24.245 163.424 24.0247 163.537C23.9359 165.188 23.5776 166.385 22.9499 167.128C23.3097 167.082 23.8351 166.985 24.5262 166.837C25.1044 166.538 25.7688 166.474 26.5196 166.644C27.0758 166.775 27.6674 167.481 28.2944 168.762C28.4596 168.676 28.6794 168.528 28.9538 168.316C29.0061 168.08 29.0854 167.795 29.1919 167.461C29.5594 166.957 29.8946 166.626 30.1974 166.47C30.4452 166.342 30.7486 166.22 31.1074 166.104C31.2735 166.088 31.6475 166.069 32.2294 166.048C32.5626 166.085 32.75 166.11 32.7918 166.123L33.0396 165.995C33.0093 165.802 32.9799 165.677 32.9514 165.622C32.8803 165.485 32.7461 165.292 32.5487 165.045C32.3513 164.799 32.2171 164.606 32.146 164.469C32.0037 164.193 31.9369 163.862 31.9455 163.473Z" fill="#FFE8A3"/>
<path d="M162.675 94.7316C163.45 94.7316 165.774 93.8923 169.648 92.2135C173.651 90.5348 176.557 89.6955 178.365 89.6955C179.268 89.8246 181.722 90.0828 185.725 90.4702C188.824 90.7285 193.086 92.7946 198.509 96.6686C199.801 97.8308 201.479 99.2513 203.545 100.93C204.191 101.447 204.643 102.415 204.901 103.835C204.901 104.223 205.03 104.675 205.289 105.191L195.216 110.228L177.202 112.552C174.62 112.035 173.199 111.777 172.941 111.777C174.62 113.198 176.944 115.457 179.914 118.557L181.657 123.593C182.174 124.238 182.884 125.271 183.788 126.692L184.369 129.597L186.887 135.408C186.887 137.087 186.306 137.926 185.144 137.926H184.563L184.176 138.12H183.401L177.977 131.922C178.235 133.084 178.623 134.698 179.139 136.764C179.269 138.056 179.591 139.799 180.108 141.994C181.528 145.352 182.239 146.837 182.239 146.449C182.239 146.837 181.593 147.934 180.302 149.742C180.043 150 179.785 150.452 179.527 151.098C179.139 150.84 178.687 150.452 178.171 149.936L177.977 149.548L177.783 149.355C177.654 152.067 177.009 156.005 175.846 161.17C174.555 163.107 172.295 166.723 169.067 172.018C165.451 178.474 161.577 183.639 157.445 187.513C153.313 191.258 149.051 195.068 144.661 198.942L143.692 199.91C142.918 200.556 139.173 202.428 132.458 205.527C131.683 206.044 130.263 206.883 128.197 208.046C127.293 208.046 125.937 208.239 124.129 208.627L123.354 209.014C118.189 211.597 110.053 212.759 98.948 212.501C98.4315 212.501 97.7212 212.565 96.8173 212.694C95.9134 212.823 95.2677 212.888 94.8803 212.888C91.0063 212.888 88.2946 212.63 86.745 212.113L86.1639 211.919H85.7765C83.5812 211.919 80.2238 211.274 75.7041 209.982C74.1545 209.595 72.2821 208.756 70.0869 207.464C68.9247 206.173 67.2459 203.526 65.0507 199.523C64.5342 198.619 63.8885 195.778 63.1137 191C62.3389 186.093 61.9515 182.929 61.9515 181.509C61.9515 177.118 62.468 172.663 63.5011 168.144C63.8885 166.594 65.3089 162.01 67.7625 154.391C68.5373 151.033 69.2475 147.676 69.8932 144.319C70.9262 139.799 72.2175 136.764 73.7671 135.215L74.1545 134.827C75.1876 132.632 76.4789 130.179 78.0285 127.467C81.1277 122.043 86.6158 115.716 94.4929 108.484C93.9764 107.839 93.8473 106.806 94.1055 105.385C94.3638 104.094 94.8158 103.125 95.4614 102.48C98.6897 99.2513 102.757 96.604 107.664 94.5379C110.764 93.3757 115.348 91.5033 121.417 88.9207C120.384 88.4041 118.189 87.5648 114.831 86.4026C113.411 85.886 110.828 84.9175 107.083 83.4971L106.696 83.1097C106.567 82.9805 106.502 82.7223 106.502 82.3349C106.502 81.3018 107.664 80.4625 109.989 79.8168V79.4294C110.118 79.042 110.312 78.7192 110.57 78.4609C113.282 77.557 115.542 77.105 117.349 77.105C121.094 77.105 123.548 77.2342 124.71 77.4924C125.872 78.2672 127.228 79.1066 128.778 80.0105C128.907 79.8814 129.165 79.8168 129.552 79.8168C130.973 79.8168 132.522 80.4625 134.201 81.7538C136.396 83.3034 137.752 84.2073 138.269 84.4656C141.11 85.6278 144.209 87.5002 147.566 90.0828L156.283 96.6686C158.22 94.3442 159.188 92.4718 159.188 91.0513C159.188 88.9852 158.414 86.9837 156.864 85.0467C155.444 82.9805 153.765 81.9475 151.828 81.9475H143.305C141.755 81.9475 140.206 80.3333 138.656 77.105C138.527 76.7176 138.463 76.3302 138.463 75.9428C138.463 75.2972 138.656 74.5869 139.044 73.8121H141.174C141.045 77.2987 142.659 79.042 146.017 79.042C151.57 79.042 155.121 79.3003 156.67 79.8168C161.061 81.2373 163.191 84.5947 163.062 89.8891C163.062 90.2765 162.998 90.9222 162.869 91.8261C162.74 92.6009 162.675 93.182 162.675 93.5694V94.7316ZM201.415 103.254C197.412 98.4765 193.602 96.0875 189.987 96.0875C185.467 96.0875 182.561 96.6686 181.27 97.8308C184.757 98.6056 191.02 100.349 200.059 103.061L200.64 103.254H201.415ZM189.599 104.029L187.856 103.254L188.243 104.223C189.276 106.16 190.503 107.128 191.924 107.128C192.182 107.128 192.44 107.064 192.698 106.935L192.892 106.741C193.021 106.612 193.279 106.547 193.667 106.547L194.442 107.516C194.829 107.516 195.927 106.935 197.734 105.772C196.056 105.643 193.344 105.062 189.599 104.029ZM188.437 93.9568C188.308 93.8277 188.243 93.6986 188.243 93.5694C184.757 93.0529 181.657 92.7946 178.946 92.7946C175.33 92.7946 172.747 94.1505 171.198 96.8623C172.489 96.9914 173.909 97.056 175.459 97.056C176.363 97.056 178.494 96.5395 181.851 95.5064C185.209 94.3442 187.598 93.6986 189.018 93.5694L188.824 94.3442L188.437 93.9568ZM167.13 96.0875C167.647 96.2166 168.034 96.3458 168.292 96.4749C168.55 96.0875 168.744 95.7647 168.873 95.5064C168.357 95.6355 167.776 95.8292 167.13 96.0875ZM184.757 102.092C181.657 100.801 179.591 100.155 178.558 100.155C178.3 100.155 178.106 100.284 177.977 100.543H177.783C177.525 100.93 177.202 101.124 176.815 101.124C175.782 101.124 174.232 100.93 172.166 100.543C170.229 100.026 168.744 99.7678 167.711 99.7678C166.678 99.7678 166.032 99.8969 165.774 100.155C163.45 101.705 162.288 103.19 162.288 104.61C162.288 105.643 162.61 106.354 163.256 106.741C165.322 108.032 167.259 108.678 169.067 108.678H170.617C170.229 107.257 170.036 105.966 170.036 104.804C170.036 102.738 170.746 101.317 172.166 100.543C172.683 101.059 172.941 101.769 172.941 102.673C172.941 103.061 172.876 103.706 172.747 104.61C172.618 105.514 172.554 106.16 172.554 106.547C172.554 108.484 173.845 109.453 176.428 109.453C176.04 109.453 177.073 109.388 179.527 109.259C178.494 106.806 177.977 104.933 177.977 103.642C177.977 101.705 178.623 100.478 179.914 99.9615C180.689 100.736 180.947 101.382 180.689 101.898C180.431 102.157 180.302 102.48 180.302 102.867C180.302 103.642 180.495 104.61 180.883 105.772C181.27 107.839 181.98 108.872 183.013 108.872C183.272 108.872 183.659 108.743 184.176 108.484C184.821 108.226 185.273 108.097 185.531 108.097C185.79 108.097 186.242 108.226 186.887 108.484C187.404 108.613 187.985 108.613 188.631 108.484C186.306 106.547 185.015 104.417 184.757 102.092ZM159.769 103.061C159.899 102.157 160.48 100.93 161.513 99.3804C160.221 100.543 159.576 101.64 159.576 102.673C159.576 102.802 159.64 102.932 159.769 103.061ZM178.946 124.174L179.139 123.786L179.72 124.949L179.333 125.53L178.558 123.98L178.946 124.174ZM132.458 104.223C132.458 104.481 132.329 104.739 132.071 104.998C131.554 104.739 131.037 104.287 130.521 103.642C130.392 103.384 130.198 103.19 129.94 103.061C128.907 103.061 124.064 104.158 115.412 106.354C112.313 107.128 109.214 107.903 106.115 108.678C102.112 109.711 99.2708 111.002 97.5921 112.552C93.9764 115.651 89.4568 120.623 84.0332 127.467C77.06 136.248 73.8317 142.252 74.3482 145.481C74.4774 145.997 74.09 147.353 73.186 149.548C72.153 152.131 71.5719 153.616 71.4427 154.003C71.3136 154.907 70.5388 156.715 69.1184 159.427C68.3436 164.076 66.9877 170.92 65.0507 179.959L64.6633 180.928V181.509C64.6633 183.704 65.0507 186.739 65.8255 190.613C67.3751 197.973 69.5058 202.88 72.2175 205.334C73.638 206.625 75.8978 207.529 78.997 208.046C80.6757 208.304 83.1938 208.691 86.5513 209.208L88.4883 209.595C88.7465 209.724 89.0694 209.789 89.4568 209.789H103.403C110.505 209.789 118.382 208.11 127.034 204.753C129.488 203.849 132.393 202.557 135.751 200.879C136.655 200.104 138.011 199.2 139.818 198.167C142.789 196.746 145.436 195.132 147.76 193.324C152.151 189.709 158.672 181.573 167.324 168.918C169.648 165.432 171.069 162.978 171.585 161.558C172.489 159.492 173.328 156.715 174.103 153.229L174.878 153.616C172.812 156.457 171.198 157.877 170.036 157.877C169.519 157.877 168.938 157.619 168.292 157.103C167.647 156.457 167.324 155.876 167.324 155.359C167.324 154.455 167.582 153.229 168.099 151.679C168.615 150 168.873 148.774 168.873 147.999C168.873 147.611 168.55 143.221 167.905 134.827C167.776 133.149 167.195 131.922 166.162 131.147C165.128 130.889 163.708 130.372 161.9 129.597C160.738 128.694 159.318 127.66 157.639 126.498C154.798 125.465 151.892 124.949 148.922 124.949C148.277 124.949 146.275 126.563 142.918 129.791C139.689 132.89 137.623 134.44 136.719 134.44C136.332 134.44 135.751 134.053 134.976 133.278V131.341C134.976 130.437 135.234 129.468 135.751 128.435C136.267 127.273 136.526 126.563 136.526 126.305C137.042 123.593 137.3 120.3 137.3 116.426V114.102C137.3 111.261 136.332 109.13 134.395 107.709C134.266 106.547 133.62 105.385 132.458 104.223ZM160.738 138.12C158.026 138.12 156.67 137.152 156.67 135.215C156.67 134.182 157.122 133.149 158.026 132.116C158.93 130.953 159.899 130.372 160.932 130.372C161.836 130.372 162.869 130.889 164.031 131.922C165.322 132.955 165.968 133.923 165.968 134.827C165.968 137.023 164.225 138.12 160.738 138.12ZM152.022 136.764C148.922 138.185 147.373 138.96 147.373 139.089C147.114 139.089 145.759 138.378 143.305 136.958V136.377C143.047 135.731 142.918 135.215 142.918 134.827C142.918 133.794 143.499 132.826 144.661 131.922C145.823 130.889 146.921 130.372 147.954 130.372C148.47 130.372 149.439 130.695 150.859 131.341C152.409 131.986 153.248 132.503 153.377 132.89C153.377 133.278 152.925 134.569 152.022 136.764ZM164.612 154.003C163.708 154.649 162.546 154.972 161.125 154.972C158.543 154.972 157.251 153.616 157.251 150.904C157.251 148.322 159.059 147.03 162.675 147.03C163.321 147.03 164.095 147.805 164.999 149.355C166.032 150.904 166.549 152.002 166.549 152.648L164.612 154.003ZM117.349 115.457C116.187 115.457 115.219 114.812 114.444 113.52C113.669 112.229 113.475 111.067 113.863 110.034C115.671 108.743 117.479 108.097 119.286 108.097C121.482 108.097 122.45 109.905 122.192 113.52C119.609 114.812 117.995 115.457 117.349 115.457ZM126.26 125.142C123.677 125.142 122.386 123.593 122.386 120.494C122.386 119.461 122.967 118.621 124.129 117.975C125.42 117.201 126.582 116.813 127.615 116.813C130.585 116.813 132.071 118.105 132.071 120.687C132.071 123.657 130.134 125.142 126.26 125.142ZM158.607 167.756C155.508 167.756 153.959 166.465 153.959 163.882C153.959 160.912 155.121 159.427 157.445 159.427C158.349 159.427 159.447 160.073 160.738 161.364C162.029 162.526 162.675 163.559 162.675 164.463C162.675 166.658 161.319 167.756 158.607 167.756ZM142.337 157.877C138.592 157.877 136.719 156.392 136.719 153.422C136.719 150.711 138.463 149.355 141.949 149.355C142.724 149.355 143.305 149.419 143.692 149.548C144.209 150.452 144.726 151.163 145.242 151.679L145.629 152.067C146.275 152.454 146.598 153.229 146.598 154.391C146.598 156.715 145.177 157.877 142.337 157.877ZM127.034 148.58C124.581 148.58 123.354 147.095 123.354 144.125C123.354 143.35 123.741 142.382 124.516 141.219C125.42 139.928 126.26 139.282 127.034 139.282C130.392 139.282 132.071 141.09 132.071 144.706C132.071 147.289 130.392 148.58 127.034 148.58ZM111.732 134.44C110.828 134.44 109.924 133.923 109.02 132.89C108.246 131.728 107.858 130.695 107.858 129.791C107.858 128.112 109.472 126.627 112.701 125.336C115.542 127.144 116.962 129.016 116.962 130.953C116.962 131.599 116.252 132.374 114.831 133.278C113.411 134.053 112.378 134.44 111.732 134.44ZM101.079 122.624C97.7212 122.624 96.0425 121.333 96.0425 118.75C96.0425 116.684 97.3984 115.651 100.11 115.651C102.693 115.651 104.242 116.62 104.759 118.557C104.888 118.298 105.082 118.169 105.34 118.169C105.857 118.04 106.115 118.427 106.115 119.331C106.115 121.527 104.436 122.624 101.079 122.624ZM142.143 179.572C139.948 179.572 138.85 178.539 138.85 176.473C138.85 172.728 140.4 170.855 143.499 170.855C144.661 170.855 145.694 171.63 146.598 173.18C147.502 174.729 147.76 176.085 147.373 177.247C145.565 178.797 143.822 179.572 142.143 179.572ZM130.908 167.369C130.004 168.014 129.1 168.337 128.197 168.337C125.743 168.337 124.516 166.852 124.516 163.882C124.516 163.107 125.033 162.397 126.066 161.751C127.228 160.977 128.197 160.589 128.971 160.589C131.167 160.589 132.264 161.687 132.264 163.882C132.264 165.044 131.812 166.207 130.908 167.369ZM102.822 144.512C101.531 145.674 100.11 146.256 98.5606 146.256C97.5275 146.256 96.559 145.674 95.6551 144.512C94.7512 143.35 94.2992 142.252 94.2992 141.219C94.2992 138.12 96.1716 136.571 99.9165 136.571C100.82 136.571 101.853 137.087 103.016 138.12C104.178 139.024 104.759 139.928 104.759 140.832C104.759 141.994 104.113 143.221 102.822 144.512ZM112.507 158.459H111.345C108.633 158.459 107.277 157.167 107.277 154.585C107.277 153.681 107.794 152.841 108.827 152.067C109.86 151.163 110.828 150.711 111.732 150.711C113.023 150.711 114.186 151.098 115.219 151.873C116.51 153.035 117.156 154.133 117.156 155.166C117.156 156.457 115.606 157.555 112.507 158.459ZM88.1009 136.958H88.4883L88.682 137.152C88.8111 137.41 88.8757 137.991 88.8757 138.895C88.6174 138.637 88.0363 138.249 87.1324 137.733C86.8741 137.475 86.0993 136.764 84.808 135.602C84.1623 134.956 83.8395 134.117 83.8395 133.084C83.8395 132.309 84.1623 131.534 84.808 130.76C87.0032 129.597 88.682 129.016 89.8442 129.016C90.2315 129.016 90.6835 129.21 91.2 129.597L91.7811 130.179C93.0725 131.212 93.7181 132.18 93.7181 133.084C93.7181 134.117 93.0079 135.086 91.5874 135.989C90.167 136.764 89.0048 137.087 88.1009 136.958ZM139.625 196.036C136.526 196.036 134.976 194.422 134.976 191.194C134.976 190.161 135.622 189.257 136.913 188.482C138.204 187.707 139.367 187.32 140.4 187.32C142.982 187.32 144.274 188.74 144.274 191.581C144.274 192.614 143.757 193.583 142.724 194.487C141.691 195.52 140.658 196.036 139.625 196.036ZM127.422 187.707C127.293 187.965 127.034 188.095 126.647 188.095C125.226 188.095 124.516 187.126 124.516 185.189C124.516 182.736 126.001 181.509 128.971 181.509C131.554 181.509 132.845 182.606 132.845 184.802C132.845 185.447 132.393 186.093 131.489 186.739C130.585 187.384 129.746 187.707 128.971 187.707H127.422ZM114.444 178.991C109.924 178.991 107.664 177.699 107.664 175.117C107.664 173.954 108.246 172.792 109.408 171.63C110.57 170.339 111.732 169.693 112.894 169.693C113.927 169.693 115.025 170.339 116.187 171.63C117.479 172.921 118.124 174.084 118.124 175.117C118.124 175.762 117.672 176.602 116.768 177.635C115.864 178.539 115.09 178.991 114.444 178.991ZM98.1732 160.008L97.9795 160.589C97.8504 160.977 97.8504 161.622 97.9795 162.526L96.8173 162.914C95.2677 163.688 94.2992 164.076 93.9118 164.076C90.8126 164.076 89.2631 162.591 89.2631 159.621C89.2631 158.588 89.6504 157.619 90.4252 156.715C91.3292 155.682 92.2331 155.166 93.137 155.166C94.1701 155.166 95.2677 155.618 96.4299 156.522C97.5921 157.426 98.1732 158.394 98.1732 159.427V160.008ZM83.0647 146.062C83.1938 145.933 83.3875 145.804 83.6458 145.674L85.0017 146.837C84.6143 147.87 84.0977 149.355 83.4521 151.292C81.5151 152.196 80.3529 152.648 79.9655 152.648C76.8663 152.648 75.3167 151.163 75.3167 148.193C75.3167 145.61 76.6081 144.319 79.1907 144.319C80.482 144.319 81.4505 144.641 82.0962 145.287C82.3545 145.416 82.6773 145.674 83.0647 146.062ZM110.376 203.009C109.085 203.009 107.277 202.364 104.953 201.072C105.727 197.069 106.89 195.068 108.439 195.068C109.731 195.068 111.022 195.455 112.313 196.23C113.605 197.134 114.25 198.231 114.25 199.523C114.25 200.298 113.798 201.072 112.894 201.847C111.99 202.622 111.151 203.009 110.376 203.009ZM72.6049 161.558C72.8632 161.429 73.186 161.364 73.5734 161.364C75.3813 161.364 76.2852 162.655 76.2852 165.238C76.2852 167.692 74.6711 168.918 71.4427 168.918C69.6349 168.918 68.731 167.498 68.731 164.657C68.731 163.495 69.5058 162.139 71.0554 160.589C71.701 160.589 72.2175 160.912 72.6049 161.558ZM101.079 187.513L100.498 188.095L100.304 188.482C99.6582 191.194 97.7212 192.55 94.4929 192.55C91.3937 192.55 89.8442 191.194 89.8442 188.482C89.8442 187.449 90.6835 186.48 92.3622 185.576C94.041 184.673 95.4614 184.221 96.6236 184.221C98.8189 184.221 100.498 184.931 101.66 186.351C101.66 186.868 101.466 187.255 101.079 187.513ZM82.2899 179.572H81.1277C78.9324 179.572 77.8348 178.345 77.8348 175.891C77.8348 173.696 79.449 172.147 82.6773 171.243H84.0332C85.3245 174.342 85.9702 176.021 85.9702 176.279C85.9702 178.474 84.7434 179.572 82.2899 179.572ZM96.4299 207.077C95.7842 207.594 94.8803 207.852 93.7181 207.852C90.8772 207.852 89.4568 206.56 89.4568 203.978C89.4568 201.524 90.7481 200.298 93.3307 200.298C94.7512 200.298 95.9134 201.008 96.8173 202.428C97.0756 202.945 97.5921 203.59 98.3669 204.365V206.109C97.8504 206.367 97.2047 206.69 96.4299 207.077ZM72.2175 191.581C69.5058 191.581 68.1499 190.225 68.1499 187.513C68.1499 186.48 68.6664 185.512 69.6995 184.608C70.7325 183.704 71.7656 183.252 72.7986 183.252C73.5734 183.252 74.3482 183.833 75.123 184.995C75.8978 186.028 76.2852 186.932 76.2852 187.707C76.2852 188.611 75.8333 189.515 74.9293 190.419C74.0254 191.194 73.1215 191.581 72.2175 191.581ZM81.1277 202.235C78.545 202.235 77.2537 201.137 77.2537 198.942C77.2537 198.683 77.3183 198.296 77.4474 197.779L77.6411 197.392V196.811C80.482 195.649 82.2253 195.068 82.871 195.068C84.5497 195.068 85.3891 196.165 85.3891 198.361C85.3891 200.943 83.9686 202.235 81.1277 202.235ZM162.288 134.44L161.513 133.859H160.544C160.415 134.117 160.415 134.311 160.544 134.44V135.021L162.288 134.827V134.44ZM148.922 134.053L148.148 134.827C147.373 134.44 146.792 134.182 146.404 134.053V134.246C146.275 134.375 146.081 134.698 145.823 135.215L146.017 135.408H147.179C147.566 135.408 148.212 135.021 149.116 134.246L148.922 134.053ZM160.544 152.067H160.738C160.996 152.196 161.19 152.26 161.319 152.26C161.706 152.26 162.223 152.131 162.869 151.873V151.292L162.094 150.517V150.711C161.965 151.227 161.771 151.55 161.513 151.679C161.125 151.679 160.738 151.615 160.351 151.485L160.544 152.067ZM117.156 111.39V111.583C117.285 111.583 117.414 111.519 117.543 111.39H117.156ZM128.197 120.881C127.68 121.268 127.293 121.72 127.034 122.237H127.422L127.615 122.043L128.003 121.849L128.39 121.462L128.197 120.881ZM158.026 163.107C158.155 163.107 158.22 163.172 158.22 163.301H157.445C157.316 163.301 157.187 163.366 157.058 163.495L156.67 163.688V164.27C157.187 164.786 157.703 165.044 158.22 165.044C158.478 164.915 158.736 164.851 158.995 164.851L159.188 164.657C158.414 164.14 158.026 163.624 158.026 163.107ZM143.499 154.197C142.982 153.293 142.659 152.841 142.53 152.841C141.885 152.97 140.981 153.422 139.818 154.197V154.585C140.464 154.714 141.045 154.778 141.562 154.778C142.207 154.778 142.853 154.714 143.499 154.585V154.197ZM128.197 142.575C127.551 142.963 126.905 143.544 126.26 144.319C126.905 144.964 127.486 145.287 128.003 145.287C128.907 145.287 129.359 144.964 129.359 144.319C129.359 143.156 128.971 142.575 128.197 142.575ZM113.863 129.985C113.605 129.727 113.282 129.533 112.894 129.404C112.765 129.791 112.571 130.243 112.313 130.76C112.701 130.76 113.217 130.695 113.863 130.566V129.985ZM99.3354 119.525L99.7228 119.719C99.9811 119.848 100.175 119.912 100.304 119.912C101.466 119.267 102.112 118.686 102.241 118.169L102.628 118.75H102.241L101.66 118.557C101.402 118.427 101.143 118.363 100.885 118.363C100.627 118.492 100.11 118.75 99.3354 119.138V119.525ZM144.467 174.536L141.755 176.085H142.337C143.24 175.827 143.951 175.504 144.467 175.117V174.536ZM127.809 165.432C128.197 165.173 128.649 164.786 129.165 164.27V163.882L128.584 163.688L128.197 163.882C127.809 164.27 127.615 164.592 127.615 164.851V165.238L127.809 165.432ZM98.3669 140.445L97.9795 140.638L97.7858 140.832C98.1732 141.219 98.5606 141.413 98.948 141.413C99.7228 141.413 100.239 141.155 100.498 140.638L100.691 141.219C100.046 141.349 99.2708 141.09 98.3669 140.445ZM113.475 154.391L110.764 155.166C110.893 155.553 111.086 155.747 111.345 155.747C112.507 155.489 113.346 155.166 113.863 154.778L113.475 154.391ZM88.1009 132.89C88.6174 132.89 89.0694 132.826 89.4568 132.697L89.6504 133.665C89.3922 133.665 88.8757 133.407 88.1009 132.89ZM88.1009 132.89L87.5198 132.503L87.3261 132.309L86.745 132.89H88.1009ZM138.656 192.356L138.85 192.55C138.979 192.679 139.108 192.743 139.237 192.743C139.625 192.743 140.335 192.356 141.368 191.581C141.239 190.935 140.916 190.29 140.4 189.644C139.883 189.902 139.302 190.29 138.656 190.806V192.356ZM128.197 184.414L127.615 184.995H128.197C128.584 184.995 128.907 184.866 129.165 184.608C128.907 184.608 128.584 184.543 128.197 184.414ZM114.444 174.536C113.54 173.761 112.894 173.373 112.507 173.373C111.216 173.373 110.57 173.89 110.57 174.923C110.57 175.569 111.216 175.891 112.507 175.891C113.023 175.891 113.669 175.698 114.444 175.31V174.536ZM92.9433 160.977L93.137 161.17C93.5244 161.041 94.1701 160.783 95.074 160.396C95.074 158.846 94.4929 158.136 93.3307 158.265L93.5244 157.49C94.041 157.877 94.4929 158.588 94.8803 159.621V160.008H94.4929C94.6221 160.266 94.6221 160.396 94.4929 160.396C93.9764 160.525 93.5244 160.46 93.137 160.202L92.9433 160.589V160.977ZM78.8033 148.58H78.997C79.2553 148.709 79.449 148.774 79.5781 148.774C79.8364 148.774 80.0301 148.709 80.1592 148.58L80.5466 148.193V147.999L79.1907 147.611L78.8033 147.999V148.58ZM109.408 198.361C109.02 198.619 108.698 199.006 108.439 199.523C108.698 199.781 109.214 199.91 109.989 199.91V198.361H109.408ZM73.5734 164.27H72.7986L72.2175 164.851C71.9593 165.238 71.6364 165.432 71.249 165.432C70.9908 165.173 70.8617 164.98 70.8617 164.851L70.668 164.463C70.668 164.334 70.6034 164.205 70.4743 164.076L71.249 163.688C71.249 163.818 71.1845 164.076 71.0554 164.463C70.9262 164.851 70.8617 165.109 70.8617 165.238C70.8617 166.013 71.249 166.4 72.0238 166.4C73.186 166.4 73.7671 166.013 73.7671 165.238C73.7671 164.98 73.7026 164.722 73.5734 164.463V164.27ZM97.2047 186.932H96.8173C96.3008 187.707 95.6551 188.288 94.8803 188.676L93.9118 187.901C93.3953 188.159 93.0725 188.482 92.9433 188.869C93.589 189.386 94.1055 189.644 94.4929 189.644C96.559 189.644 97.5921 189.192 97.5921 188.288C97.5921 188.159 97.5275 187.965 97.3984 187.707C97.2693 187.32 97.2047 187.061 97.2047 186.932ZM80.934 175.504H80.7403V176.279C81.2568 176.537 81.7088 176.666 82.0962 176.666C82.4836 176.666 82.871 176.537 83.2584 176.279V175.117C83.1293 175.117 82.9356 175.246 82.6773 175.504L82.2899 175.117C82.2899 175.375 82.1608 175.569 81.9025 175.698L80.934 175.504ZM93.7181 203.978C93.589 204.107 93.5244 204.301 93.5244 204.559L93.3307 204.753L94.2992 204.946L94.4929 203.978C94.3638 203.849 94.2347 203.849 94.1055 203.978H93.7181ZM70.4743 187.32C70.4743 188.482 70.9908 189.063 72.0238 189.063C72.2821 188.934 72.7986 188.482 73.5734 187.707C73.3152 187.449 73.0569 187.255 72.7986 187.126C72.2821 187.901 71.7656 188.288 71.249 188.288C70.8617 188.03 70.6034 187.707 70.4743 187.32ZM82.2899 198.554H82.0962L81.9025 198.361H81.7088C81.5797 198.102 81.386 197.973 81.1277 197.973C80.8694 198.102 80.5466 198.361 80.1592 198.748L80.3529 198.942H80.5466L80.7403 199.135H82.0962L82.2899 198.554Z" fill="#DB212C"/>
</svg>
