<svg width="173" height="134" viewBox="0 0 173 134" fill="none" xmlns="http://www.w3.org/2000/svg">
<path d="M124.878 128.865H124.687V128.769H124.878V128.865ZM151.253 108.653C151.253 109.004 150.983 109.498 150.441 110.135C150.218 110.453 149.629 110.947 148.673 111.616C147.431 112.667 146.491 113.543 145.854 114.244C145.568 114.626 145.185 115.056 144.707 115.534C144.803 115.725 144.851 115.836 144.851 115.868C144.851 116.091 144.835 116.187 144.803 116.155C144.93 116.505 145.106 116.824 145.329 117.111C145.36 117.206 145.424 117.381 145.52 117.636C145.806 118.05 146.189 118.703 146.666 119.595C146.603 119.691 146.571 119.834 146.571 120.025C146.762 120.376 147.001 120.869 147.288 121.507V122.271C147.447 122.462 147.527 122.653 147.527 122.844C147.527 123.513 147.351 124.246 147.001 125.042C146.81 125.265 146.539 125.6 146.189 126.046C145.679 127.001 144.93 127.479 143.943 127.479C143.338 127.479 142.78 127.304 142.271 126.954C141.952 126.635 141.427 126.141 140.694 125.472C140.407 125.281 140.057 125.026 139.643 124.708C139.483 124.549 139.229 124.278 138.878 123.896C138.273 123.577 137.62 123.035 136.919 122.271C136.664 122.048 136.441 121.937 136.25 121.937C135.772 121.937 135.374 122.032 135.056 122.223C134.196 122.765 133.447 123.434 132.81 124.23C132.906 124.485 132.507 124.979 131.615 125.711C131.488 125.775 130.58 126.348 128.892 127.431C128.701 127.782 128.271 128.132 127.602 128.483C127.06 128.737 126.726 128.865 126.598 128.865C126.567 128.865 126.535 128.849 126.503 128.817H126.407C126.344 128.817 126.153 128.881 125.834 129.008C125.515 129.136 125.308 129.199 125.213 129.199H124.878C124.464 129.199 124.066 129.056 123.684 128.769C123.493 128.674 123.349 128.451 123.254 128.1C122.967 127.049 122.824 126.332 122.824 125.95C122.824 125.663 122.903 125.074 123.063 124.182C123.254 123.29 123.397 122.733 123.493 122.51C123.779 121.873 124.05 121.045 124.305 120.025C124.337 119.611 124.401 118.926 124.496 117.971C124.273 117.875 123.859 117.78 123.254 117.684C120.769 117.238 119.67 117.015 119.957 117.015C119.893 117.015 119.845 117.031 119.814 117.063C119.814 117.095 119.798 117.111 119.766 117.111C119.702 117.111 119.288 116.935 118.524 116.585C117.759 116.203 117.329 116.012 117.233 116.012H117.186C117.154 116.044 117.122 116.059 117.09 116.059C117.09 116.028 116.915 115.916 116.564 115.725C116.246 115.534 115.704 115.247 114.94 114.865C114.43 114.578 114.08 114.355 113.889 114.196C113.22 113.559 112.885 113.113 112.885 112.858C112.885 112.794 112.917 112.715 112.981 112.619C113.076 112.492 113.124 112.396 113.124 112.333C113.156 112.237 113.22 112.046 113.315 111.759L113.841 110.995C114 110.804 114.351 110.374 114.892 109.705L115.657 109.179C115.72 108.924 116.58 108.367 118.237 107.507C118.587 107.22 119.113 106.854 119.814 106.408L121.486 105.595C122.059 105.309 122.521 104.974 122.872 104.592C124.018 102.872 125.165 101.263 126.312 99.7662C126.503 99.5432 126.885 99.0972 127.459 98.4283C127.586 98.2372 127.825 97.9186 128.175 97.4727C128.398 97.409 128.701 97.2656 129.083 97.0426C129.242 96.9152 129.513 96.74 129.895 96.5171C130.246 96.4215 130.628 96.3737 131.042 96.3737C131.807 96.3737 132.571 96.963 133.336 98.1416C133.59 98.5239 134.1 99.4795 134.865 101.008C135.279 101.805 135.677 102.442 136.059 102.92C136.123 103.079 136.234 103.35 136.394 103.732C137.222 104.879 137.843 105.452 138.257 105.452C138.416 105.452 138.799 105.42 139.404 105.357L140.455 105.213H140.742C140.869 105.245 140.949 105.277 140.981 105.309C141.108 105.309 141.411 105.229 141.888 105.07C142.207 105.006 142.733 104.974 143.465 104.974C144.612 104.974 145.759 105.134 146.905 105.452L147.765 105.691C147.797 105.691 147.829 105.675 147.861 105.643H147.909C148.482 105.643 149.183 106.01 150.011 106.742C150.839 107.475 151.253 108.112 151.253 108.653ZM140.646 105.595V105.5H140.407V105.595H140.646ZM140.742 106.742V106.647H140.551V106.742H140.742ZM143.417 115.008L143.322 114.961L143.035 115.438L143.131 115.486L143.417 115.008ZM138.448 111.138V111.042H138.305V111.138H138.448ZM147.097 122.032V121.841H147.001V122.032H147.097ZM148.148 109.036C148.148 108.781 148.02 108.494 147.765 108.176C147.511 108.016 147.272 107.841 147.049 107.65C146.412 107.045 145.918 106.742 145.568 106.742C145.058 106.742 144.628 106.774 144.277 106.838C143.577 107.061 143.178 107.172 143.083 107.172C143.019 107.172 142.94 107.156 142.844 107.124H142.653C142.175 107.124 141.379 107.284 140.264 107.602C139.945 107.698 139.85 107.746 139.977 107.746H139.499C139.276 107.777 139.133 107.793 139.069 107.793C139.006 107.793 138.607 107.698 137.875 107.507L135.677 106.551C135.295 105.978 134.737 104.847 134.005 103.159C133.941 103.031 133.829 102.776 133.67 102.394C133.638 102.203 133.575 101.98 133.479 101.725L132.332 99.6228C131.982 99.1132 131.329 98.8583 130.373 98.8583C128.972 98.8583 127.443 100.594 125.786 104.066C125.691 104.226 125.484 104.56 125.165 105.07C125.101 105.197 124.687 105.834 123.923 106.981C123.955 107.013 123.955 107.061 123.923 107.124C123.732 107.411 123.413 107.777 122.967 108.223C122.776 108.383 122.457 108.542 122.012 108.701H121.39C120.976 108.829 120.26 109.068 119.24 109.418C119.017 109.482 118.492 109.8 117.663 110.374C116.644 111.074 116.134 111.584 116.134 111.903C116.134 112.444 116.326 113.001 116.708 113.575C116.835 113.734 117.138 113.877 117.616 114.005C117.966 114.069 118.316 114.148 118.667 114.244C119.336 114.308 120.116 114.419 121.008 114.578C122.378 114.833 123.429 115.12 124.162 115.438C125.563 116.044 126.264 117.127 126.264 118.687C126.264 119.229 126.216 119.739 126.121 120.216C125.802 120.535 125.643 121.14 125.643 122.032C125.643 122.414 125.691 122.94 125.786 123.609C125.786 123.736 125.834 124.007 125.93 124.421C126.153 124.803 126.455 124.995 126.837 124.995C127.029 124.995 127.984 124.453 129.704 123.37C129.736 123.338 130.628 122.414 132.38 120.599C132.922 120.025 133.479 119.691 134.052 119.595C134.052 119.532 134.084 119.484 134.148 119.452L134.482 119.595C134.578 119.563 134.801 119.547 135.151 119.547H135.868C136.091 119.547 136.425 119.627 136.871 119.786C137.795 120.423 139.069 121.347 140.694 122.558C140.853 122.59 141.044 122.669 141.267 122.797C141.809 123.243 142.621 123.848 143.704 124.612C143.831 124.708 144.054 124.756 144.373 124.756C145.074 124.756 145.424 124.501 145.424 123.991C145.424 124.055 145.376 123.896 145.281 123.513L145.376 123.418C145.44 123.481 145.472 123.529 145.472 123.561L145.663 122.223C145.663 121.331 145.138 120.041 144.086 118.353L143.561 117.827C142.892 116.84 142.557 116.171 142.557 115.821L142.987 115.104C143.433 114.339 144.102 113.511 144.994 112.619C145.727 111.855 146.475 111.09 147.24 110.326C147.845 109.689 148.148 109.259 148.148 109.036ZM137.923 121.889V121.745H137.875V121.889H137.923ZM125.882 120.216V120.025H125.786V120.216H125.882ZM115.083 111.664H114.988L114.94 111.807H114.988L115.083 111.664ZM117.472 115.104C117.472 115.072 117.425 115.024 117.329 114.961V115.152C117.393 115.152 117.44 115.136 117.472 115.104ZM128.892 126.476L128.844 126.428L128.701 126.476V126.571L128.892 126.476ZM123.923 122.271H123.827L123.684 122.749L123.732 122.797L123.923 122.271ZM146.093 108.94C146.093 109.036 145.998 109.275 145.806 109.657C145.647 110.007 145.536 110.198 145.472 110.23C145.249 110.421 144.93 110.708 144.516 111.09C144.325 111.377 144.007 111.759 143.561 112.237L142.414 113.24C142.159 113.559 141.793 114.053 141.315 114.722C141.188 115.008 141.124 115.422 141.124 115.964C141.124 116.569 141.363 117.302 141.841 118.162C142.159 118.735 142.605 119.468 143.178 120.36C143.784 121.22 144.086 121.793 144.086 122.08C144.054 122.175 143.991 122.574 143.895 123.274C143.831 123.402 143.752 123.466 143.656 123.466H143.226C143.003 123.497 142.876 123.513 142.844 123.513C142.143 123.195 141.586 122.876 141.172 122.558C141.012 122.144 139.993 120.997 138.114 119.117C136.808 118.703 135.979 118.496 135.629 118.496H135.103C135.008 118.56 134.801 118.672 134.482 118.831C134.036 118.958 133.383 119.197 132.523 119.547C132.491 119.579 131.488 120.2 129.513 121.411C128.462 122.048 127.873 122.367 127.745 122.367C127.331 122.367 127.124 122.144 127.124 121.698L127.076 117.493C127.076 117.079 126.933 116.569 126.646 115.964C126.519 115.709 126.184 115.375 125.643 114.961C124.815 114.355 124.241 114.053 123.923 114.053H123.827C123.827 114.085 123.811 114.1 123.779 114.1C123.748 114.1 123.556 114.037 123.206 113.909C122.856 113.782 122.585 113.718 122.394 113.718C122.362 113.718 122.33 113.734 122.298 113.766H122.203C122.489 113.766 121.996 113.623 120.721 113.336C120.371 113.272 119.941 113.161 119.431 113.001C119.208 112.938 118.954 112.747 118.667 112.428C118.635 112.301 118.555 112.126 118.428 111.903C118.81 111.552 119.049 111.377 119.145 111.377C119.208 111.377 119.256 111.409 119.288 111.473C119.32 111.504 119.352 111.52 119.384 111.52C119.065 111.52 119.32 111.409 120.148 111.186C121.709 110.772 123.031 110.023 124.114 108.94C124.369 108.749 125.117 107.65 126.36 105.643C126.774 104.974 127.586 103.668 128.796 101.725C128.988 101.438 129.354 101.136 129.895 100.817H130.23C131.09 100.817 131.743 101.407 132.189 102.585C132.253 102.745 132.476 103.27 132.858 104.162C132.953 104.576 133.129 105.149 133.383 105.882C133.543 106.073 133.718 106.328 133.909 106.647C134.673 107.953 136.011 108.574 137.923 108.51L144.325 107.698C144.676 107.666 145.058 107.777 145.472 108.032C145.886 108.287 146.093 108.59 146.093 108.94ZM131.807 102.49V102.346H131.711V102.49H131.807ZM132.428 106.217L132.332 105.882L132.237 105.93L132.38 106.217H132.428ZM142.796 109.561C142.414 109.402 142.255 109.322 142.318 109.322L137.923 110.182C137.668 110.151 137.285 110.135 136.776 110.135C135.693 110.135 134.371 109.354 132.81 107.793L131.759 105.548C131.568 105.261 131.345 104.895 131.09 104.449C131.09 104.035 130.994 103.541 130.803 102.967C130.612 102.745 130.389 102.633 130.134 102.633C129.688 102.633 129.115 103.286 128.414 104.592C128.127 105.134 127.713 105.946 127.172 107.029C127.076 107.698 126.328 108.653 124.926 109.896C124.767 110.119 124.464 110.389 124.018 110.708C123.827 110.772 123.556 110.915 123.206 111.138H123.015L122.059 111.616C121.709 111.807 121.454 112.046 121.295 112.333C121.518 112.333 121.661 112.348 121.725 112.38C122.012 112.476 122.41 112.587 122.919 112.715C123.238 112.715 123.7 112.763 124.305 112.858C124.592 112.986 124.974 113.145 125.452 113.336C126.248 113.463 126.758 113.591 126.981 113.718C127.363 113.909 127.697 114.292 127.984 114.865C128.303 115.406 128.462 115.821 128.462 116.107C128.462 116.521 128.43 116.967 128.366 117.445C128.239 118.433 128.175 118.831 128.175 118.64C128.175 119.436 128.366 119.834 128.749 119.834C128.972 119.834 129.163 119.786 129.322 119.691C129.832 119.277 130.74 118.751 132.046 118.114C132.237 117.955 132.507 117.78 132.858 117.588C132.985 117.557 133.304 117.493 133.813 117.397L135.295 117.063C135.549 117.063 136.011 117.174 136.68 117.397C137.381 117.62 137.827 117.796 138.018 117.923C138.432 118.241 139.197 118.958 140.312 120.073H140.551C140.646 120.296 140.789 120.551 140.981 120.838C141.076 120.933 141.251 120.981 141.506 120.981C141.602 120.981 141.681 120.949 141.745 120.885V120.742C141.745 120.455 141.458 119.786 140.885 118.735L140.121 117.302C140.025 117.174 139.945 117.031 139.882 116.872C139.786 116.553 139.738 116.171 139.738 115.725C139.738 114.833 139.929 114.148 140.312 113.67L140.646 113.24C140.805 113.017 141.427 112.094 142.51 110.469C142.605 110.31 142.701 110.007 142.796 109.561ZM139.499 111.425C139.499 111.966 139.022 112.683 138.066 113.575C137.875 113.766 137.779 113.989 137.779 114.244C137.779 114.308 137.843 114.546 137.97 114.961C138.034 114.961 138.098 114.992 138.161 115.056C138.703 116.298 138.974 116.888 138.974 116.824V117.588C138.528 117.684 138.257 117.732 138.161 117.732C138.13 117.732 138.002 117.684 137.779 117.588C137.556 117.493 137.413 117.445 137.349 117.445C136.967 117.031 136.569 116.681 136.155 116.394C135.231 116.075 134.355 115.916 133.527 115.916C133.24 115.916 133.065 115.932 133.001 115.964C130.771 117.302 129.72 117.971 129.848 117.971C129.402 117.971 129.179 117.652 129.179 117.015C129.179 116.792 129.226 116.442 129.322 115.964C129.449 115.486 129.513 115.136 129.513 114.913V114.339C129.481 114.244 129.195 113.941 128.653 113.432C128.526 113.272 128.303 113.097 127.984 112.906C127.538 112.81 127.029 112.763 126.455 112.763C126.391 112.763 126.28 112.779 126.121 112.81H125.786C125.308 112.81 124.878 112.683 124.496 112.428C124.018 112.141 123.827 111.775 123.923 111.329C124.369 111.074 124.639 110.947 124.735 110.947C124.799 110.947 124.831 110.963 124.831 110.995C124.831 111.027 124.847 111.042 124.878 111.042C125.038 111.042 125.563 110.676 126.455 109.944C127.029 109.243 127.857 108.271 128.94 107.029C129.003 106.933 129.115 106.886 129.274 106.886C129.656 106.886 130.23 107.363 130.994 108.319C131.249 108.637 131.711 109.083 132.38 109.657C132.635 109.88 133.16 110.135 133.957 110.421C134.084 110.517 134.307 110.628 134.626 110.756C135.39 110.947 135.995 111.042 136.441 111.042C136.505 111.042 136.601 111.027 136.728 110.995C136.855 110.963 136.951 110.947 137.015 110.947C138.639 110.851 139.308 110.804 139.022 110.804C139.213 110.804 139.372 111.011 139.499 111.425ZM136.632 112.667C136.282 112.476 136.059 112.38 135.964 112.38C135.9 112.38 135.804 112.396 135.677 112.428H135.342C135.215 112.428 134.817 112.269 134.148 111.95C133.829 111.887 133.367 111.743 132.762 111.52C132.476 111.361 131.902 110.899 131.042 110.135C130.182 109.37 129.625 108.988 129.37 108.988C128.51 110.453 127.618 111.377 126.694 111.759C127.044 111.887 127.57 112.046 128.271 112.237C128.94 112.237 129.577 112.492 130.182 113.001C130.628 113.384 130.835 114.308 130.803 115.773C130.994 115.773 131.265 115.741 131.615 115.677C131.775 115.486 131.982 115.263 132.237 115.008C132.81 114.722 133.272 114.578 133.622 114.578C133.909 114.578 134.243 114.61 134.626 114.674C134.785 114.738 135.135 114.897 135.677 115.152C135.964 115.343 136.123 115.454 136.155 115.486H136.441C136.505 115.295 136.537 115.168 136.537 115.104C136.537 114.945 136.505 114.706 136.441 114.387C136.378 114.069 136.346 113.83 136.346 113.67C136.346 113.352 136.441 113.017 136.632 112.667Z" fill="#4D0803"/>
<path d="M145.235 99.7929L145.156 99.7735L145.165 99.7339L145.245 99.7533L145.235 99.7929ZM158.219 94.0985C158.183 94.2437 158.021 94.4207 157.732 94.6297C157.607 94.739 157.312 94.8837 156.848 95.0638C156.227 95.3731 155.748 95.6406 155.413 95.8662C155.255 95.9955 155.053 96.1348 154.807 96.2843C154.827 96.3732 154.835 96.4242 154.832 96.4374C154.81 96.5298 154.793 96.5678 154.783 96.5514C154.8 96.7095 154.841 96.8593 154.904 97.0008C154.907 97.0436 154.916 97.1227 154.93 97.238C155.006 97.4387 155.098 97.7482 155.206 98.1663C155.17 98.1995 155.142 98.2556 155.122 98.3348C155.166 98.4995 155.215 98.7283 155.269 99.0215L155.191 99.3383C155.238 99.4337 155.251 99.5209 155.232 99.6001C155.164 99.8773 155.017 100.163 154.791 100.458C154.689 100.53 154.543 100.642 154.352 100.791C154.044 101.135 153.685 101.257 153.276 101.156C153.025 101.095 152.812 100.966 152.636 100.769C152.537 100.604 152.369 100.346 152.133 99.9946C152.034 99.8863 151.915 99.7451 151.776 99.571C151.726 99.4888 151.648 99.3507 151.541 99.1567C151.323 98.9632 151.107 98.6724 150.895 98.2844C150.812 98.1661 150.731 98.0972 150.651 98.0778C150.453 98.0292 150.279 98.0284 150.127 98.0752C149.716 98.2122 149.338 98.4133 148.993 98.6785C149.006 98.7938 148.791 98.9579 148.347 99.1709C148.288 99.1843 147.853 99.3296 147.044 99.6068C146.929 99.7326 146.715 99.8341 146.402 99.9113C146.152 99.9619 146.001 99.9807 145.948 99.9677C145.935 99.9645 145.923 99.9546 145.913 99.9382L145.873 99.9285C145.847 99.922 145.761 99.929 145.616 99.9494C145.471 99.9698 145.379 99.9752 145.34 99.9655L145.201 99.9315C145.029 99.8894 144.879 99.7895 144.75 99.6319C144.68 99.5728 144.643 99.4659 144.639 99.311C144.628 98.8462 144.641 98.5347 144.68 98.3763C144.709 98.2575 144.802 98.0214 144.959 97.668C145.128 97.3178 145.244 97.1014 145.307 97.0187C145.49 96.7838 145.687 96.4682 145.896 96.0717C145.951 95.9033 146.047 95.626 146.184 95.2397C146.101 95.1774 145.939 95.0958 145.698 94.9946C144.714 94.5573 144.281 94.3532 144.4 94.3823C144.374 94.3759 144.352 94.3776 144.336 94.3876C144.333 94.4008 144.324 94.4058 144.311 94.4025C144.285 94.396 144.131 94.2814 143.85 94.0585C143.572 93.8223 143.413 93.6994 143.373 93.6897L143.354 93.6849C143.337 93.6948 143.322 93.6982 143.309 93.695C143.312 93.6818 143.251 93.6178 143.125 93.5029C143.013 93.3914 142.818 93.2175 142.54 92.9814C142.358 92.8108 142.235 92.6828 142.172 92.5974C141.96 92.2654 141.866 92.0466 141.892 91.941C141.899 91.9146 141.92 91.8848 141.956 91.8517C142.009 91.8086 142.038 91.7739 142.045 91.7475C142.068 91.7111 142.113 91.6384 142.182 91.5293L142.478 91.2659C142.563 91.2029 142.752 91.0604 143.044 90.8382L143.415 90.6981C143.467 90.599 143.88 90.4554 144.654 90.2674C144.828 90.1842 145.083 90.0858 145.419 89.9723L146.194 89.8056C146.461 89.7451 146.686 89.6535 146.871 89.5307C147.521 88.9345 148.159 88.3844 148.787 87.8806C148.888 87.8076 149.092 87.6617 149.398 87.4428C149.47 87.3765 149.601 87.2688 149.792 87.1196C149.891 87.1159 150.031 87.0873 150.212 87.0337C150.291 86.9971 150.421 86.952 150.602 86.8985C150.757 86.8945 150.92 86.9135 151.092 86.9556C151.408 87.0333 151.665 87.3552 151.862 87.9213C151.929 88.1056 152.043 88.5534 152.204 89.2647C152.295 89.6368 152.395 89.9413 152.505 90.1781C152.515 90.2506 152.534 90.3741 152.561 90.5487C152.788 91.1081 152.987 91.4088 153.159 91.4509C153.225 91.4671 153.386 91.4927 153.643 91.5279L154.094 91.5753L154.212 91.6044C154.262 91.6306 154.292 91.6519 154.302 91.6683C154.355 91.6813 154.488 91.679 154.702 91.6616C154.841 91.6676 155.062 91.7078 155.365 91.7823C155.84 91.8988 156.299 92.0814 156.742 92.3299L157.074 92.5164C157.088 92.5196 157.102 92.5162 157.119 92.5063L157.139 92.5111C157.376 92.5694 157.629 92.7924 157.898 93.1802C158.167 93.568 158.274 93.8741 158.219 94.0985ZM154.134 91.7531L154.144 91.7135L154.045 91.6892L154.035 91.7288L154.134 91.7531ZM154.057 92.238L154.067 92.1984L153.988 92.179L153.978 92.2186L154.057 92.238ZM154.326 95.9353L154.291 95.9058L154.124 96.0747L154.158 96.1042L154.326 95.9353ZM152.66 93.8265L152.67 93.7869L152.61 93.7723L152.6 93.8119L152.66 93.8265ZM155.136 99.2198L155.156 99.1406L155.116 99.1309L155.097 99.2101L155.136 99.2198ZM156.893 93.9412C156.919 93.8356 156.895 93.7038 156.822 93.5459C156.732 93.454 156.651 93.3572 156.578 93.2553C156.376 92.9397 156.202 92.7642 156.057 92.7285C155.846 92.6767 155.664 92.6462 155.512 92.637C155.199 92.6582 155.023 92.6639 154.984 92.6542C154.957 92.6477 154.926 92.633 154.889 92.6101L154.81 92.5907C154.612 92.5421 154.266 92.5272 153.772 92.5459C153.63 92.5531 153.585 92.5632 153.638 92.5761L153.44 92.5276C153.345 92.5181 153.284 92.5101 153.257 92.5036C153.231 92.4972 153.076 92.4171 152.791 92.2634L151.978 91.644C151.878 91.3676 151.762 90.8423 151.63 90.0683C151.616 90.009 151.596 89.8921 151.569 89.7175C151.575 89.6351 151.571 89.5362 151.557 89.4209L151.296 88.4331C151.203 88.1863 150.958 88.0144 150.562 87.9172C149.981 87.7748 149.171 88.3387 148.132 89.6091C148.076 89.6654 147.956 89.783 147.772 89.9618C147.733 90.0081 147.497 90.23 147.063 90.6275C147.073 90.644 147.068 90.6638 147.049 90.6869C146.94 90.7863 146.771 90.9057 146.541 91.0452C146.446 91.0918 146.297 91.1254 146.096 91.146L145.839 91.0829C145.655 91.0936 145.333 91.1198 144.875 91.1614C144.776 91.1651 144.526 91.2437 144.125 91.3971C143.631 91.5839 143.368 91.7433 143.336 91.8753C143.281 92.0997 143.303 92.3501 143.403 92.6265C143.44 92.7055 143.551 92.7956 143.736 92.897C143.875 92.959 144.012 93.0276 144.147 93.1028C144.418 93.1972 144.73 93.3228 145.083 93.4794C145.625 93.7242 146.031 93.9499 146.303 94.1563C146.822 94.5496 147.002 95.0696 146.844 95.7164C146.789 95.9408 146.717 96.1471 146.629 96.3354C146.464 96.435 146.337 96.6696 146.246 97.0392C146.207 97.1976 146.174 97.4203 146.145 97.7072C146.132 97.76 146.125 97.877 146.122 98.0584C146.176 98.2394 146.282 98.3494 146.44 98.3882C146.519 98.4077 146.97 98.2804 147.793 98.0064C147.81 97.9965 148.273 97.7043 149.184 97.13C149.466 96.9475 149.731 96.8655 149.979 96.8842C149.985 96.8578 150.003 96.8413 150.033 96.8345L150.157 96.9279C150.2 96.9244 150.294 96.9405 150.439 96.9761L150.736 97.049C150.828 97.0716 150.959 97.1386 151.127 97.25C151.445 97.6078 151.88 98.1201 152.43 98.7869C152.492 98.8162 152.564 98.8687 152.643 98.9441C152.822 99.184 153.097 99.5173 153.468 99.9442C153.511 99.9968 153.599 100.039 153.731 100.072C154.021 100.143 154.192 100.073 154.244 99.8616C154.238 99.888 154.234 99.8172 154.233 99.6491L154.283 99.6192C154.303 99.6521 154.311 99.6751 154.308 99.6883L154.523 99.1533C154.614 98.7837 154.527 98.1957 154.263 97.3893L154.098 97.1181C153.922 96.6409 153.851 96.3297 153.887 96.1845L154.138 95.9312C154.4 95.6598 154.762 95.3846 155.222 95.1056C155.603 94.8633 155.991 94.6226 156.386 94.3835C156.701 94.181 156.87 94.0336 156.893 93.9412ZM151.349 98.228L151.364 98.1686L151.344 98.1637L151.33 98.2231L151.349 98.228ZM146.53 96.3111L146.549 96.2319L146.51 96.2222L146.49 96.3014L146.53 96.3111ZM142.924 91.6694L142.885 91.6597L142.85 91.7142L142.87 91.7191L142.924 91.6694ZM143.565 93.3378C143.568 93.3246 143.553 93.3 143.52 93.2638L143.5 93.343C143.527 93.3495 143.548 93.3478 143.565 93.3378ZM147.141 99.2108L147.126 99.1862L147.062 99.1914L147.052 99.231L147.141 99.2108ZM145.509 96.9634L145.47 96.9537L145.362 97.1371L145.377 97.1618L145.509 96.9634ZM156.051 93.6928C156.041 93.7324 155.978 93.8216 155.86 93.9606C155.758 94.0896 155.692 94.1575 155.663 94.1642C155.551 94.2207 155.39 94.3072 155.179 94.4235C155.071 94.5228 154.9 94.6489 154.667 94.8015L154.09 95.1008C153.952 95.2069 153.75 95.3742 153.484 95.6029C153.402 95.7087 153.333 95.8738 153.278 96.0982C153.217 96.349 153.241 96.6769 153.352 97.0818C153.425 97.3518 153.536 97.7007 153.683 98.1286C153.846 98.5465 153.913 98.8149 153.884 98.9337C153.861 98.97 153.794 99.1286 153.683 99.4092C153.644 99.4556 153.605 99.4739 153.565 99.4642L153.387 99.4204C153.291 99.411 153.237 99.4046 153.224 99.4014C152.966 99.1982 152.767 99.0095 152.628 98.8354C152.604 98.6476 152.298 98.0688 151.71 97.099C151.211 96.7947 150.889 96.6247 150.744 96.5891L150.526 96.5357C150.48 96.5524 150.383 96.5775 150.235 96.6111C150.037 96.6186 149.742 96.6512 149.35 96.709C149.333 96.719 148.855 96.8744 147.913 97.1752C147.413 97.3324 147.136 97.4045 147.083 97.3915C146.912 97.3494 146.849 97.236 146.894 97.0512L147.302 95.304C147.344 95.1324 147.336 94.9066 147.279 94.6267C147.252 94.5081 147.147 94.3355 146.965 94.1089C146.683 93.7739 146.477 93.5902 146.345 93.5579L146.305 93.5481C146.302 93.5613 146.293 93.5663 146.28 93.5631C146.267 93.5599 146.194 93.514 146.062 93.4256C145.93 93.3372 145.824 93.2833 145.745 93.2639C145.732 93.2606 145.717 93.264 145.7 93.2739L145.661 93.2642C145.78 93.2934 145.59 93.1838 145.091 92.9355C144.952 92.8735 144.785 92.7836 144.59 92.6658C144.504 92.6167 144.418 92.5116 144.332 92.3505C144.331 92.2944 144.316 92.2137 144.286 92.1084C144.48 92.002 144.597 91.9537 144.637 91.9634C144.663 91.9699 144.679 91.988 144.686 92.0176C144.696 92.034 144.708 92.0439 144.721 92.0471C144.589 92.0147 144.706 91.9944 145.072 91.9862C145.761 91.9733 146.384 91.7974 146.943 91.4587C147.068 91.4054 147.49 91.0261 148.209 90.3208C148.449 90.0857 148.918 89.6271 149.617 88.9449C149.725 88.8456 149.908 88.7574 150.165 88.6804L150.303 88.7144C150.66 88.8019 150.87 89.1124 150.935 89.6461C150.946 89.7186 150.985 89.9591 151.052 90.3675C151.05 90.5488 151.064 90.8042 151.095 91.1337C151.142 91.2291 151.189 91.3525 151.235 91.5039C151.419 92.1228 151.911 92.5162 152.709 92.6841L155.445 92.9983C155.593 93.0207 155.74 93.1057 155.886 93.2534C156.032 93.4011 156.087 93.5476 156.051 93.6928ZM150.787 89.5677L150.801 89.5083L150.762 89.4986L150.747 89.558L150.787 89.5677ZM150.665 91.1752L150.66 91.0269L150.615 91.037L150.646 91.1703L150.665 91.1752ZM154.622 93.615C154.48 93.5102 154.422 93.461 154.448 93.4675L152.539 93.3771C152.437 93.338 152.28 93.2925 152.069 93.2407C151.62 93.1306 151.152 92.6729 150.663 91.8674L150.456 90.83C150.406 90.6918 150.351 90.5173 150.291 90.3066C150.333 90.135 150.343 89.9207 150.322 89.6637C150.266 89.5519 150.185 89.483 150.079 89.4571C149.894 89.4118 149.59 89.6241 149.167 90.0941C148.993 90.2893 148.739 90.5838 148.405 90.9776C148.297 91.245 147.89 91.565 147.183 91.9373C147.094 92.0135 146.941 92.0949 146.724 92.1816C146.638 92.1886 146.512 92.2205 146.344 92.2772L146.265 92.2578L145.82 92.3587C145.655 92.4023 145.526 92.4754 145.43 92.578C145.523 92.6006 145.581 92.6218 145.604 92.6415C145.713 92.7102 145.866 92.7969 146.065 92.9015C146.197 92.9339 146.383 93.0006 146.624 93.1017C146.73 93.1837 146.872 93.2885 147.051 93.4163C147.368 93.55 147.566 93.6546 147.646 93.7301C147.785 93.8481 147.884 94.0405 147.945 94.3073C148.022 94.564 148.046 94.7518 148.017 94.8706C147.975 95.0422 147.916 95.2238 147.841 95.4153C147.688 95.8115 147.621 95.9701 147.64 95.8909C147.56 96.2209 147.598 96.4053 147.757 96.4441C147.849 96.4668 147.933 96.4664 148.009 96.443C148.262 96.3232 148.692 96.1977 149.298 96.0664C149.393 96.0199 149.523 95.9748 149.688 95.9312C149.744 95.931 149.882 95.9369 150.103 95.9491L150.751 95.9611C150.856 95.987 151.037 96.0802 151.291 96.2405C151.559 96.4042 151.726 96.5221 151.792 96.5943C151.931 96.7684 152.175 97.1431 152.524 97.7184L152.623 97.7427C152.64 97.8448 152.673 97.965 152.723 98.1032C152.753 98.1525 152.821 98.1901 152.927 98.216C152.966 98.2257 153.002 98.2206 153.035 98.2007L153.05 98.1413C153.079 98.0225 153.028 97.7162 152.897 97.2223L152.726 96.5506C152.7 96.4881 152.681 96.4206 152.671 96.3481C152.664 96.2064 152.683 96.0432 152.728 95.8584C152.819 95.4888 152.968 95.2244 153.175 95.0653L153.357 94.9211C153.446 94.8449 153.797 94.5252 154.411 93.9621C154.467 93.9058 154.537 93.7901 154.622 93.615ZM153.066 94.0521C153.011 94.2765 152.74 94.525 152.254 94.7974C152.155 94.8572 152.093 94.9399 152.067 95.0455C152.06 95.0719 152.063 95.1773 152.073 95.3619C152.1 95.3684 152.123 95.388 152.143 95.4209C152.241 95.9907 152.293 96.2625 152.3 96.2361L152.222 96.5529C152.027 96.5471 151.91 96.5394 151.871 96.5297C151.858 96.5265 151.81 96.4937 151.727 96.4314C151.644 96.3692 151.59 96.3348 151.563 96.3283C151.447 96.1179 151.318 95.9322 151.175 95.7713C150.825 95.5454 150.478 95.3904 150.135 95.3062C150.016 95.2771 149.942 95.2659 149.912 95.2726C148.852 95.6003 148.349 95.7707 148.401 95.7836C148.217 95.7383 148.157 95.5837 148.221 95.3197C148.244 95.2273 148.299 95.0869 148.388 94.8986C148.489 94.7136 148.551 94.5749 148.574 94.4825L148.632 94.2449C148.628 94.202 148.54 94.0475 148.368 93.7813C148.331 93.7023 148.257 93.6071 148.144 93.4955C147.969 93.4106 147.763 93.339 147.525 93.2807C147.499 93.2742 147.451 93.2695 147.382 93.2665L147.243 93.2325C147.045 93.1839 146.88 93.0874 146.747 92.943C146.578 92.7756 146.536 92.6044 146.621 92.4293C146.832 92.369 146.957 92.3437 146.997 92.3534C147.023 92.3599 147.035 92.3698 147.032 92.383C147.028 92.3962 147.033 92.4044 147.046 92.4076C147.112 92.4238 147.367 92.3254 147.812 92.1125C148.12 91.8804 148.562 91.562 149.137 91.1573C149.173 91.1241 149.225 91.1157 149.291 91.1319C149.449 91.1707 149.638 91.427 149.858 91.9007C149.931 92.0586 150.077 92.2903 150.296 92.5959C150.379 92.7142 150.571 92.8732 150.872 93.073C150.915 93.1255 150.996 93.1944 151.115 93.2796C151.412 93.4365 151.653 93.5376 151.838 93.5829C151.864 93.5894 151.906 93.5925 151.962 93.5922C152.018 93.592 152.059 93.5951 152.085 93.6016C152.768 93.7271 153.05 93.7753 152.931 93.7462C153.011 93.7656 153.056 93.8676 153.066 94.0521ZM151.752 94.2755C151.626 94.1607 151.544 94.0984 151.504 94.0887C151.478 94.0823 151.436 94.0791 151.38 94.0794L151.242 94.0454C151.189 94.0324 151.04 93.926 150.795 93.726C150.67 93.6672 150.493 93.5609 150.265 93.4069C150.162 93.3118 149.972 93.0621 149.693 92.6579C149.414 92.2537 149.222 92.0387 149.116 92.0128C148.611 92.5325 148.148 92.8247 147.726 92.8892C147.858 92.9776 148.06 93.097 148.331 93.2474C148.608 93.3154 148.846 93.4858 149.045 93.7585C149.191 93.9622 149.183 94.366 149.021 94.97C149.1 94.9894 149.215 95.0037 149.367 95.013C149.453 94.9499 149.561 94.8786 149.693 94.7989C149.959 94.7384 150.165 94.7259 150.31 94.7615C150.429 94.7907 150.565 94.8379 150.716 94.9031C150.776 94.9457 150.905 95.0473 151.104 95.208C151.203 95.3163 151.258 95.3787 151.268 95.3951L151.386 95.4243C151.432 95.3516 151.458 95.302 151.465 95.2756C151.481 95.2096 151.492 95.1074 151.498 94.9689C151.504 94.8304 151.515 94.7282 151.531 94.6622C151.564 94.5302 151.637 94.4013 151.752 94.2755Z" fill="#4D0803"/>
<path d="M18.9714 105.967L18.8628 106.023L18.8347 105.968L18.9434 105.912L18.9714 105.967ZM28.0286 86.7253C28.1316 86.9245 28.1227 87.2848 28.002 87.8061C27.9688 88.0527 27.7789 88.5066 27.4321 89.1677C27.0346 90.1304 26.7577 90.9046 26.6014 91.4902C26.5508 91.7918 26.4598 92.1486 26.3285 92.5607C26.439 92.6413 26.4989 92.6906 26.5083 92.7087C26.5738 92.8355 26.5928 92.8945 26.5654 92.8858C26.7408 93.0475 26.934 93.1772 27.145 93.2747C27.1912 93.3196 27.2789 93.4005 27.4081 93.5173C27.6928 93.6685 28.102 93.9275 28.6357 94.2942C28.6276 94.3673 28.6516 94.4581 28.7077 94.5668C28.9193 94.7098 29.2002 94.9204 29.5504 95.1984L29.7751 95.633C29.9218 95.6949 30.0232 95.7801 30.0794 95.8888C30.2759 96.2691 30.3916 96.7372 30.4264 97.2929C30.3832 97.4758 30.3275 97.7456 30.2594 98.1021C30.2504 98.7952 29.9652 99.2868 29.4037 99.5769C29.0596 99.7548 28.6912 99.8189 28.2985 99.7695C28.0238 99.682 27.5798 99.5557 26.9667 99.3906C26.7476 99.3662 26.4735 99.3243 26.1444 99.2648C26.0071 99.2211 25.7826 99.142 25.4711 99.0276C25.0334 99.0244 24.503 98.9083 23.8799 98.6796C23.6695 98.6277 23.51 98.6298 23.4013 98.686C23.1297 98.8264 22.9314 98.9977 22.8064 99.2C22.4765 99.7606 22.2475 100.361 22.1192 101.001C22.2485 101.118 22.1671 101.515 21.8753 102.194C21.8216 102.268 21.4739 102.86 20.8322 103.972C20.8265 104.228 20.685 104.553 20.4076 104.949C20.1746 105.253 20.0219 105.424 19.9494 105.461C19.9313 105.47 19.9085 105.471 19.8811 105.462L19.8267 105.49C19.7905 105.509 19.7006 105.601 19.5569 105.767C19.4132 105.933 19.3142 106.03 19.2599 106.058L19.0697 106.157C18.8343 106.278 18.5658 106.314 18.2642 106.263C18.1275 106.265 17.9804 106.18 17.8231 106.009C17.3513 105.496 17.0592 105.13 16.9469 104.913C16.8626 104.75 16.7348 104.392 16.5632 103.838C16.4098 103.274 16.3275 102.915 16.3164 102.761C16.2922 102.314 16.2028 101.764 16.0481 101.109C15.9446 100.864 15.7796 100.456 15.5531 99.8849C15.3982 99.8961 15.1347 99.9634 14.7625 100.087C13.2188 100.563 12.5285 100.76 12.6915 100.675C12.6553 100.694 12.6328 100.717 12.624 100.745C12.6334 100.763 12.629 100.776 12.6109 100.786C12.5747 100.805 12.2878 100.827 11.7501 100.852C11.2032 100.859 10.9025 100.877 10.8482 100.905L10.821 100.919C10.8123 100.947 10.7988 100.965 10.7807 100.974C10.7714 100.956 10.639 100.944 10.3836 100.939C10.1463 100.924 9.75422 100.92 9.20724 100.927C8.83322 100.914 8.56848 100.89 8.41302 100.855C7.8455 100.69 7.52429 100.535 7.44942 100.39C7.4307 100.353 7.42541 100.299 7.43355 100.226C7.45045 100.125 7.44953 100.057 7.43081 100.021C7.42085 99.9569 7.40091 99.8295 7.37101 99.6385L7.44521 99.0494C7.4796 98.8939 7.55247 98.5464 7.6638 98.007L7.94403 97.4835C7.90538 97.3199 8.23058 96.7503 8.91964 95.7746C9.03463 95.5086 9.22582 95.1459 9.49323 94.6864L10.2054 93.7332C10.4471 93.4018 10.6115 93.0759 10.6984 92.7556C10.845 91.4407 11.0243 90.1891 11.2364 89.0009C11.2795 88.818 11.3658 88.4521 11.4953 87.9033C11.5116 87.7572 11.5538 87.5059 11.622 87.1494C11.73 87.0477 11.86 86.8772 12.0118 86.6382C12.0649 86.5189 12.1674 86.3397 12.3192 86.1007C12.4903 85.9434 12.6936 85.8039 12.9291 85.6822C13.3637 85.4576 13.9715 85.568 14.7525 86.0135C15.0097 86.1559 15.5803 86.5495 16.4642 87.1942C16.9336 87.5253 17.3472 87.7705 17.705 87.9299C17.788 88.0017 17.9309 88.1229 18.1338 88.2934C18.9416 88.7021 19.4633 88.8455 19.6987 88.7239C19.7893 88.6771 19.9972 88.5466 20.3226 88.3326L20.8782 87.9422L21.0412 87.858C21.123 87.8387 21.1776 87.8334 21.2051 87.8421C21.2775 87.8047 21.4262 87.6705 21.651 87.4395C21.8134 87.3097 22.1029 87.1372 22.5195 86.9219C23.1715 86.585 23.8702 86.3386 24.6158 86.1827L25.175 86.0658C25.1931 86.0565 25.2066 86.0381 25.2153 86.0106L25.2425 85.9966C25.5685 85.8281 26.0746 85.8305 26.7607 86.0037C27.4469 86.1769 27.8695 86.4174 28.0286 86.7253ZM21.0991 88.1034L21.0711 88.0491L20.9352 88.1193L20.9633 88.1736L21.0991 88.1034ZM21.4904 88.7273L21.4623 88.673L21.3537 88.7291L21.3818 88.7835L21.4904 88.7273ZM25.4406 92.6409L25.3722 92.6418L25.3496 92.9977L25.418 92.9968L25.4406 92.6409ZM21.4781 91.9005L21.45 91.8462L21.3685 91.8883L21.3966 91.9426L21.4781 91.9005ZM29.5962 95.5533L29.5401 95.4447L29.4857 95.4728L29.5419 95.5814L29.5962 95.5533ZM26.3751 87.8552C26.3003 87.7103 26.1436 87.5847 25.9051 87.4785C25.7134 87.4628 25.5261 87.4334 25.3432 87.3903C24.8031 87.2334 24.4335 87.2064 24.2342 87.3093C23.9445 87.4591 23.7093 87.6035 23.5288 87.7427C23.1959 88.0754 23.0023 88.2558 22.9479 88.2839C22.9117 88.3026 22.8618 88.3169 22.7981 88.3269L22.6894 88.3831C22.4177 88.5235 22.0118 88.848 21.4715 89.3567C21.3184 89.5046 21.2781 89.5599 21.3506 89.5224L21.0789 89.6628C20.9615 89.7465 20.8847 89.7976 20.8485 89.8164C20.8122 89.8351 20.5578 89.8977 20.0851 90.0043L18.5546 90.1068C18.1688 89.8932 17.5196 89.414 16.607 88.6694C16.5333 88.6157 16.3951 88.5035 16.1922 88.333C16.1179 88.2337 16.0162 88.1256 15.887 88.0088L14.6172 87.1505C14.2683 86.9636 13.8221 87.0106 13.2788 87.2914C12.4819 87.7032 12.1227 89.1396 12.2011 91.6004C12.1936 91.719 12.1741 91.97 12.1428 92.3534C12.144 92.4445 12.0957 92.9284 11.998 93.805C12.0255 93.8138 12.0395 93.841 12.0401 93.8865C12.0157 94.1057 11.9422 94.4076 11.8197 94.7922C11.7578 94.9389 11.6235 95.123 11.4168 95.3446L11.0636 95.5271C10.8656 95.7213 10.5283 96.0677 10.0517 96.5664C9.94366 96.6682 9.73843 97.0037 9.43601 97.573C9.06237 98.271 8.92235 98.7105 9.01595 98.8916C9.17506 99.1995 9.44752 99.4603 9.83333 99.674C9.95257 99.7271 10.1667 99.7197 10.4758 99.6517C10.6938 99.585 10.9164 99.5273 11.1437 99.4787C11.5428 99.3184 12.0192 99.1524 12.5731 98.9809C13.4268 98.7234 14.1087 98.5775 14.6188 98.5433C15.5936 98.4756 16.3102 98.8855 16.7689 99.7729C16.928 100.081 17.0506 100.385 17.1366 100.684C17.0491 100.959 17.1364 101.35 17.3985 101.857C17.5108 102.074 17.6924 102.359 17.9433 102.711C17.9807 102.784 18.0874 102.924 18.2634 103.131C18.5025 103.283 18.7307 103.303 18.9481 103.19C19.0567 103.134 19.4409 102.546 20.1007 101.424C20.1095 101.397 20.3451 100.61 20.8077 99.0625C20.9472 98.5774 21.1658 98.2234 21.4637 98.0006C21.445 97.9644 21.4491 97.9279 21.476 97.8911L21.7082 97.8743C21.7532 97.8281 21.8753 97.7535 22.0745 97.6506L22.482 97.44C22.6088 97.3744 22.8224 97.3214 23.1227 97.281C23.8351 97.3718 24.831 97.5226 26.1103 97.7335C26.2102 97.7048 26.3423 97.6939 26.5065 97.7008C26.9455 97.7953 27.5851 97.9007 28.4255 98.0171C28.526 98.034 28.6669 97.9957 28.848 97.9021C29.2464 97.6962 29.3708 97.4483 29.221 97.1585C29.2397 97.1948 29.1658 97.1183 28.9991 96.929L29.0254 96.8466C29.0803 96.8641 29.1125 96.8819 29.1218 96.9L28.8374 96.0832C28.5753 95.5761 27.8974 94.997 26.8037 94.346L26.3504 94.2016C25.6799 93.8367 25.2932 93.5547 25.1903 93.3554L25.2242 92.8216C25.2531 92.2559 25.3901 91.5885 25.6351 90.8193C25.827 90.1693 26.028 89.5147 26.238 88.8554C26.3949 88.3154 26.4406 87.982 26.3751 87.8552ZM24.3381 98.1674L24.296 98.0859L24.2688 98.1L24.311 98.1815L24.3381 98.1674ZM17.0008 100.755L16.9446 100.646L16.8903 100.674L16.9465 100.783L17.0008 100.755ZM8.34809 99.0647L8.29376 99.0927L8.30871 99.1883L8.33587 99.1742L8.34809 99.0647ZM10.7173 100.319C10.7079 100.301 10.6667 100.287 10.5936 100.279L10.6498 100.388C10.686 100.369 10.7085 100.346 10.7173 100.319ZM20.5514 103.429L20.5102 103.416L20.4428 103.485L20.4709 103.539L20.5514 103.429ZM16.4907 102.498L16.4363 102.526L16.4952 102.84L16.5364 102.853L16.4907 102.498ZM25.1789 88.4046C25.207 88.4589 25.2228 88.6228 25.2265 88.8963C25.2389 89.1423 25.2317 89.2837 25.2048 89.3206C25.1342 89.4947 25.0373 89.7513 24.9142 90.0903C24.8897 90.3095 24.821 90.6204 24.7078 91.0231L24.3506 91.9306C24.2993 92.1866 24.2361 92.5749 24.161 93.0956C24.1728 93.2961 24.2583 93.5502 24.4174 93.8581C24.5952 94.2022 24.9463 94.5486 25.4707 94.8972C25.8203 95.1296 26.2891 95.4151 26.8772 95.7538C27.474 96.0649 27.8145 96.302 27.8988 96.465C27.9087 96.5287 27.9895 96.7738 28.1411 97.2003C28.1423 97.2915 28.1157 97.3511 28.0614 97.3792L27.8169 97.5055C27.6995 97.5892 27.6317 97.6357 27.6136 97.645C27.1216 97.6698 26.711 97.6525 26.382 97.5931C26.1698 97.4044 25.2533 97.0519 23.6325 96.5356C22.7683 96.6839 22.2365 96.8095 22.0373 96.9125L21.7385 97.0669C21.7029 97.1312 21.6179 97.2555 21.4836 97.4396C21.2675 97.6431 20.9664 97.9708 20.5804 98.4227C20.5716 98.4502 20.1836 99.0982 19.4164 100.367C19.006 101.038 18.7645 101.392 18.6921 101.43C18.4566 101.551 18.2734 101.485 18.1423 101.232L16.8797 98.8551C16.758 98.6196 16.5268 98.372 16.1859 98.1121C16.0386 98.0046 15.7502 97.9128 15.3206 97.8364C14.6719 97.7357 14.257 97.7321 14.0759 97.8257L14.0215 97.8538C14.0309 97.8719 14.0265 97.8856 14.0084 97.895C13.9903 97.9043 13.8629 97.9243 13.6262 97.9548C13.3896 97.9853 13.2169 98.0286 13.1083 98.0848C13.0901 98.0941 13.0767 98.1126 13.068 98.14L13.0136 98.1681C13.1766 98.0839 12.8538 98.1475 12.0451 98.3588C11.8272 98.4256 11.5499 98.4885 11.2133 98.5477C11.0678 98.577 10.8668 98.5432 10.6102 98.4464C10.5547 98.3833 10.4579 98.3071 10.3199 98.2177C10.4343 97.9062 10.5187 97.7364 10.573 97.7083C10.6092 97.6896 10.6458 97.6937 10.6826 97.7205C10.7101 97.7293 10.7328 97.729 10.751 97.7196C10.5698 97.8132 10.682 97.6749 11.0873 97.3048C11.8531 96.6108 12.3848 95.7967 12.6823 94.8627C12.771 94.6792 12.8737 93.8344 12.9904 92.3284C13.0293 91.8264 13.1074 90.8451 13.2247 89.3847C13.2491 89.1655 13.3684 88.8859 13.5827 88.5456L13.7729 88.4474C14.2619 88.1946 14.8063 88.3378 15.4062 88.8769C15.4892 88.9487 15.7704 89.182 16.2498 89.5768C16.4258 89.7842 16.6939 90.0587 17.0541 90.4004C17.2008 90.4623 17.3753 90.5557 17.5775 90.6806C18.396 91.1985 19.3391 91.1586 20.4071 90.5608L23.8087 88.2177C23.9986 88.0966 24.2487 88.0477 24.559 88.0709C24.8693 88.0941 25.0759 88.2053 25.1789 88.4046ZM15.1608 88.9349L15.1187 88.8534L15.0643 88.8815L15.1064 88.963L15.1608 88.9349ZM16.609 90.8714L16.4564 90.7093L16.4161 90.7645L16.5819 90.8854L16.609 90.8714ZM23.4869 89.7264C23.2228 89.7482 23.1088 89.7497 23.1451 89.731L20.8984 91.5116C20.7442 91.5684 20.5222 91.6717 20.2324 91.8214C19.6166 92.1396 18.6357 92.0843 17.2897 91.6555L16.0321 90.6876C15.8392 90.5807 15.6048 90.438 15.3289 90.2593C15.2072 90.0239 15.0078 89.7712 14.7307 89.5014C14.5565 89.4308 14.397 89.4329 14.2521 89.5078C13.9985 89.6388 13.8644 90.1785 13.8497 91.127C13.8458 91.5191 13.849 92.1026 13.8594 92.8775C14.0016 93.2859 13.8568 94.0492 13.4249 95.1674C13.3999 95.341 13.3074 95.5838 13.1474 95.896C13.0575 95.9883 12.9457 96.1494 12.812 96.3791L12.7033 96.4353L12.3004 96.9877C12.1573 97.1994 12.0826 97.4101 12.0763 97.6199C12.2031 97.5544 12.2892 97.5213 12.3348 97.5207C12.5259 97.4908 12.785 97.4372 13.1123 97.3599C13.2934 97.2663 13.57 97.1577 13.9422 97.0342C14.1426 97.0224 14.4068 97.0007 14.7346 96.9689C15.2248 96.8074 15.552 96.7301 15.7162 96.737C15.9897 96.7333 16.2922 96.8524 16.6237 97.0942C16.9639 97.3085 17.1761 97.4971 17.2604 97.6601C17.3821 97.8955 17.495 98.1585 17.5992 98.4488C17.8169 99.0477 17.8976 99.2928 17.8415 99.1842C18.0755 99.6369 18.3011 99.8072 18.5185 99.6948C18.6452 99.6293 18.7399 99.546 18.8023 99.4449C18.9704 99.0597 19.3322 98.4941 19.8875 97.7481C19.9494 97.6014 20.0519 97.4222 20.1949 97.2106C20.258 97.1551 20.4204 97.0253 20.6821 96.8212L21.426 96.1958C21.5709 96.1209 21.8662 96.0486 22.3121 95.9788C22.776 95.8997 23.0811 95.8682 23.2272 95.8845C23.5562 95.944 24.2015 96.1268 25.1629 96.4331L25.2988 96.3629C25.4186 96.4616 25.575 96.5644 25.7679 96.6712C25.8503 96.6975 25.964 96.6732 26.1089 96.5983C26.1632 96.5702 26.1991 96.5287 26.2166 96.4738L26.1745 96.3923C26.0903 96.2293 25.7307 95.9332 25.0958 95.504L24.24 94.9136C24.1482 94.8693 24.0608 94.8112 23.9778 94.7393C23.8299 94.5863 23.6904 94.383 23.5594 94.1294C23.2973 93.6223 23.2047 93.1768 23.2817 92.7928L23.3455 92.45C23.3705 92.2765 23.4522 91.5687 23.5907 90.3268C23.5982 90.2082 23.5636 90.0081 23.4869 89.7264ZM22.16 91.7547C22.3191 92.0625 22.258 92.6104 21.9768 93.3983C21.9242 93.5632 21.9354 93.718 22.0103 93.8629C22.029 93.8991 22.1354 94.0162 22.3296 94.2142C22.3658 94.1955 22.4114 94.1949 22.4663 94.2124C23.1392 94.7596 23.4663 95.0151 23.4476 94.9789L23.6722 95.4136C23.4468 95.5989 23.3069 95.7057 23.2525 95.7337C23.2344 95.7431 23.1479 95.7534 22.9931 95.7646C22.8382 95.7757 22.7427 95.7907 22.7065 95.8094C22.3674 95.6863 22.0381 95.6041 21.7184 95.5627C21.0996 95.6531 20.5548 95.8199 20.0839 96.0632C19.9209 96.1475 19.8259 96.208 19.7991 96.2448C18.9244 97.6607 18.5233 98.3499 18.5957 98.3124C18.3422 98.4435 18.1218 98.3279 17.9346 97.9657C17.8691 97.8389 17.7933 97.6256 17.7073 97.3259C17.6393 97.0168 17.5726 96.7988 17.5071 96.6721L17.3386 96.3461C17.2924 96.3011 17.0405 96.2133 16.5828 96.0826C16.4636 96.0295 16.2853 95.9954 16.0481 95.9803C15.7664 96.057 15.4626 96.1796 15.1366 96.3481C15.1004 96.3668 15.0417 96.4086 14.9605 96.4735L14.7703 96.5718C14.4987 96.7122 14.2167 96.7661 13.9245 96.7336C13.5686 96.711 13.3523 96.5588 13.2756 96.2772C13.4543 96.0013 13.5708 95.8493 13.6251 95.8212C13.6613 95.8025 13.6841 95.8022 13.6935 95.8203C13.7029 95.8384 13.7166 95.8428 13.7347 95.8334C13.8253 95.7866 14.0165 95.4239 14.3083 94.7453C14.4284 94.1784 14.6138 93.3826 14.8645 92.3581C14.8727 92.285 14.922 92.2251 15.0126 92.1783C15.2299 92.066 15.6963 92.1692 16.4118 92.4879C16.6503 92.5941 17.0439 92.7119 17.5927 92.8414C17.8031 92.8933 18.1768 92.8837 18.7138 92.8127C18.8143 92.8296 18.9739 92.8275 19.1924 92.8064C19.6833 92.6904 20.0554 92.5669 20.309 92.4359C20.3452 92.4171 20.3949 92.38 20.458 92.3245C20.521 92.2689 20.5707 92.2318 20.6069 92.213C21.5025 91.6814 21.8688 91.4577 21.7058 91.5419C21.8145 91.4857 21.9658 91.5567 22.16 91.7547ZM20.895 93.3034C20.6396 93.2976 20.4848 93.3088 20.4304 93.3369C20.3942 93.3556 20.3446 93.3928 20.2815 93.4483L20.0913 93.5466C20.0189 93.584 19.7457 93.6105 19.2718 93.6259C19.0719 93.6833 18.7672 93.7375 18.3576 93.7886C18.1478 93.7822 17.6861 93.6881 16.9724 93.5062C16.2588 93.3242 15.8295 93.2707 15.6847 93.3455C15.6262 94.4314 15.3905 95.2186 14.9776 95.7074C15.2143 95.6769 15.5599 95.613 16.0145 95.5158C16.3948 95.3192 16.8319 95.2769 17.3258 95.3889C17.6917 95.4752 18.0808 95.9395 18.4933 96.782C18.6019 96.7258 18.7465 96.6282 18.927 96.489C18.9614 96.3335 19.0136 96.1459 19.0836 95.9261C19.3254 95.5947 19.5459 95.3775 19.7451 95.2745C19.9081 95.1903 20.1076 95.1101 20.3437 95.034C20.4529 95.0234 20.699 95.011 21.0817 94.9968C21.3009 95.0212 21.4242 95.0378 21.4517 95.0466L21.6147 94.9623C21.5947 94.835 21.5754 94.7531 21.5567 94.7169C21.5099 94.6264 21.4216 94.4999 21.2918 94.3375C21.1619 94.1751 21.0736 94.0486 21.0268 93.9581C20.9332 93.777 20.8893 93.5587 20.895 93.3034Z" fill="#4D0803"/>
<path d="M107.008 48.6743C107.518 48.6743 109.047 48.1221 111.595 47.0179C114.228 45.9136 116.14 45.3615 117.329 45.3615C117.924 45.4464 119.537 45.6163 122.171 45.8711C124.209 46.041 127.013 47.4001 130.58 49.9484C131.43 50.7129 132.534 51.6473 133.893 52.7516C134.318 53.0914 134.615 53.7284 134.785 54.6628C134.785 54.9177 134.87 55.215 135.04 55.5547L128.414 58.8676L116.564 60.3965C114.866 60.0568 113.931 59.8869 113.761 59.8869C114.866 60.8213 116.395 62.3078 118.348 64.3464L119.495 67.6593C119.835 68.084 120.302 68.7635 120.897 69.6979L121.279 71.6091L122.935 75.4316C122.935 76.5359 122.553 77.088 121.788 77.088H121.406L121.151 77.2155H120.642L117.074 73.1381C117.244 73.9026 117.499 74.9644 117.839 76.3235C117.924 77.173 118.136 78.3197 118.476 79.7638C119.41 81.9723 119.877 82.9492 119.877 82.6943C119.877 82.9492 119.453 83.6712 118.603 84.8604C118.433 85.0303 118.263 85.3276 118.093 85.7523C117.839 85.5824 117.541 85.3276 117.201 84.9878L117.074 84.733L116.947 84.6056C116.862 86.3894 116.437 88.9802 115.673 92.3779C114.823 93.6521 113.337 96.0305 111.213 99.5132C108.835 103.76 106.286 107.158 103.568 109.707C100.85 112.17 98.0466 114.676 95.1585 117.224L94.5215 117.861C94.0118 118.286 91.5484 119.518 87.1313 121.556C86.6217 121.896 85.6873 122.448 84.3282 123.213C83.7336 123.213 82.8417 123.34 81.6524 123.595L81.1428 123.85C77.745 125.549 72.3936 126.313 65.0884 126.143C64.7486 126.143 64.2814 126.186 63.6868 126.271C63.0922 126.356 62.6675 126.398 62.4126 126.398C59.8643 126.398 58.0805 126.228 57.0612 125.888L56.6789 125.761H56.4241C54.98 125.761 52.7715 125.336 49.7985 124.487C48.7791 124.232 47.5474 123.68 46.1034 122.83C45.3389 121.981 44.2346 120.24 42.7906 117.606C42.4508 117.012 42.0261 115.143 41.5164 112C41.0068 108.772 40.7519 106.691 40.7519 105.757C40.7519 102.869 41.0917 99.938 41.7713 96.9649C42.0261 95.9456 42.9605 92.9301 44.5744 87.9184C45.0841 85.7098 45.5513 83.5013 45.976 81.2928C46.6555 78.3197 47.505 76.3235 48.5243 75.3042L48.7791 75.0494C49.4587 73.6053 50.3081 71.9914 51.3275 70.2076C53.3661 66.6399 56.9762 62.4777 62.1578 57.7208C61.818 57.2961 61.7331 56.6165 61.903 55.6822C62.0729 54.8327 62.3702 54.1956 62.7949 53.7709C64.9185 51.6473 67.5942 49.906 70.8221 48.5469C72.8607 47.7824 75.8763 46.5507 79.8686 44.8518C79.1891 44.512 77.745 43.9599 75.5365 43.1954C74.6021 42.8556 72.9032 42.2185 70.4398 41.2842L70.185 41.0293C70.1001 40.9444 70.0576 40.7745 70.0576 40.5197C70.0576 39.8401 70.8221 39.288 72.3511 38.8633V38.6084C72.436 38.3536 72.5634 38.1412 72.7333 37.9713C74.5172 37.3767 76.0037 37.0794 77.1929 37.0794C79.6563 37.0794 81.2702 37.1644 82.0347 37.3343C82.7992 37.8439 83.6911 38.3961 84.7104 38.9907C84.7954 38.9057 84.9653 38.8633 85.2201 38.8633C86.1545 38.8633 87.1738 39.288 88.2781 40.1374C89.7221 41.1567 90.614 41.7513 90.9538 41.9212C92.8226 42.6857 94.8612 43.9174 97.0698 45.6163L102.803 49.9484C104.078 48.4194 104.715 47.1878 104.715 46.2534C104.715 44.8943 104.205 43.5776 103.186 42.3035C102.251 40.9444 101.147 40.2648 99.8729 40.2648H94.2666C93.2473 40.2648 92.228 39.203 91.2086 37.0794C91.1237 36.8246 91.0812 36.5698 91.0812 36.3149C91.0812 35.8902 91.2086 35.423 91.4635 34.9134H92.865C92.7801 37.2068 93.8419 38.3536 96.0504 38.3536C99.703 38.3536 102.039 38.5235 103.058 38.8633C105.946 39.7976 107.348 42.0062 107.263 45.4889C107.263 45.7437 107.221 46.1684 107.136 46.763C107.051 47.2727 107.008 47.655 107.008 47.9098V48.6743ZM132.491 54.2806C129.858 51.1377 127.352 49.5662 124.974 49.5662C122.001 49.5662 120.09 49.9484 119.24 50.7129C121.534 51.2226 125.653 52.3693 131.599 54.1532L131.982 54.2806H132.491ZM124.719 54.7902L123.572 54.2806L123.827 54.9177C124.507 56.1918 125.314 56.8289 126.248 56.8289C126.418 56.8289 126.588 56.7864 126.758 56.7015L126.885 56.5741C126.97 56.4891 127.14 56.4467 127.395 56.4467L127.904 57.0837C128.159 57.0837 128.881 56.7015 130.07 55.937C128.966 55.852 127.182 55.4698 124.719 54.7902ZM123.955 48.1646C123.87 48.0797 123.827 47.9947 123.827 47.9098C121.534 47.57 119.495 47.4001 117.711 47.4001C115.333 47.4001 113.634 48.292 112.615 50.0759C113.464 50.1608 114.398 50.2033 115.418 50.2033C116.012 50.2033 117.414 49.8635 119.622 49.1839C121.831 48.4194 123.402 47.9947 124.337 47.9098L124.209 48.4194L123.955 48.1646ZM109.939 49.5662C110.279 49.6511 110.533 49.7361 110.703 49.821C110.873 49.5662 111.001 49.3538 111.086 49.1839C110.746 49.2689 110.364 49.3963 109.939 49.5662ZM121.534 53.5161C119.495 52.6666 118.136 52.2419 117.456 52.2419C117.286 52.2419 117.159 52.3269 117.074 52.4968H116.947C116.777 52.7516 116.564 52.879 116.31 52.879C115.63 52.879 114.611 52.7516 113.252 52.4968C111.977 52.157 111.001 51.9871 110.321 51.9871C109.641 51.9871 109.217 52.072 109.047 52.2419C107.518 53.2613 106.753 54.2381 106.753 55.1725C106.753 55.852 106.966 56.3192 107.39 56.5741C108.75 57.4235 110.024 57.8482 111.213 57.8482H112.232C111.977 56.9138 111.85 56.0644 111.85 55.2999C111.85 53.9408 112.317 53.0064 113.252 52.4968C113.591 52.8365 113.761 53.3037 113.761 53.8983C113.761 54.1532 113.719 54.5779 113.634 55.1725C113.549 55.7671 113.506 56.1918 113.506 56.4467C113.506 57.7208 114.356 58.3579 116.055 58.3579C115.8 58.3579 116.479 58.3154 118.093 58.2305C117.414 56.6165 117.074 55.3849 117.074 54.5354C117.074 53.2613 117.499 52.4543 118.348 52.1145C118.858 52.6242 119.028 53.0489 118.858 53.3887C118.688 53.5586 118.603 53.7709 118.603 54.0257C118.603 54.5354 118.73 55.1725 118.985 55.937C119.24 57.2961 119.707 57.9756 120.387 57.9756C120.557 57.9756 120.812 57.8907 121.151 57.7208C121.576 57.5509 121.873 57.466 122.043 57.466C122.213 57.466 122.51 57.5509 122.935 57.7208C123.275 57.8058 123.657 57.8058 124.082 57.7208C122.553 56.4467 121.704 55.0451 121.534 53.5161ZM105.097 54.1532C105.182 53.5586 105.564 52.7516 106.244 51.7323C105.394 52.4968 104.97 53.2188 104.97 53.8983C104.97 53.9833 105.012 54.0682 105.097 54.1532ZM117.711 68.0415L117.839 67.7867L118.221 68.5512L117.966 68.9334L117.456 67.9141L117.711 68.0415ZM87.1313 54.9177C87.1313 55.0875 87.0464 55.2574 86.8765 55.4273C86.5367 55.2574 86.1969 54.9601 85.8572 54.5354C85.7722 54.3655 85.6448 54.2381 85.4749 54.1532C84.7954 54.1532 81.61 54.8752 75.9187 56.3192C73.8801 56.8289 71.8414 57.3386 69.8028 57.8482C67.1695 58.5278 65.3007 59.3772 64.1965 60.3965C61.818 62.4352 58.845 65.7055 55.2773 70.2076C50.6904 75.9838 48.5668 79.9337 48.9065 82.0573C48.9915 82.397 48.7367 83.2889 48.1421 84.733C47.4625 86.4319 47.0803 87.4087 46.9953 87.6636C46.9104 88.2582 46.4007 89.4474 45.4663 91.2312C44.9567 94.2892 44.0647 98.7912 42.7906 104.737L42.5358 105.374V105.757C42.5358 107.201 42.7906 109.197 43.3002 111.745C44.3196 116.587 45.7211 119.815 47.505 121.429C48.4394 122.278 49.9259 122.873 51.9645 123.213C53.0688 123.382 54.7252 123.637 56.9338 123.977L58.2079 124.232C58.3778 124.317 58.5902 124.359 58.845 124.359H68.0189C72.6909 124.359 77.8724 123.255 83.5637 121.047C85.1776 120.452 87.0889 119.602 89.2974 118.498C89.892 117.989 90.7839 117.394 91.9731 116.714C93.9268 115.78 95.6682 114.718 97.1972 113.529C100.085 111.151 104.375 105.799 110.066 97.4746C111.595 95.1811 112.53 93.5672 112.869 92.6328C113.464 91.2737 114.016 89.4474 114.526 87.1539L115.035 87.4087C113.676 89.2775 112.615 90.2119 111.85 90.2119C111.51 90.2119 111.128 90.042 110.703 89.7022C110.279 89.2775 110.066 88.8952 110.066 88.5555C110.066 87.9609 110.236 87.1539 110.576 86.1346C110.916 85.0303 111.086 84.2233 111.086 83.7137C111.086 83.4588 110.873 80.5707 110.448 75.0494C110.364 73.9451 109.981 73.1381 109.302 72.6285C108.622 72.4586 107.688 72.1188 106.499 71.6091C105.734 71.0145 104.8 70.335 103.695 69.5705C101.827 68.8909 99.9154 68.5512 97.9617 68.5512C97.537 68.5512 96.2203 69.613 94.0118 71.7366C91.8882 73.7752 90.5291 74.7945 89.9345 74.7945C89.6796 74.7945 89.2974 74.5397 88.7877 74.0301V72.7559C88.7877 72.1613 88.9576 71.5242 89.2974 70.8447C89.6372 70.0802 89.8071 69.613 89.8071 69.4431C90.1468 67.6593 90.3167 65.4932 90.3167 62.9449V61.4159C90.3167 59.5471 89.6796 58.1455 88.4055 57.2111C88.3205 56.4467 87.8958 55.6822 87.1313 54.9177ZM105.734 77.2155C103.95 77.2155 103.058 76.5784 103.058 75.3042C103.058 74.6247 103.356 73.9451 103.95 73.2656C104.545 72.5011 105.182 72.1188 105.861 72.1188C106.456 72.1188 107.136 72.4586 107.9 73.1381C108.75 73.8177 109.174 74.4548 109.174 75.0494C109.174 76.4934 108.028 77.2155 105.734 77.2155ZM100 76.3235C97.9617 77.2579 96.9424 77.7676 96.9424 77.8525C96.7725 77.8525 95.8806 77.3853 94.2666 76.451V76.0687C94.0967 75.644 94.0118 75.3042 94.0118 75.0494C94.0118 74.3698 94.394 73.7327 95.1585 73.1381C95.923 72.4586 96.6451 72.1188 97.3246 72.1188C97.6644 72.1188 98.3015 72.3312 99.2358 72.7559C100.255 73.1806 100.807 73.5204 100.892 73.7752C100.892 74.0301 100.595 74.8795 100 76.3235ZM108.282 87.6636C107.688 88.0883 106.923 88.3006 105.989 88.3006C104.29 88.3006 103.441 87.4087 103.441 85.6249C103.441 83.926 104.63 83.0766 107.008 83.0766C107.433 83.0766 107.943 83.5862 108.537 84.6056C109.217 85.6249 109.557 86.3469 109.557 86.7716L108.282 87.6636ZM77.1929 62.3078C76.4284 62.3078 75.7913 61.8831 75.2816 61.0336C74.772 60.1842 74.6446 59.4197 74.8994 58.7401C76.0886 57.8907 77.2778 57.466 78.467 57.466C79.9111 57.466 80.5482 58.6552 80.3783 61.0336C78.6794 61.8831 77.6176 62.3078 77.1929 62.3078ZM83.054 68.6786C81.3551 68.6786 80.5057 67.6593 80.5057 65.6206C80.5057 64.941 80.8879 64.3889 81.6524 63.9642C82.5019 63.4545 83.2664 63.1997 83.9459 63.1997C85.8996 63.1997 86.8765 64.0491 86.8765 65.748C86.8765 67.7017 85.6023 68.6786 83.054 68.6786ZM104.332 96.7101C102.294 96.7101 101.274 95.8606 101.274 94.1618C101.274 92.2081 102.039 91.2312 103.568 91.2312C104.163 91.2312 104.885 91.6559 105.734 92.5054C106.583 93.2699 107.008 93.9494 107.008 94.544C107.008 95.9881 106.116 96.7101 104.332 96.7101ZM93.6295 90.2119C91.1662 90.2119 89.9345 89.235 89.9345 87.2813C89.9345 85.4975 91.0812 84.6056 93.3747 84.6056C93.8844 84.6056 94.2666 84.648 94.5215 84.733C94.8612 85.3276 95.201 85.7948 95.5408 86.1346L95.7956 86.3894C96.2203 86.6442 96.4327 87.1539 96.4327 87.9184C96.4327 89.4474 95.4983 90.2119 93.6295 90.2119ZM83.5637 84.0959C81.9497 84.0959 81.1428 83.1191 81.1428 81.1653C81.1428 80.6557 81.3976 80.0186 81.9073 79.2541C82.5019 78.4047 83.054 77.9799 83.5637 77.9799C85.7722 77.9799 86.8765 79.1692 86.8765 81.5476C86.8765 83.2465 85.7722 84.0959 83.5637 84.0959ZM73.4978 74.7945C72.9032 74.7945 72.3086 74.4548 71.714 73.7752C71.2043 73.0107 70.9495 72.3312 70.9495 71.7366C70.9495 70.6323 72.0113 69.6554 74.1349 68.806C76.0037 69.9952 76.9381 71.2269 76.9381 72.5011C76.9381 72.9258 76.4709 73.4354 75.5365 74.0301C74.6021 74.5397 73.9225 74.7945 73.4978 74.7945ZM66.4899 67.0222C64.2814 67.0222 63.1771 66.1727 63.1771 64.4739C63.1771 63.1148 64.069 62.4352 65.8529 62.4352C67.5517 62.4352 68.5711 63.0723 68.9109 64.3464C68.9958 64.1766 69.1232 64.0916 69.2931 64.0916C69.6329 64.0067 69.8028 64.2615 69.8028 64.8561C69.8028 66.3002 68.6985 67.0222 66.4899 67.0222ZM93.5021 104.482C92.0581 104.482 91.3361 103.803 91.3361 102.444C91.3361 99.9804 92.3554 98.7487 94.394 98.7487C95.1585 98.7487 95.8381 99.2584 96.4327 100.278C97.0273 101.297 97.1972 102.189 96.9424 102.953C95.7531 103.973 94.6064 104.482 93.5021 104.482ZM86.112 96.4553C85.5174 96.88 84.9228 97.0923 84.3282 97.0923C82.7142 97.0923 81.9073 96.1155 81.9073 94.1618C81.9073 93.6521 82.2471 93.1849 82.9266 92.7602C83.6911 92.2505 84.3282 91.9957 84.8378 91.9957C86.2819 91.9957 87.0039 92.7177 87.0039 94.1618C87.0039 94.9263 86.7066 95.6908 86.112 96.4553ZM67.6367 81.4202C66.7873 82.1847 65.8529 82.5669 64.8335 82.5669C64.154 82.5669 63.5169 82.1847 62.9223 81.4202C62.3277 80.6557 62.0304 79.9337 62.0304 79.2541C62.0304 77.2154 63.2621 76.1961 65.7255 76.1961C66.3201 76.1961 66.9996 76.5359 67.7641 77.2155C68.5286 77.8101 68.9109 78.4047 68.9109 78.9993C68.9109 79.7638 68.4861 80.5707 67.6367 81.4202ZM74.0075 90.5941H73.243C71.4592 90.5941 70.5673 89.7447 70.5673 88.0458C70.5673 87.4512 70.907 86.8991 71.5866 86.3894C72.2661 85.7948 72.9032 85.4975 73.4978 85.4975C74.3473 85.4975 75.1118 85.7523 75.7913 86.262C76.6408 87.0265 77.0655 87.7485 77.0655 88.4281C77.0655 89.2775 76.0461 89.9995 74.0075 90.5941ZM57.9531 76.451H58.2079L58.3353 76.5784C58.4203 76.7483 58.4627 77.1305 58.4627 77.7251C58.2929 77.5552 57.9106 77.3004 57.316 76.9606C57.1461 76.7907 56.6364 76.3235 55.787 75.559C55.3623 75.1343 55.1499 74.5822 55.1499 73.9026C55.1499 73.393 55.3623 72.8833 55.787 72.3736C57.2311 71.6091 58.3353 71.2269 59.0998 71.2269C59.3547 71.2269 59.652 71.3543 59.9917 71.6091L60.374 71.9914C61.2234 72.6709 61.6481 73.308 61.6481 73.9026C61.6481 74.5822 61.1809 75.2193 60.2466 75.8139C59.3122 76.3235 58.5477 76.5359 57.9531 76.451ZM91.8457 115.313C89.8071 115.313 88.7877 114.251 88.7877 112.127C88.7877 111.448 89.2125 110.853 90.0619 110.344C90.9113 109.834 91.6758 109.579 92.3554 109.579C94.0543 109.579 94.9037 110.513 94.9037 112.382C94.9037 113.062 94.5639 113.699 93.8844 114.293C93.2048 114.973 92.5253 115.313 91.8457 115.313ZM83.8185 109.834C83.7336 110.004 83.5637 110.089 83.3089 110.089C82.3745 110.089 81.9073 109.452 81.9073 108.178C81.9073 106.564 82.8841 105.757 84.8378 105.757C86.5367 105.757 87.3862 106.479 87.3862 107.923C87.3862 108.347 87.0889 108.772 86.4943 109.197C85.8996 109.622 85.3475 109.834 84.8378 109.834H83.8185ZM75.2816 104.1C72.3086 104.1 70.8221 103.251 70.8221 101.552C70.8221 100.787 71.2043 100.023 71.9688 99.2584C72.7333 98.409 73.4978 97.9842 74.2623 97.9842C74.9419 97.9842 75.6639 98.409 76.4284 99.2584C77.2778 100.108 77.7026 100.872 77.7026 101.552C77.7026 101.977 77.4052 102.529 76.8106 103.208C76.216 103.803 75.7064 104.1 75.2816 104.1ZM64.5787 91.6134L64.4513 91.9957C64.3664 92.2505 64.3664 92.6752 64.4513 93.2699L63.6868 93.5247C62.6675 94.0344 62.0304 94.2892 61.7756 94.2892C59.7369 94.2892 58.7176 93.3123 58.7176 91.3586C58.7176 90.6791 58.9724 90.042 59.4821 89.4474C60.0767 88.7678 60.6713 88.4281 61.2659 88.4281C61.9454 88.4281 62.6675 88.7254 63.432 89.32C64.1965 89.9146 64.5787 90.5517 64.5787 91.2312V91.6134ZM54.6403 82.4395C54.7252 82.3546 54.8526 82.2696 55.0225 82.1847L55.9144 82.9492C55.6596 83.6287 55.3198 84.6056 54.8951 85.8797C53.6209 86.4743 52.8564 86.7716 52.6016 86.7716C50.563 86.7716 49.5436 85.7948 49.5436 83.8411C49.5436 82.1422 50.3931 81.2928 52.0919 81.2928C52.9414 81.2928 53.5785 81.5051 54.0032 81.9298C54.1731 82.0148 54.3854 82.1847 54.6403 82.4395ZM72.6059 119.9C71.7565 119.9 70.5673 119.475 69.0383 118.626C69.5479 115.992 70.3124 114.676 71.3318 114.676C72.1812 114.676 73.0306 114.931 73.8801 115.44C74.7295 116.035 75.1542 116.757 75.1542 117.606C75.1542 118.116 74.8569 118.626 74.2623 119.135C73.6677 119.645 73.1156 119.9 72.6059 119.9ZM47.7598 92.6328C47.9297 92.5478 48.1421 92.5054 48.3969 92.5054C49.5861 92.5054 50.1807 93.3548 50.1807 95.0537C50.1807 96.6676 49.1189 97.4746 46.9953 97.4746C45.8061 97.4746 45.2115 96.5402 45.2115 94.6714C45.2115 93.9069 45.7211 93.015 46.7405 91.9957C47.1652 91.9957 47.505 92.2081 47.7598 92.6328ZM66.4899 109.707L66.1077 110.089L65.9803 110.344C65.5556 112.127 64.2814 113.019 62.1578 113.019C60.1192 113.019 59.0998 112.127 59.0998 110.344C59.0998 109.664 59.652 109.027 60.7562 108.432C61.8605 107.838 62.7949 107.54 63.5594 107.54C65.0034 107.54 66.1077 108.008 66.8722 108.942C66.8722 109.282 66.7448 109.537 66.4899 109.707ZM54.1306 104.482H53.3661C51.9221 104.482 51.2 103.675 51.2 102.062C51.2 100.618 52.2618 99.5982 54.3854 99.0036H55.2773C56.1268 101.042 56.5515 102.147 56.5515 102.316C56.5515 103.76 55.7445 104.482 54.1306 104.482ZM63.432 122.576C63.0072 122.915 62.4126 123.085 61.6481 123.085C59.7794 123.085 58.845 122.236 58.845 120.537C58.845 118.923 59.6944 118.116 61.3933 118.116C62.3277 118.116 63.0922 118.583 63.6868 119.518C63.8567 119.857 64.1965 120.282 64.7061 120.792V121.938C64.3663 122.108 63.9416 122.321 63.432 122.576ZM47.505 112.382C45.7211 112.382 44.8292 111.49 44.8292 109.707C44.8292 109.027 45.169 108.39 45.8486 107.795C46.5281 107.201 47.2077 106.903 47.8872 106.903C48.3969 106.903 48.9065 107.286 49.4162 108.05C49.9259 108.73 50.1807 109.324 50.1807 109.834C50.1807 110.429 49.8834 111.023 49.2888 111.618C48.6942 112.127 48.0996 112.382 47.505 112.382ZM53.3661 119.39C51.6672 119.39 50.8178 118.668 50.8178 117.224C50.8178 117.054 50.8603 116.799 50.9452 116.46L51.0726 116.205V115.822C52.9414 115.058 54.0881 114.676 54.5128 114.676C55.6171 114.676 56.1693 115.398 56.1693 116.842C56.1693 118.541 55.2349 119.39 53.3661 119.39ZM106.753 74.7945L106.244 74.4123H105.607C105.522 74.5822 105.522 74.7096 105.607 74.7945V75.1768L106.753 75.0494V74.7945ZM97.9617 74.5397L97.452 75.0494C96.9424 74.7945 96.5601 74.6247 96.3053 74.5397V74.6671C96.2203 74.7521 96.0929 74.9644 95.923 75.3042L96.0504 75.4316H96.8149C97.0698 75.4316 97.4945 75.1768 98.0891 74.6671L97.9617 74.5397ZM105.607 86.3894H105.734C105.904 86.4743 106.031 86.5168 106.116 86.5168C106.371 86.5168 106.711 86.4319 107.136 86.262V85.8797L106.626 85.3701V85.4975C106.541 85.8373 106.414 86.0496 106.244 86.1346C105.989 86.1346 105.734 86.0921 105.479 86.0071L105.607 86.3894ZM77.0655 59.6321V59.7595C77.1504 59.7595 77.2354 59.717 77.3203 59.6321H77.0655ZM84.3282 65.8754C83.9884 66.1303 83.7336 66.4276 83.5637 66.7673H83.8185L83.9459 66.6399L84.2008 66.5125L84.4556 66.2577L84.3282 65.8754ZM103.95 93.6521C104.035 93.6521 104.078 93.6946 104.078 93.7795H103.568C103.483 93.7795 103.398 93.822 103.313 93.9069L103.058 94.0344V94.4166C103.398 94.7564 103.738 94.9263 104.078 94.9263C104.248 94.8413 104.417 94.7988 104.587 94.7988L104.715 94.6714C104.205 94.3317 103.95 93.9919 103.95 93.6521ZM94.394 87.791C94.0543 87.1964 93.8419 86.8991 93.757 86.8991C93.3322 86.984 92.7376 87.2813 91.9731 87.791V88.0458C92.3979 88.1307 92.7801 88.1732 93.1199 88.1732C93.5446 88.1732 93.9693 88.1307 94.394 88.0458V87.791ZM84.3282 80.146C83.9035 80.4008 83.4787 80.7831 83.054 81.2928C83.4787 81.7175 83.861 81.9298 84.2008 81.9298C84.7954 81.9298 85.0927 81.7175 85.0927 81.2928C85.0927 80.5283 84.8378 80.146 84.3282 80.146ZM74.8994 71.864C74.7295 71.6941 74.5172 71.5667 74.2623 71.4817C74.1774 71.7366 74.05 72.0339 73.8801 72.3736C74.1349 72.3736 74.4747 72.3312 74.8994 72.2462V71.864ZM65.3432 64.9835L65.598 65.1109C65.7679 65.1959 65.8953 65.2384 65.9803 65.2384C66.7448 64.8136 67.1695 64.4314 67.2544 64.0916L67.5093 64.4739H67.2544L66.8722 64.3464C66.7023 64.2615 66.5324 64.219 66.3625 64.219C66.1926 64.304 65.8529 64.4739 65.3432 64.7287V64.9835ZM95.0311 101.17L93.2473 102.189H93.6295C94.2242 102.019 94.6913 101.807 95.0311 101.552V101.17ZM84.0733 95.1811C84.3282 95.0112 84.6255 94.7564 84.9653 94.4166V94.1618L84.583 94.0344L84.3282 94.1618C84.0733 94.4166 83.9459 94.629 83.9459 94.7988V95.0537L84.0733 95.1811ZM64.7061 78.7444L64.4513 78.8719L64.3239 78.9993C64.5787 79.2541 64.8335 79.3815 65.0884 79.3815C65.598 79.3815 65.9378 79.2116 66.1077 78.8719L66.2351 79.2541C65.8104 79.339 65.3007 79.1692 64.7061 78.7444ZM74.6446 87.9184L72.8607 88.4281C72.9457 88.6829 73.0731 88.8103 73.243 88.8103C74.0075 88.6404 74.5596 88.4281 74.8994 88.1732L74.6446 87.9184ZM57.9531 73.7752C58.2929 73.7752 58.5902 73.7327 58.845 73.6478L58.9724 74.2849C58.8025 74.2849 58.4627 74.115 57.9531 73.7752ZM57.9531 73.7752L57.5708 73.5204L57.4434 73.393L57.0612 73.7752H57.9531ZM91.2086 112.892L91.3361 113.019C91.421 113.104 91.5059 113.147 91.5909 113.147C91.8457 113.147 92.3129 112.892 92.9925 112.382C92.9075 111.958 92.6952 111.533 92.3554 111.108C92.0156 111.278 91.6334 111.533 91.2086 111.873V112.892ZM84.3282 107.668L83.9459 108.05H84.3282C84.583 108.05 84.7954 107.965 84.9653 107.795C84.7954 107.795 84.583 107.753 84.3282 107.668ZM75.2816 101.17C74.687 100.66 74.2623 100.405 74.0075 100.405C73.158 100.405 72.7333 100.745 72.7333 101.424C72.7333 101.849 73.158 102.062 74.0075 102.062C74.3473 102.062 74.772 101.934 75.2816 101.679V101.17ZM61.1385 92.2505L61.2659 92.3779C61.5207 92.293 61.9454 92.1231 62.5401 91.8683C62.5401 90.849 62.1578 90.3818 61.3933 90.4667L61.5207 89.957C61.8605 90.2119 62.1578 90.6791 62.4126 91.3586V91.6134H62.1578C62.2428 91.7833 62.2428 91.8683 62.1578 91.8683C61.818 91.9532 61.5207 91.9108 61.2659 91.7409L61.1385 91.9957V92.2505ZM51.8371 84.0959H51.9645C52.1344 84.1809 52.2618 84.2233 52.3468 84.2233C52.5167 84.2233 52.6441 84.1809 52.729 84.0959L52.9839 83.8411V83.7137L52.0919 83.4588L51.8371 83.7137V84.0959ZM71.9688 116.842C71.714 117.012 71.5016 117.267 71.3318 117.606C71.5016 117.776 71.8414 117.861 72.3511 117.861V116.842H71.9688ZM48.3969 94.4166H47.8872L47.505 94.7988C47.3351 95.0537 47.1227 95.1811 46.8679 95.1811C46.698 95.0112 46.6131 94.8838 46.6131 94.7988L46.4856 94.544C46.4856 94.4591 46.4432 94.3741 46.3582 94.2892L46.8679 94.0344C46.8679 94.1193 46.8254 94.2892 46.7405 94.544C46.6555 94.7988 46.6131 94.9687 46.6131 95.0537C46.6131 95.5633 46.8679 95.8182 47.3776 95.8182C48.1421 95.8182 48.5243 95.5633 48.5243 95.0537C48.5243 94.8838 48.4818 94.7139 48.3969 94.544V94.4166ZM63.9416 109.324H63.6868C63.347 109.834 62.9223 110.216 62.4126 110.471L61.7756 109.961C61.4358 110.131 61.2234 110.344 61.1385 110.598C61.5632 110.938 61.903 111.108 62.1578 111.108C63.5169 111.108 64.1965 110.811 64.1965 110.216C64.1965 110.131 64.154 110.004 64.069 109.834C63.9841 109.579 63.9416 109.409 63.9416 109.324ZM53.2387 101.807H53.1113V102.316C53.4511 102.486 53.7484 102.571 54.0032 102.571C54.258 102.571 54.5128 102.486 54.7677 102.316V101.552C54.6827 101.552 54.5553 101.637 54.3854 101.807L54.1306 101.552C54.1306 101.722 54.0457 101.849 53.8758 101.934L53.2387 101.807ZM61.6481 120.537C61.5632 120.622 61.5207 120.749 61.5207 120.919L61.3933 121.047L62.0304 121.174L62.1578 120.537C62.0729 120.452 61.9879 120.452 61.903 120.537H61.6481ZM46.3582 109.579C46.3582 110.344 46.698 110.726 47.3776 110.726C47.5474 110.641 47.8872 110.344 48.3969 109.834C48.227 109.664 48.0571 109.537 47.8872 109.452C47.5474 109.961 47.2077 110.216 46.8679 110.216C46.6131 110.046 46.4432 109.834 46.3582 109.579ZM54.1306 116.969H54.0032L53.8758 116.842H53.7484C53.6634 116.672 53.536 116.587 53.3661 116.587C53.1962 116.672 52.9839 116.842 52.729 117.097L52.8564 117.224H52.9839L53.1113 117.351H54.0032L54.1306 116.969Z" fill="#4D0803"/>
</svg>
