<svg width="104" height="81" viewBox="0 0 104 81" fill="none" xmlns="http://www.w3.org/2000/svg">
<rect x="13" y="66.0004" width="14" height="14" rx="7" fill="#4D0803" stroke="#4D0803"/>
<rect x="51" y="66.0004" width="14" height="14" rx="7" fill="#4D0803" stroke="#4D0803"/>
<path d="M73.5 24.5004L5 24.5004L19.8878 58.5004H40.2755H60.6633L73.5 24.5004Z" stroke="#4D0803" stroke-width="10" stroke-miterlimit="3.8637" stroke-linejoin="round"/>
<path d="M80 7.00041L79.4766 2.02788L76.2747 2.36492L75.2566 5.41927L80 7.00041ZM99.5234 9.97294C102.27 9.68386 104.262 7.22324 103.973 4.47699C103.683 1.73074 101.223 -0.261194 98.4766 0.027885L99 5.00041L99.5234 9.97294ZM76.5 17.5004L81.2434 19.0816L84.7434 8.58155L80 7.00041L75.2566 5.41927L71.7566 15.9193L76.5 17.5004ZM80 7.00041L80.5234 11.9729L99.5234 9.97294L99 5.00041L98.4766 0.027885L79.4766 2.02788L80 7.00041Z" fill="#4D0803"/>
</svg>
