<svg width="153" height="153" viewBox="0 0 153 153" fill="none" xmlns="http://www.w3.org/2000/svg">
<g filter="url(#filter0_d_55_36)">
<circle cx="75.7733" cy="75.2578" r="75" fill="#F9F6EF"/>
<circle cx="75.7733" cy="75.2578" r="60.4375" fill="#F9F6EF" stroke="#F576A7"/>
<path d="M93.8293 50.5458C94.2133 50.5458 95.3653 50.1297 97.2853 49.2977C99.2693 48.4657 100.709 48.0498 101.605 48.0498C102.053 48.1138 103.269 48.2417 105.253 48.4337C106.789 48.5617 108.901 49.5857 111.589 51.5057C112.229 52.0817 113.061 52.7857 114.085 53.6177C114.405 53.8737 114.629 54.3537 114.757 55.0577C114.757 55.2497 114.821 55.4737 114.949 55.7297L109.957 58.2257L101.029 59.3777C99.7493 59.1217 99.0453 58.9938 98.9173 58.9938C99.7493 59.6977 100.901 60.8177 102.373 62.3538L103.237 64.8497C103.493 65.1697 103.845 65.6817 104.293 66.3857L104.581 67.8258L105.829 70.7058C105.829 71.5378 105.541 71.9537 104.965 71.9537H104.677L104.485 72.0498H104.101L101.413 68.9778C101.541 69.5538 101.733 70.3538 101.989 71.3778C102.053 72.0178 102.213 72.8818 102.469 73.9697C103.173 75.6337 103.525 76.3698 103.525 76.1778C103.525 76.3698 103.205 76.9138 102.565 77.8098C102.437 77.9378 102.309 78.1618 102.181 78.4818C101.989 78.3538 101.765 78.1618 101.509 77.9058L101.413 77.7137L101.317 77.6178C101.253 78.9618 100.933 80.9138 100.357 83.4738C99.7173 84.4338 98.5973 86.2258 96.9973 88.8498C95.2053 92.0498 93.2853 94.6098 91.2373 96.5298C89.1893 98.3858 87.0773 100.274 84.9013 102.194L84.4213 102.674C84.0373 102.994 82.1813 103.922 78.8533 105.458C78.4693 105.714 77.7653 106.13 76.7413 106.706C76.2933 106.706 75.6213 106.802 74.7253 106.994L74.3413 107.186C71.7813 108.466 67.7493 109.042 62.2453 108.914C61.9893 108.914 61.6373 108.946 61.1893 109.01C60.7413 109.074 60.4213 109.106 60.2293 109.106C58.3093 109.106 56.9653 108.978 56.1973 108.722L55.9093 108.626H55.7173C54.6293 108.626 52.9653 108.306 50.7253 107.666C49.9573 107.474 49.0293 107.058 47.9413 106.418C47.3653 105.778 46.5333 104.466 45.4453 102.482C45.1893 102.034 44.8693 100.626 44.4853 98.2578C44.1013 95.8258 43.9093 94.2578 43.9093 93.5538C43.9093 91.3778 44.1653 89.1698 44.6773 86.9298C44.8693 86.1618 45.5733 83.8898 46.7893 80.1138C47.1733 78.4498 47.5253 76.7858 47.8453 75.1218C48.3573 72.8817 48.9973 71.3777 49.7653 70.6097L49.9573 70.4177C50.4693 69.3298 51.1093 68.1138 51.8773 66.7698C53.4133 64.0818 56.1333 60.9458 60.0373 57.3617C59.7813 57.0417 59.7173 56.5297 59.8453 55.8257C59.9733 55.1857 60.1973 54.7057 60.5173 54.3857C62.1173 52.7857 64.1333 51.4737 66.5653 50.4497C68.1013 49.8737 70.3733 48.9457 73.3813 47.6658C72.8693 47.4097 71.7813 46.9937 70.1173 46.4177C69.4133 46.1617 68.1333 45.6817 66.2773 44.9778L66.0853 44.7857C66.0213 44.7217 65.9893 44.5937 65.9893 44.4017C65.9893 43.8897 66.5653 43.4738 67.7173 43.1538V42.9617C67.7813 42.7697 67.8773 42.6097 68.0053 42.4817C69.3493 42.0338 70.4693 41.8098 71.3653 41.8098C73.2213 41.8098 74.4373 41.8738 75.0133 42.0017C75.5893 42.3857 76.2613 42.8017 77.0293 43.2498C77.0933 43.1858 77.2213 43.1538 77.4133 43.1538C78.1173 43.1538 78.8853 43.4738 79.7173 44.1138C80.8053 44.8817 81.4773 45.3297 81.7333 45.4578C83.1413 46.0338 84.6773 46.9618 86.3413 48.2417L90.6613 51.5057C91.6213 50.3538 92.1013 49.4258 92.1013 48.7217C92.1013 47.6978 91.7173 46.7057 90.9493 45.7457C90.2453 44.7217 89.4133 44.2097 88.4533 44.2097H84.2293C83.4613 44.2097 82.6933 43.4097 81.9253 41.8098C81.8613 41.6178 81.8293 41.4257 81.8293 41.2337C81.8293 40.9137 81.9253 40.5617 82.1173 40.1777H83.1733C83.1093 41.9058 83.9093 42.7698 85.5733 42.7698C88.3253 42.7698 90.0853 42.8978 90.8533 43.1538C93.0293 43.8577 94.0853 45.5217 94.0213 48.1458C94.0213 48.3377 93.9893 48.6577 93.9253 49.1057C93.8613 49.4897 93.8293 49.7777 93.8293 49.9697V50.5458ZM113.029 54.7698C111.045 52.4018 109.157 51.2178 107.365 51.2178C105.125 51.2178 103.685 51.5057 103.045 52.0817C104.773 52.4657 107.877 53.3297 112.357 54.6737L112.645 54.7698H113.029ZM107.173 55.1537L106.309 54.7698L106.501 55.2498C107.013 56.2097 107.621 56.6897 108.325 56.6897C108.453 56.6897 108.581 56.6577 108.709 56.5938L108.805 56.4977C108.869 56.4337 108.997 56.4017 109.189 56.4017L109.573 56.8817C109.765 56.8817 110.309 56.5937 111.205 56.0177C110.373 55.9537 109.029 55.6657 107.173 55.1537ZM106.597 50.1617C106.533 50.0977 106.501 50.0337 106.501 49.9697C104.773 49.7137 103.237 49.5857 101.893 49.5857C100.101 49.5857 98.8213 50.2577 98.0533 51.6017C98.6933 51.6657 99.3973 51.6978 100.165 51.6978C100.613 51.6978 101.669 51.4417 103.333 50.9297C104.997 50.3537 106.181 50.0337 106.885 49.9697L106.789 50.3538L106.597 50.1617ZM96.0373 51.2178C96.2933 51.2817 96.4853 51.3457 96.6133 51.4097C96.7413 51.2177 96.8373 51.0577 96.9013 50.9297C96.6453 50.9937 96.3573 51.0898 96.0373 51.2178ZM104.773 54.1937C103.237 53.5538 102.213 53.2338 101.701 53.2338C101.573 53.2338 101.477 53.2978 101.413 53.4258H101.317C101.189 53.6178 101.029 53.7137 100.837 53.7137C100.325 53.7137 99.5573 53.6178 98.5333 53.4258C97.5733 53.1698 96.8373 53.0417 96.3253 53.0417C95.8133 53.0417 95.4933 53.1058 95.3653 53.2338C94.2133 54.0017 93.6373 54.7378 93.6373 55.4418C93.6373 55.9537 93.7973 56.3057 94.1173 56.4977C95.1413 57.1377 96.1013 57.4578 96.9973 57.4578H97.7653C97.5733 56.7537 97.4773 56.1137 97.4773 55.5377C97.4773 54.5137 97.8293 53.8097 98.5333 53.4258C98.7893 53.6817 98.9173 54.0337 98.9173 54.4817C98.9173 54.6737 98.8853 54.9938 98.8213 55.4418C98.7573 55.8898 98.7253 56.2098 98.7253 56.4017C98.7253 57.3617 99.3653 57.8417 100.645 57.8417C100.453 57.8417 100.965 57.8097 102.181 57.7457C101.669 56.5297 101.413 55.6017 101.413 54.9617C101.413 54.0017 101.733 53.3937 102.373 53.1377C102.757 53.5217 102.885 53.8418 102.757 54.0978C102.629 54.2257 102.565 54.3857 102.565 54.5778C102.565 54.9617 102.661 55.4417 102.853 56.0177C103.045 57.0417 103.397 57.5537 103.909 57.5537C104.037 57.5537 104.229 57.4897 104.485 57.3617C104.805 57.2337 105.029 57.1697 105.157 57.1697C105.285 57.1697 105.509 57.2337 105.829 57.3617C106.085 57.4257 106.373 57.4257 106.693 57.3617C105.541 56.4017 104.901 55.3457 104.773 54.1937ZM92.3893 54.6737C92.4533 54.2257 92.7413 53.6177 93.2533 52.8497C92.6133 53.4257 92.2933 53.9697 92.2933 54.4817C92.2933 54.5457 92.3253 54.6097 92.3893 54.6737ZM101.893 65.1377L101.989 64.9458L102.277 65.5217L102.085 65.8097L101.701 65.0417L101.893 65.1377ZM78.8533 55.2498C78.8533 55.3778 78.7893 55.5057 78.6613 55.6337C78.4053 55.5057 78.1493 55.2817 77.8933 54.9617C77.8293 54.8337 77.7333 54.7378 77.6053 54.6737C77.0933 54.6737 74.6933 55.2177 70.4053 56.3058C68.8693 56.6897 67.3333 57.0737 65.7973 57.4578C63.8133 57.9697 62.4053 58.6097 61.5733 59.3777C59.7813 60.9137 57.5413 63.3778 54.8533 66.7698C51.3973 71.1217 49.7973 74.0977 50.0533 75.6978C50.1173 75.9538 49.9253 76.6258 49.4773 77.7137C48.9653 78.9938 48.6773 79.7298 48.6133 79.9218C48.5493 80.3698 48.1653 81.2658 47.4613 82.6098C47.0773 84.9138 46.4053 88.3058 45.4453 92.7858L45.2533 93.2658V93.5538C45.2533 94.6418 45.4453 96.1458 45.8293 98.0658C46.5973 101.714 47.6533 104.146 48.9973 105.362C49.7013 106.002 50.8213 106.45 52.3573 106.706C53.1893 106.834 54.4373 107.026 56.1013 107.282L57.0613 107.474C57.1893 107.538 57.3493 107.57 57.5413 107.57H64.4533C67.9733 107.57 71.8773 106.738 76.1653 105.074C77.3813 104.626 78.8213 103.986 80.4853 103.154C80.9333 102.77 81.6053 102.322 82.5013 101.81C83.9733 101.106 85.2853 100.306 86.4373 99.4098C88.6133 97.6178 91.8453 93.5858 96.1333 87.3138C97.2853 85.5858 97.9893 84.3698 98.2453 83.6658C98.6933 82.6418 99.1093 81.2658 99.4933 79.5378L99.8773 79.7298C98.8533 81.1378 98.0533 81.8418 97.4773 81.8418C97.2213 81.8418 96.9333 81.7138 96.6133 81.4578C96.2933 81.1378 96.1333 80.8498 96.1333 80.5938C96.1333 80.1458 96.2613 79.5378 96.5173 78.7698C96.7733 77.9378 96.9013 77.3298 96.9013 76.9457C96.9013 76.7538 96.7413 74.5778 96.4213 70.4177C96.3573 69.5858 96.0693 68.9778 95.5573 68.5938C95.0453 68.4657 94.3413 68.2098 93.4453 67.8258C92.8693 67.3778 92.1653 66.8658 91.3333 66.2898C89.9253 65.7778 88.4853 65.5217 87.0133 65.5217C86.6933 65.5217 85.7013 66.3217 84.0373 67.9218C82.4373 69.4577 81.4133 70.2257 80.9653 70.2257C80.7733 70.2257 80.4853 70.0337 80.1013 69.6498V68.6897C80.1013 68.2417 80.2293 67.7617 80.4853 67.2498C80.7413 66.6737 80.8693 66.3217 80.8693 66.1937C81.1253 64.8497 81.2533 63.2177 81.2533 61.2977V60.1458C81.2533 58.7377 80.7733 57.6817 79.8133 56.9778C79.7493 56.4018 79.4293 55.8258 78.8533 55.2498ZM92.8693 72.0498C91.5253 72.0498 90.8533 71.5698 90.8533 70.6097C90.8533 70.0978 91.0773 69.5858 91.5253 69.0737C91.9733 68.4977 92.4533 68.2097 92.9653 68.2097C93.4133 68.2097 93.9253 68.4657 94.5013 68.9778C95.1413 69.4897 95.4613 69.9697 95.4613 70.4177C95.4613 71.5058 94.5973 72.0498 92.8693 72.0498ZM88.5493 71.3778C87.0133 72.0817 86.2453 72.4657 86.2453 72.5298C86.1173 72.5298 85.4453 72.1778 84.2293 71.4738V71.1858C84.1013 70.8658 84.0373 70.6098 84.0373 70.4177C84.0373 69.9058 84.3253 69.4258 84.9013 68.9778C85.4773 68.4657 86.0213 68.2097 86.5333 68.2097C86.7893 68.2097 87.2693 68.3697 87.9733 68.6897C88.7413 69.0098 89.1573 69.2658 89.2213 69.4578C89.2213 69.6497 88.9973 70.2898 88.5493 71.3778ZM94.7893 79.9218C94.3413 80.2418 93.7653 80.4018 93.0613 80.4018C91.7813 80.4018 91.1413 79.7298 91.1413 78.3857C91.1413 77.1058 92.0373 76.4658 93.8293 76.4658C94.1493 76.4658 94.5333 76.8498 94.9813 77.6178C95.4933 78.3858 95.7493 78.9298 95.7493 79.2498L94.7893 79.9218ZM71.3653 60.8177C70.7893 60.8177 70.3093 60.4978 69.9253 59.8578C69.5413 59.2177 69.4453 58.6417 69.6373 58.1298C70.5333 57.4897 71.4293 57.1697 72.3253 57.1697C73.4133 57.1697 73.8933 58.0657 73.7653 59.8578C72.4853 60.4978 71.6853 60.8177 71.3653 60.8177ZM75.7813 65.6178C74.5013 65.6178 73.8613 64.8498 73.8613 63.3137C73.8613 62.8018 74.1493 62.3858 74.7253 62.0658C75.3653 61.6818 75.9413 61.4897 76.4533 61.4897C77.9253 61.4897 78.6613 62.1298 78.6613 63.4098C78.6613 64.8818 77.7013 65.6178 75.7813 65.6178ZM91.8133 86.7378C90.2773 86.7378 89.5093 86.0978 89.5093 84.8178C89.5093 83.3458 90.0853 82.6098 91.2373 82.6098C91.6853 82.6098 92.2293 82.9298 92.8693 83.5698C93.5093 84.1458 93.8293 84.6578 93.8293 85.1058C93.8293 86.1938 93.1573 86.7378 91.8133 86.7378ZM83.7493 81.8418C81.8933 81.8418 80.9653 81.1058 80.9653 79.6338C80.9653 78.2898 81.8293 77.6178 83.5573 77.6178C83.9413 77.6178 84.2293 77.6498 84.4213 77.7137C84.6773 78.1617 84.9333 78.5138 85.1893 78.7698L85.3813 78.9618C85.7013 79.1538 85.8613 79.5378 85.8613 80.1138C85.8613 81.2658 85.1573 81.8418 83.7493 81.8418ZM76.1653 77.2338C74.9493 77.2338 74.3413 76.4978 74.3413 75.0258C74.3413 74.6418 74.5333 74.1618 74.9173 73.5858C75.3653 72.9458 75.7813 72.6257 76.1653 72.6257C77.8293 72.6257 78.6613 73.5217 78.6613 75.3138C78.6613 76.5938 77.8293 77.2338 76.1653 77.2338ZM68.5813 70.2257C68.1333 70.2257 67.6853 69.9697 67.2373 69.4578C66.8533 68.8818 66.6613 68.3698 66.6613 67.9218C66.6613 67.0897 67.4613 66.3537 69.0613 65.7137C70.4693 66.6097 71.1733 67.5378 71.1733 68.4978C71.1733 68.8178 70.8213 69.2018 70.1173 69.6498C69.4133 70.0337 68.9013 70.2257 68.5813 70.2257ZM63.3013 64.3698C61.6373 64.3698 60.8053 63.7297 60.8053 62.4497C60.8053 61.4257 61.4773 60.9137 62.8213 60.9137C64.1013 60.9137 64.8693 61.3937 65.1253 62.3538C65.1893 62.2257 65.2853 62.1617 65.4133 62.1617C65.6693 62.0978 65.7973 62.2898 65.7973 62.7378C65.7973 63.8258 64.9653 64.3698 63.3013 64.3698ZM83.6533 92.5938C82.5653 92.5938 82.0213 92.0818 82.0213 91.0578C82.0213 89.2018 82.7893 88.2738 84.3253 88.2738C84.9013 88.2738 85.4133 88.6578 85.8613 89.4258C86.3093 90.1938 86.4373 90.8658 86.2453 91.4418C85.3493 92.2098 84.4853 92.5938 83.6533 92.5938ZM78.0853 86.5458C77.6373 86.8658 77.1893 87.0258 76.7413 87.0258C75.5253 87.0258 74.9173 86.2898 74.9173 84.8178C74.9173 84.4338 75.1733 84.0818 75.6853 83.7618C76.2613 83.3778 76.7413 83.1858 77.1253 83.1858C78.2133 83.1858 78.7573 83.7298 78.7573 84.8178C78.7573 85.3938 78.5333 85.9698 78.0853 86.5458ZM64.1653 75.2178C63.5253 75.7938 62.8213 76.0818 62.0533 76.0818C61.5413 76.0818 61.0613 75.7938 60.6133 75.2178C60.1653 74.6418 59.9413 74.0978 59.9413 73.5858C59.9413 72.0498 60.8693 71.2817 62.7253 71.2817C63.1733 71.2817 63.6853 71.5378 64.2613 72.0498C64.8373 72.4978 65.1253 72.9458 65.1253 73.3938C65.1253 73.9698 64.8053 74.5778 64.1653 75.2178ZM68.9653 82.1298H68.3893C67.0453 82.1298 66.3733 81.4898 66.3733 80.2098C66.3733 79.7618 66.6293 79.3458 67.1413 78.9618C67.6533 78.5138 68.1333 78.2898 68.5813 78.2898C69.2213 78.2898 69.7973 78.4818 70.3093 78.8658C70.9493 79.4418 71.2693 79.9858 71.2693 80.4978C71.2693 81.1378 70.5013 81.6818 68.9653 82.1298ZM56.8693 71.4738H57.0613L57.1573 71.5697C57.2213 71.6977 57.2533 71.9857 57.2533 72.4337C57.1253 72.3057 56.8373 72.1137 56.3893 71.8578C56.2613 71.7298 55.8773 71.3778 55.2373 70.8018C54.9173 70.4818 54.7573 70.0658 54.7573 69.5537C54.7573 69.1698 54.9173 68.7858 55.2373 68.4017C56.3253 67.8257 57.1573 67.5377 57.7333 67.5377C57.9253 67.5377 58.1493 67.6337 58.4053 67.8258L58.6933 68.1138C59.3333 68.6257 59.6533 69.1057 59.6533 69.5537C59.6533 70.0658 59.3013 70.5458 58.5973 70.9938C57.8933 71.3777 57.3173 71.5377 56.8693 71.4738ZM82.4053 100.754C80.8693 100.754 80.1013 99.9538 80.1013 98.3538C80.1013 97.8418 80.4213 97.3938 81.0613 97.0098C81.7013 96.6258 82.2773 96.4338 82.7893 96.4338C84.0693 96.4338 84.7093 97.1378 84.7093 98.5458C84.7093 99.0578 84.4533 99.5378 83.9413 99.9858C83.4293 100.498 82.9173 100.754 82.4053 100.754ZM76.3573 96.6258C76.2933 96.7538 76.1653 96.8178 75.9733 96.8178C75.2693 96.8178 74.9173 96.3378 74.9173 95.3778C74.9173 94.1618 75.6533 93.5538 77.1253 93.5538C78.4053 93.5538 79.0453 94.0978 79.0453 95.1858C79.0453 95.5058 78.8213 95.8258 78.3733 96.1458C77.9253 96.4658 77.5093 96.6258 77.1253 96.6258H76.3573ZM69.9253 92.3058C67.6853 92.3058 66.5653 91.6658 66.5653 90.3858C66.5653 89.8098 66.8533 89.2338 67.4293 88.6578C68.0053 88.0178 68.5813 87.6978 69.1573 87.6978C69.6693 87.6978 70.2133 88.0178 70.7893 88.6578C71.4293 89.2978 71.7493 89.8738 71.7493 90.3858C71.7493 90.7058 71.5253 91.1218 71.0773 91.6338C70.6293 92.0818 70.2453 92.3058 69.9253 92.3058ZM61.8613 82.8978L61.7653 83.1858C61.7013 83.3778 61.7013 83.6978 61.7653 84.1458L61.1893 84.3378C60.4213 84.7218 59.9413 84.9138 59.7493 84.9138C58.2133 84.9138 57.4453 84.1778 57.4453 82.7058C57.4453 82.1938 57.6373 81.7138 58.0213 81.2658C58.4693 80.7538 58.9173 80.4978 59.3653 80.4978C59.8773 80.4978 60.4213 80.7218 60.9973 81.1698C61.5733 81.6178 61.8613 82.0978 61.8613 82.6098V82.8978ZM54.3733 75.9858C54.4373 75.9218 54.5333 75.8578 54.6613 75.7938L55.3333 76.3698C55.1413 76.8818 54.8853 77.6178 54.5653 78.5778C53.6053 79.0258 53.0293 79.2498 52.8373 79.2498C51.3013 79.2498 50.5333 78.5138 50.5333 77.0417C50.5333 75.7618 51.1733 75.1218 52.4533 75.1218C53.0933 75.1218 53.5733 75.2818 53.8933 75.6017C54.0213 75.6658 54.1813 75.7938 54.3733 75.9858ZM67.9093 104.21C67.2693 104.21 66.3733 103.89 65.2213 103.25C65.6053 101.266 66.1813 100.274 66.9493 100.274C67.5893 100.274 68.2293 100.466 68.8693 100.85C69.5093 101.298 69.8293 101.842 69.8293 102.482C69.8293 102.866 69.6053 103.25 69.1573 103.634C68.7093 104.018 68.2933 104.21 67.9093 104.21ZM49.1893 83.6658C49.3173 83.6018 49.4773 83.5698 49.6693 83.5698C50.5653 83.5698 51.0133 84.2098 51.0133 85.4898C51.0133 86.7058 50.2133 87.3138 48.6133 87.3138C47.7173 87.3138 47.2693 86.6098 47.2693 85.2018C47.2693 84.6258 47.6533 83.9538 48.4213 83.1858C48.7413 83.1858 48.9973 83.3458 49.1893 83.6658ZM63.3013 96.5298L63.0133 96.8178L62.9173 97.0098C62.5973 98.3538 61.6373 99.0258 60.0373 99.0258C58.5013 99.0258 57.7333 98.3538 57.7333 97.0098C57.7333 96.4978 58.1493 96.0178 58.9813 95.5698C59.8133 95.1218 60.5173 94.8978 61.0933 94.8978C62.1813 94.8978 63.0133 95.2498 63.5893 95.9538C63.5893 96.2098 63.4933 96.4018 63.3013 96.5298ZM53.9893 92.5938H53.4133C52.3253 92.5938 51.7813 91.9858 51.7813 90.7698C51.7813 89.6818 52.5813 88.9138 54.1813 88.4658H54.8533C55.4933 90.0018 55.8133 90.8338 55.8133 90.9618C55.8133 92.0498 55.2053 92.5938 53.9893 92.5938ZM60.9973 106.226C60.6773 106.482 60.2293 106.61 59.6533 106.61C58.2453 106.61 57.5413 105.97 57.5413 104.69C57.5413 103.474 58.1813 102.866 59.4613 102.866C60.1653 102.866 60.7413 103.218 61.1893 103.922C61.3173 104.178 61.5733 104.498 61.9573 104.882V105.746C61.7013 105.874 61.3813 106.034 60.9973 106.226ZM48.9973 98.5458C47.6533 98.5458 46.9813 97.8738 46.9813 96.5298C46.9813 96.0178 47.2373 95.5378 47.7493 95.0898C48.2613 94.6418 48.7733 94.4178 49.2853 94.4178C49.6693 94.4178 50.0533 94.7058 50.4373 95.2818C50.8213 95.7938 51.0133 96.2418 51.0133 96.6258C51.0133 97.0738 50.7893 97.5218 50.3413 97.9698C49.8933 98.3538 49.4453 98.5458 48.9973 98.5458ZM53.4133 103.826C52.1333 103.826 51.4933 103.282 51.4933 102.194C51.4933 102.066 51.5253 101.874 51.5893 101.618L51.6853 101.426V101.138C53.0933 100.562 53.9573 100.274 54.2773 100.274C55.1093 100.274 55.5253 100.818 55.5253 101.906C55.5253 103.186 54.8213 103.826 53.4133 103.826ZM93.6373 70.2257L93.2533 69.9377H92.7733C92.7093 70.0658 92.7093 70.1617 92.7733 70.2257V70.5138L93.6373 70.4177V70.2257ZM87.0133 70.0338L86.6293 70.4177C86.2453 70.2257 85.9573 70.0978 85.7653 70.0338V70.1298C85.7013 70.1937 85.6053 70.3537 85.4773 70.6097L85.5733 70.7058H86.1493C86.3413 70.7058 86.6613 70.5138 87.1093 70.1298L87.0133 70.0338ZM92.7733 78.9618H92.8693C92.9973 79.0258 93.0933 79.0578 93.1573 79.0578C93.3493 79.0578 93.6053 78.9938 93.9253 78.8658V78.5778L93.5413 78.1938V78.2898C93.4773 78.5458 93.3813 78.7058 93.2533 78.7698C93.0613 78.7698 92.8693 78.7378 92.6773 78.6738L92.7733 78.9618ZM71.2693 58.8018V58.8977C71.3333 58.8977 71.3973 58.8657 71.4613 58.8018H71.2693ZM76.7413 63.5057C76.4853 63.6977 76.2933 63.9217 76.1653 64.1777H76.3573L76.4533 64.0818L76.6453 63.9857L76.8373 63.7937L76.7413 63.5057ZM91.5253 84.4338C91.5893 84.4338 91.6213 84.4658 91.6213 84.5298H91.2373C91.1733 84.5298 91.1093 84.5618 91.0453 84.6258L90.8533 84.7218V85.0098C91.1093 85.2658 91.3653 85.3938 91.6213 85.3938C91.7493 85.3298 91.8773 85.2978 92.0053 85.2978L92.1013 85.2018C91.7173 84.9458 91.5253 84.6898 91.5253 84.4338ZM84.3253 80.0178C84.0693 79.5698 83.9093 79.3458 83.8453 79.3458C83.5253 79.4098 83.0773 79.6338 82.5013 80.0178V80.2098C82.8213 80.2738 83.1093 80.3058 83.3653 80.3058C83.6853 80.3058 84.0053 80.2738 84.3253 80.2098V80.0178ZM76.7413 74.2578C76.4213 74.4498 76.1013 74.7378 75.7813 75.1218C76.1013 75.4418 76.3893 75.6017 76.6453 75.6017C77.0933 75.6017 77.3173 75.4418 77.3173 75.1218C77.3173 74.5458 77.1253 74.2578 76.7413 74.2578ZM69.6373 68.0177C69.5093 67.8898 69.3493 67.7938 69.1573 67.7297C69.0933 67.9217 68.9973 68.1457 68.8693 68.4017C69.0613 68.4017 69.3173 68.3698 69.6373 68.3058V68.0177ZM62.4373 62.8337L62.6293 62.9297C62.7573 62.9937 62.8533 63.0258 62.9173 63.0258C63.4933 62.7058 63.8133 62.4178 63.8773 62.1617L64.0693 62.4497H63.8773L63.5893 62.3538C63.4613 62.2897 63.3333 62.2577 63.2053 62.2577C63.0773 62.3217 62.8213 62.4497 62.4373 62.6417V62.8337ZM84.8053 90.0978L83.4613 90.8658H83.7493C84.1973 90.7378 84.5493 90.5778 84.8053 90.3858V90.0978ZM76.5493 85.5858C76.7413 85.4578 76.9653 85.2658 77.2213 85.0098V84.8178L76.9333 84.7218L76.7413 84.8178C76.5493 85.0098 76.4533 85.1698 76.4533 85.2978V85.4898L76.5493 85.5858ZM61.9573 73.2018L61.7653 73.2977L61.6693 73.3938C61.8613 73.5858 62.0533 73.6818 62.2453 73.6818C62.6293 73.6818 62.8853 73.5538 63.0133 73.2977L63.1093 73.5858C62.7893 73.6498 62.4053 73.5218 61.9573 73.2018ZM69.4453 80.1138L68.1013 80.4978C68.1653 80.6898 68.2613 80.7858 68.3893 80.7858C68.9653 80.6578 69.3813 80.4978 69.6373 80.3058L69.4453 80.1138ZM56.8693 69.4578C57.1253 69.4578 57.3493 69.4257 57.5413 69.3617L57.6373 69.8418C57.5093 69.8418 57.2533 69.7138 56.8693 69.4578ZM56.8693 69.4578L56.5813 69.2657L56.4853 69.1698L56.1973 69.4578H56.8693ZM81.9253 98.9298L82.0213 99.0258C82.0853 99.0898 82.1493 99.1218 82.2133 99.1218C82.4053 99.1218 82.7573 98.9298 83.2693 98.5458C83.2053 98.2258 83.0453 97.9058 82.7893 97.5858C82.5333 97.7138 82.2453 97.9058 81.9253 98.1618V98.9298ZM76.7413 94.9938L76.4533 95.2818H76.7413C76.9333 95.2818 77.0933 95.2178 77.2213 95.0898C77.0933 95.0898 76.9333 95.0578 76.7413 94.9938ZM69.9253 90.0978C69.4773 89.7138 69.1573 89.5218 68.9653 89.5218C68.3253 89.5218 68.0053 89.7778 68.0053 90.2898C68.0053 90.6098 68.3253 90.7698 68.9653 90.7698C69.2213 90.7698 69.5413 90.6738 69.9253 90.4818V90.0978ZM59.2693 83.3778L59.3653 83.4738C59.5573 83.4098 59.8773 83.2818 60.3253 83.0898C60.3253 82.3218 60.0373 81.9698 59.4613 82.0338L59.5573 81.6498C59.8133 81.8418 60.0373 82.1938 60.2293 82.7058V82.8978H60.0373C60.1013 83.0258 60.1013 83.0898 60.0373 83.0898C59.7813 83.1538 59.5573 83.1218 59.3653 82.9938L59.2693 83.1858V83.3778ZM52.2613 77.2338H52.3573C52.4853 77.2978 52.5813 77.3298 52.6453 77.3298C52.7733 77.3298 52.8693 77.2978 52.9333 77.2338L53.1253 77.0417V76.9457L52.4533 76.7538L52.2613 76.9457V77.2338ZM67.4293 101.906C67.2373 102.034 67.0773 102.226 66.9493 102.482C67.0773 102.61 67.3333 102.674 67.7173 102.674V101.906H67.4293ZM49.6693 85.0098H49.2853L48.9973 85.2978C48.8693 85.4898 48.7093 85.5858 48.5173 85.5858C48.3893 85.4578 48.3253 85.3618 48.3253 85.2978L48.2293 85.1058C48.2293 85.0418 48.1973 84.9778 48.1333 84.9138L48.5173 84.7218C48.5173 84.7858 48.4853 84.9138 48.4213 85.1058C48.3573 85.2978 48.3253 85.4258 48.3253 85.4898C48.3253 85.8738 48.5173 86.0658 48.9013 86.0658C49.4773 86.0658 49.7653 85.8738 49.7653 85.4898C49.7653 85.3618 49.7333 85.2338 49.6693 85.1058V85.0098ZM61.3813 96.2418H61.1893C60.9333 96.6258 60.6133 96.9138 60.2293 97.1058L59.7493 96.7218C59.4933 96.8498 59.3333 97.0098 59.2693 97.2018C59.5893 97.4578 59.8453 97.5858 60.0373 97.5858C61.0613 97.5858 61.5733 97.3618 61.5733 96.9138C61.5733 96.8498 61.5413 96.7538 61.4773 96.6258C61.4133 96.4338 61.3813 96.3058 61.3813 96.2418ZM53.3173 90.5778H53.2213V90.9618C53.4773 91.0898 53.7013 91.1538 53.8933 91.1538C54.0853 91.1538 54.2773 91.0898 54.4693 90.9618V90.3858C54.4053 90.3858 54.3093 90.4498 54.1813 90.5778L53.9893 90.3858C53.9893 90.5138 53.9253 90.6098 53.7973 90.6738L53.3173 90.5778ZM59.6533 104.69C59.5893 104.754 59.5573 104.85 59.5573 104.978L59.4613 105.074L59.9413 105.17L60.0373 104.69C59.9733 104.626 59.9093 104.626 59.8453 104.69H59.6533ZM48.1333 96.4338C48.1333 97.0098 48.3893 97.2978 48.9013 97.2978C49.0293 97.2338 49.2853 97.0098 49.6693 96.6258C49.5413 96.4978 49.4133 96.4018 49.2853 96.3378C49.0293 96.7218 48.7733 96.9138 48.5173 96.9138C48.3253 96.7858 48.1973 96.6258 48.1333 96.4338ZM53.9893 102.002H53.8933L53.7973 101.906H53.7013C53.6373 101.778 53.5413 101.714 53.4133 101.714C53.2853 101.778 53.1253 101.906 52.9333 102.098L53.0293 102.194H53.1253L53.2213 102.29H53.8933L53.9893 102.002Z" fill="#DB212C"/>
</g>
<defs>
<filter id="filter0_d_55_36" x="2.12789e-05" y="-1.32322e-05" width="152.578" height="152.578" filterUnits="userSpaceOnUse" color-interpolation-filters="sRGB">
<feFlood flood-opacity="0" result="BackgroundImageFix"/>
<feColorMatrix in="SourceAlpha" type="matrix" values="0 0 0 0 0 0 0 0 0 0 0 0 0 0 0 0 0 0 127 0" result="hardAlpha"/>
<feOffset dx="0.515529" dy="1.03106"/>
<feGaussianBlur stdDeviation="0.644412"/>
<feComposite in2="hardAlpha" operator="out"/>
<feColorMatrix type="matrix" values="0 0 0 0 0.301961 0 0 0 0 0.0313726 0 0 0 0 0.0117647 0 0 0 0.5 0"/>
<feBlend mode="normal" in2="BackgroundImageFix" result="effect1_dropShadow_55_36"/>
<feBlend mode="normal" in="SourceGraphic" in2="effect1_dropShadow_55_36" result="shape"/>
</filter>
</defs>
</svg>
