<svg width="970" height="259" viewBox="0 0 970 259" fill="none" xmlns="http://www.w3.org/2000/svg">
<g filter="url(#filter0_d_58_186)">
<path d="M134.577 102.385C141.128 110.971 145.5 121.976 147.691 135.398C149.756 148.161 149.435 160.104 146.727 171.227C143.652 184.013 137.862 193.651 129.355 200.142C118.304 208.573 108.333 210.836 99.4401 206.929C98.7806 211.835 98.0887 216.451 97.3644 220.777C96.2969 227.126 94.7296 231.089 92.6625 232.666C89.4825 235.093 85.7694 233.523 81.5232 227.958C76.4279 221.28 76.0688 214.133 80.446 206.516L85.5483 206.774C87.6149 209.977 88.1376 212.723 87.1164 215.011L88.7701 215.448C90.7581 209.151 89.0288 192.295 83.582 164.879C78.1352 137.463 73.3662 120.662 69.275 114.475L68.2265 118.294L61.4105 121.231C60.4712 121.318 59.1889 121.039 57.5635 120.392C56.0176 119.685 54.9717 118.974 54.4257 118.258C49.8763 112.296 48.6615 105.675 50.7815 98.3977C52.6064 91.7224 56.5796 86.0494 62.7012 81.3786C72.4799 73.9175 85.4241 73.1605 101.534 79.1076C115.738 84.3704 126.752 92.1296 134.577 102.385ZM94.3945 82.8567L92.3204 82.3639L92.1446 82.8753L94.2187 83.3682L94.3945 82.8567ZM135.083 101.811C126.772 90.9194 115.216 82.9447 100.414 77.8868C83.9671 72.3225 70.616 73.4529 60.3603 81.2779C54.4772 85.7667 50.8617 91.1668 49.5138 97.4781C48.1848 103.649 49.4163 109.879 53.2084 116.168L58.0281 118.528L55.7878 116.087C52.6335 111.953 52.2221 105.726 54.5534 97.4065C56.7487 89.5681 59.9929 84.0111 64.286 80.7355C70.7256 75.8221 80.7912 75.2489 94.4828 79.0159C107.492 82.5485 116.575 87.6936 121.731 94.4512C129.253 104.309 135.053 116.362 139.131 130.609C143.209 144.855 144.538 158.055 143.118 170.207C141.439 184.821 135.829 195.768 126.289 203.047C123.029 205.534 118.885 207.439 113.856 208.76C108.368 210.306 103.929 210.422 100.538 209.11C104.498 211.498 109.579 211.646 115.782 209.554C120.41 208.036 125.069 205.487 129.76 201.909C138.584 195.175 144.49 184.946 147.477 171.221C150.022 159.72 150.292 147.627 148.287 134.943C146.096 121.521 141.694 110.477 135.083 101.811ZM121.001 115.008C113.783 105.547 105.943 98.3218 97.4812 93.3316C86.045 86.5859 76.3519 86.246 68.4018 92.3119C66.7322 93.5857 65.0678 96.6796 63.4083 101.593C61.7677 106.367 61.5237 109.509 62.6762 111.02L65.0578 112.41C64.01 109.059 64.0438 105.888 65.1592 102.899C65.8246 101.133 67.4116 98.3503 69.9203 94.5494C75.4224 92.3638 79.162 91.0829 81.1389 90.7065C85.4527 89.9309 89.2087 90.6498 92.4071 92.8635C94.9424 94.7026 98.8154 97.4707 104.026 101.168L112.033 111.662C112.943 112.854 115.506 119.263 119.722 130.889C123.878 142.435 125.89 148.699 125.758 149.68L126.366 150.725C126.297 154.426 126.193 159.977 126.054 167.378C125.846 173.7 125.013 179.367 123.555 184.379C121.824 190.354 118.912 195.028 114.82 198.402L119.028 195.757C130.159 187.265 135.481 174.21 134.995 156.594C134.583 140.557 129.918 126.695 121.001 115.008ZM102.673 108.049C97.699 101.53 92.5824 97.1322 87.3234 94.8556C81.462 92.2839 76.504 92.5449 72.4494 95.6385C70.4619 97.155 68.7912 99.4989 67.4373 102.67C65.8868 106.243 65.8091 108.944 67.2043 110.772L68.7608 110.34C68.9115 109.218 69.92 107.82 71.7862 106.144C75.3573 105.055 77.5068 104.987 78.2347 105.941C83.2088 112.46 90.3935 144.462 99.7889 201.946C103.77 202.053 106.277 201.713 107.311 200.924C111.524 197.709 114.155 195.387 115.203 193.959C120.327 187.156 120.969 172.83 117.128 150.981C113.497 130.23 108.678 115.92 102.673 108.049ZM70.675 109.634L83.7268 160.618C91.928 194.611 93.7932 213.376 89.3222 216.913L86.3851 217.268C86.2155 218.529 86.3021 220.538 86.6449 223.296C88.2662 223.442 89.355 223.303 89.9116 222.879C94.2046 219.603 95.3051 208.764 93.2129 190.36C91.407 175.135 87.9277 158.293 82.775 139.835C78.3667 124.331 74.7371 114.71 71.8861 110.974C71.4615 110.417 71.0578 109.971 70.675 109.634ZM243.891 107.626C246.374 115.231 246.031 124.811 242.862 136.365C239.466 148.836 234.186 156.346 227.024 158.896C226.646 158.703 223.082 159.71 216.333 161.914C208.412 164.395 199.919 162.067 190.855 154.928C182.641 148.458 177.152 140.993 174.389 132.533C174.234 132.058 174.049 131.329 173.833 130.348C173.587 129.271 173.386 128.495 173.231 128.02C173.461 126.472 173.395 124.337 173.033 121.615C172.736 118.451 172.574 116.347 172.549 115.303C172.731 106.197 174.9 98.0194 179.055 90.7714C182.57 84.7843 188.206 78.3675 195.964 71.5208L194.459 69.3296L196.028 68.8174C195.803 69.4169 195.768 69.9543 195.923 70.4296C196.203 71.2851 197.434 71.6721 199.616 71.5905C201.894 71.4778 203.111 71.5011 203.268 71.6601L203.367 70.9967C198.761 63.9799 196.52 60.6616 196.644 61.0418L195.21 55.1986L197.293 55.7805L198.728 53.8918L202.563 55.0062L202.365 56.3331L199.612 56.601C202.635 58.7698 205.721 60.9706 208.87 63.2034C211.45 65.3062 213.962 68.1676 216.407 71.7876L219.325 67.6785L221.36 68.5921C219.627 72.6294 218.249 75.6568 217.225 77.6745C219.891 81.3274 221.332 83.4866 221.549 84.152C225.089 94.9887 223.652 104.926 217.241 113.962C211.499 122.15 203.004 128.027 191.756 131.595L191.75 132.544C195.173 136.581 199.223 138.835 203.9 139.306C207.567 139.582 212.252 138.788 217.955 136.925C220.522 136.087 224.3 133.643 229.289 129.594L229.88 126.088L227.791 126.455C226.755 125.215 225.009 123.576 222.555 121.537C222.357 117.709 222.995 114.187 224.469 110.971C226.105 107.281 228.586 104.892 231.913 103.806C233.244 103.371 235.472 103.59 238.597 104.463C241.723 105.336 243.487 106.39 243.891 107.626ZM211.189 71.7558L210.724 70.3299C209.686 69.4065 206.052 66.3327 199.822 61.1086C202.661 67.5454 206.45 71.0945 211.189 71.7558ZM213.296 68.543C213.11 67.9727 212.355 67.2724 211.032 66.4421C209.773 65.4858 208.842 65.0532 208.241 65.1444C210.631 67.3093 212.308 69.8652 213.27 72.812C213.549 73.6676 213.718 74.5066 213.776 75.3292C214.062 75.236 214.441 75.27 214.914 75.431L213.296 68.543ZM218.794 84.8942C219.071 86.0659 218.346 88.3542 216.617 91.759L215.433 91.5146L215.06 90.3739L215.311 88.2409C215.382 86.8499 215.341 85.9167 215.185 85.4414C215.03 84.9661 214.733 84.3793 214.295 83.6809C213.92 82.8564 213.655 82.2065 213.5 81.7312C212.955 82.9612 212.011 84.7422 210.669 87.0742L209.528 87.4467L208.35 86.2536C208.866 84.6124 209.624 82.1029 210.625 78.7253C209.484 79.0979 207.758 79.6091 205.445 80.2591C204.786 79.5278 203.717 78.5093 202.238 77.2038L203.006 75.6905C203.86 75.7273 204.652 75.5741 205.381 75.2306L206.807 74.765C203.553 74.1443 201.658 73.8165 201.121 73.7816C199.604 73.6459 197.704 73.9506 195.423 74.6957C188.864 76.8377 183.585 84.1897 179.588 96.7514C175.784 108.619 174.968 117.879 177.142 124.533C177.266 124.914 177.722 125.343 178.509 125.823C179.392 126.271 179.912 126.574 180.069 126.733C179.685 127.49 179.538 128.327 179.627 129.245C184.236 130.474 188.395 130.484 192.102 129.273C202.083 126.013 209.754 120.51 215.114 112.764C220.858 104.26 222.147 95.1605 218.98 85.4645L218.794 84.8942ZM231.169 116.988C230.528 118.249 230.364 119.355 230.674 120.306C230.767 120.591 230.971 120.892 231.285 121.211C231.6 121.529 231.772 121.735 231.803 121.83C231.648 121.355 231.542 120.548 231.486 119.409C231.43 118.27 231.324 117.463 231.169 116.988ZM237.201 115.649C237.077 115.269 236.699 114.919 236.069 114.599C235.534 114.248 235.25 114.025 235.219 113.93L232.51 114.814C233.41 117.571 233.742 120.198 233.506 122.695C233.341 123.8 232.772 126.406 231.798 130.511C233.198 129.002 234.541 126.67 235.825 123.515C237.27 119.887 237.729 117.265 237.201 115.649ZM231.271 131.314C227.865 135.057 224.165 137.58 220.173 138.884C213.043 141.212 207.236 141.951 202.751 141.102C197.854 140.282 192.796 137.357 187.577 132.329C186.281 132.226 184.289 132.246 181.6 132.387C182.791 134.102 184.785 136.502 187.581 139.586C192.489 143.664 197.567 145.845 202.815 146.13C206.893 146.377 212.354 145.382 219.198 143.147C223.381 141.781 227.405 137.837 231.271 131.314ZM198.834 83.2073C198.421 83.5526 197.482 84.5431 196.017 86.1786C194.616 87.688 193.774 88.4892 193.488 88.5824C191.587 89.2032 190.357 88.6582 189.798 86.9471C189.643 86.4718 189.805 85.8403 190.284 85.0527C190.827 84.1389 191.337 83.6044 191.812 83.4492C192.192 83.325 192.762 83.2968 193.52 83.3647C194.248 83.3375 194.754 83.2773 195.039 83.1842C195.324 83.0911 195.737 82.9038 196.276 82.6225C196.815 82.3412 197.227 82.1539 197.513 82.0608C198.269 82.4449 198.71 82.8271 198.834 83.2073ZM207.564 90.6129C206.738 91.3036 205.592 92.4667 204.128 94.1022L202.274 94.7075C202.15 94.3273 201.821 93.8035 201.287 93.1362C200.723 92.3738 200.378 91.8024 200.254 91.4222C200.099 90.9469 200.229 90.3785 200.644 89.7169C201.154 89.0243 201.647 88.6004 202.122 88.4452C203.643 87.9485 205.457 88.671 207.564 90.6129ZM213.341 100.088C214.024 102.179 213.51 103.504 211.799 104.063C210.468 104.497 209.647 104.239 209.337 103.289C209.089 102.528 209 101.453 209.072 100.062C209.198 100.126 209.451 100.096 209.832 99.9714C210.592 99.723 211.433 99.238 212.354 98.5163C212.386 98.6113 212.511 98.8334 212.73 99.1826C213.044 99.5008 213.248 99.8024 213.341 100.088ZM184.398 93.6026C184.173 94.202 184.184 94.882 184.433 95.6425C184.495 95.8326 184.651 96.1498 184.901 96.594L185.367 98.0199C185.272 98.051 185.113 98.2081 184.89 98.4914C184.731 98.6485 184.509 98.7737 184.223 98.8668C183.843 98.991 183.07 98.7175 181.904 98.0463C181.976 96.6553 182.412 95.0926 183.213 93.3582C183.718 93.6142 184.113 93.6957 184.398 93.6026ZM201.454 104.759C202.075 106.66 201.577 107.874 199.961 108.402C198.63 108.837 197.686 108.199 197.127 106.488C196.444 104.396 196.768 103.133 198.099 102.699C199.715 102.171 200.833 102.858 201.454 104.759ZM195.174 100.024C195.298 100.405 194.646 100.986 193.218 101.768C192.863 102.936 191.827 104.431 190.108 106.255C188.626 105.582 187.745 104.818 187.465 103.962C186.938 102.346 187.387 101.305 188.813 100.84C190.999 100.126 192.993 99.7898 194.796 99.8324C195.017 99.8654 195.143 99.9294 195.174 100.024ZM204.024 111.178C204.427 112.414 204.308 113.82 203.666 115.398C203.119 116.944 202.275 117.903 201.134 118.276C199.249 116.367 198.352 115.555 198.445 115.84C198.197 115.08 198.472 114.149 199.269 113.047C200.161 111.914 200.988 111.223 201.748 110.975C202.509 110.726 203.267 110.794 204.024 111.178ZM183.351 109.724C183.062 110.45 182.439 111.442 181.483 112.701C180.187 112.598 179.399 112.119 179.12 111.264C178.871 110.503 179.131 109.366 179.9 107.853L182.466 107.015L183.351 109.724ZM195.151 119.283C195.214 119.473 195.049 120.579 194.657 122.6L192.946 123.159C191.716 122.614 190.977 121.961 190.728 121.201C190.201 119.585 190.745 118.513 192.361 117.985C193.787 117.52 194.717 117.952 195.151 119.283ZM187.801 119.001C187.033 120.514 186.173 121.426 185.223 121.737C184.747 121.892 183.737 121.538 182.193 120.675C182.775 118.591 183.541 117.394 184.492 117.083C184.967 116.928 185.679 116.854 186.628 116.859L187.195 117.147L187.801 119.001ZM199.795 104.511L199.225 104.698L199.12 106.31L199.737 106.266L199.795 104.511ZM313.28 114.704C313.692 116.763 313.77 118.43 313.515 119.705C312.75 123.529 310.798 127.54 307.66 131.736C304.091 136.325 300.59 138.963 297.158 139.649C292.353 140.61 288.303 141.012 285.008 140.855C284.322 140.482 281.312 139.452 275.977 137.765C272.702 136.687 269.663 135 266.858 132.705C263.446 129.92 260.759 126.684 258.798 122.997C256.524 118.761 254.886 114.397 253.886 109.906L251.475 99.3744C251.298 98.4919 251.2 97.2367 251.181 95.609C251.142 93.8831 251.053 92.677 250.916 91.9906C249.426 81.4787 248.378 71.1335 247.77 60.9551C248.849 47.4819 248.879 38.1958 247.86 33.0968C247.193 29.7628 246.262 25.8698 245.066 21.4179C244.968 20.9276 244.625 20.2314 244.036 19.3292C243.526 18.3094 243.242 17.6524 243.183 17.3582C242.713 15.0048 242.86 12.9358 243.625 11.1512C243.684 10.9354 244.586 10.3471 246.331 9.38624C246.429 9.36664 246.567 9.54315 246.743 9.91578C246.998 10.1707 247.322 10.259 247.714 10.1806C248.008 10.1218 248.096 10.0531 247.979 9.97468C247.959 9.87662 248.096 9.79818 248.391 9.73936C250.254 9.36683 252.764 12.2303 255.921 18.3296C258.294 23.0562 259.941 26.959 260.862 30.038C261.764 33.019 263.029 37.5592 264.657 43.6585C265.755 48.13 266.48 51.7582 266.833 54.543C266.48 61.9562 267.538 71.8405 270.008 84.196C270.636 87.3339 272.665 94.1686 276.097 104.7C276.567 106.034 278.117 108.427 280.744 111.878C284.608 116.919 287.765 119.194 290.216 118.704C292.57 118.233 293.511 116.821 293.041 114.468C292.982 114.174 292.403 113.32 291.305 111.908C290.305 110.477 289.776 109.614 289.717 109.319C289.403 107.751 289.913 106.221 291.247 104.73C292.463 103.671 293.551 102.74 294.512 101.936C294.944 101.544 295.071 100.906 294.895 100.024C295.209 100.063 295.689 100.171 296.336 100.348C296.748 102.407 297.836 103.26 299.601 102.907C299.798 102.868 299.984 102.78 300.16 102.642C300.337 102.505 300.523 102.417 300.719 102.378C301.366 102.554 303.798 103.241 308.015 104.437C311.27 110.007 313.025 113.429 313.28 114.704ZM252.273 16.1526L250.008 13.2401L249.596 13.4754L251.832 16.2408L252.273 16.1526ZM249.595 31.8319L249.154 29.6256L248.566 29.7432L249.007 31.9495L249.595 31.8319ZM250.537 36.5387L249.684 32.2732L249.095 32.3908L249.948 36.6564L250.537 36.5387ZM296.159 112.467C295.924 111.291 295.257 110.251 294.159 109.349C293.061 108.447 292.423 107.81 292.247 107.437C292.266 107.535 292.217 107.8 292.1 108.231C291.982 108.663 291.953 109.025 292.011 109.32C292.168 110.104 292.953 110.967 294.365 111.908C294.855 112.83 295.198 113.781 295.394 114.762C295.649 116.037 295.286 117.282 294.305 118.498C293.344 119.812 292.227 120.596 290.952 120.851C287.814 121.479 284.578 119.831 281.244 115.909C275.4 109.123 270.988 98.2772 268.008 83.3722C267.518 80.9207 267.273 79.695 267.273 79.695C267.018 78.4202 266.753 76.8415 266.479 74.9587C265.361 68.8595 264.813 62.0346 264.833 54.4841C264.695 54.3076 264.48 53.4839 264.185 52.013C263.891 50.5421 263.509 48.375 263.039 45.5117C260.784 37.8042 259.391 33.1366 258.862 31.5088C257.176 26.1351 255.401 21.5949 253.538 17.8883C254.224 20.8104 255.362 24.9681 256.95 30.3614L259.362 38.5984C259.44 38.9907 260.46 46.1293 262.42 60.0145C262.734 62.0933 263.224 65.8195 263.89 71.1932C263.89 74.7625 263.851 76.351 263.772 75.9588C264.027 77.2335 264.606 79.1065 265.508 81.5776C266.41 84.0487 266.988 85.9216 267.243 87.1964L268.743 94.6979C269.704 99.5028 271.488 104.857 274.096 110.76C278.567 120.88 283.352 125.43 288.451 124.411C294.923 123.117 297.492 119.135 296.159 112.467ZM310.926 115.175C310.868 114.88 310.691 114.508 310.397 114.057C310.181 113.488 310.044 113.057 309.985 112.762C309.416 115.018 308.906 117.057 308.455 118.881C308.122 120.783 307.465 122.343 306.484 123.558C301.738 129.402 296.864 132.824 291.863 133.824C283.038 135.589 274.703 130.882 266.859 119.703C265.859 118.271 264.525 115.427 262.859 111.171C260.466 105.327 259.025 100.414 258.535 96.433L254.242 58.8962C253.419 54.2678 252.144 47.1291 250.419 37.4801C250.458 38.696 250.428 42.8831 250.33 50.0413C250.075 50.8062 249.849 51.973 249.653 53.542C249.672 70.4668 251.279 86.921 254.475 102.905C256.122 111.142 258.348 118.192 261.152 124.056C262.152 124.978 263.505 126.39 265.211 128.292C266.78 130.528 269.447 132.646 273.212 134.647L278.272 136.236C279.978 137.118 282.351 138.021 285.391 138.943C288.49 139.139 292.147 138.815 296.364 137.972C300.09 137.227 303.61 134.178 306.925 128.824C310.357 123.549 311.691 118.999 310.926 115.175ZM309.691 112.056L309.426 110.733L308.838 110.85L309.103 112.174L309.691 112.056ZM279.391 122.704L276.831 119.85L276.273 120.115L278.979 122.939L279.391 122.704ZM283.862 125.94L281.391 124.293L281.156 124.646L283.479 126.322L283.862 125.94ZM357.119 11.4668L356.319 12.3225C355.351 14.2573 353.869 16.5082 351.871 19.0754C350.482 20.8612 348.695 21.8904 346.512 22.1629L343.684 22.5159C346.747 26.0638 348.378 28.6316 348.576 30.2193C348.725 31.4101 348.253 32.0736 347.162 32.2098C346.963 32.2346 346.858 32.1973 346.845 32.0981L346.827 31.9493C346.703 31.7632 346.473 31.5399 346.138 31.2794C345.27 33.2017 343.843 36.3023 341.858 40.5812C341.386 41.6478 339.928 43.291 337.484 45.5108C335.041 47.7305 333.372 48.8962 332.479 49.0076C330.792 49.2182 329.143 48.114 327.531 45.695C326.787 44.5785 325.857 43.5861 324.74 42.7177C324.554 42.0354 324.35 41.2044 324.127 40.2244C322.924 37.0489 322.59 34.3697 323.124 32.1868L323.18 31.424C323.403 30.7915 323.49 30.2767 323.44 29.8798C323.391 29.4829 323.044 29.1231 322.399 28.8005L321.748 28.4283C321.537 28.3538 321.376 28.2732 321.264 28.1863C321.239 27.1817 321.742 25.96 322.772 24.5214C323.801 23.0828 324.8 22.2023 325.768 21.88C325.954 21.756 326.195 21.6754 326.493 21.6383L327.702 21.6385C328.099 21.5889 328.726 21.3596 329.582 20.9504C330.425 20.4421 331.045 20.1631 331.442 20.1135C332.137 20.0268 333.241 20.393 334.754 21.2119C334.878 20.5917 334.965 20.077 335.015 19.6677L335.033 18.6072C335.046 17.9002 335.201 17.125 335.499 16.2816C335.896 15.4258 336.771 13.9562 338.123 11.8727C339.562 9.67751 340.58 8.54278 341.175 8.46846C341.274 8.45608 341.392 8.59254 341.528 8.87784C341.764 9.15076 342.13 9.25626 342.626 9.19433C341.832 9.29341 342.521 9.1571 344.691 8.78539C344.791 8.77301 345.69 8.71115 347.389 8.59983L347.445 9.04637C347.494 9.44329 345.733 11.074 342.16 13.9386L342.327 15.2782L343.481 16.0412C343.94 15.6816 345.217 15.0182 347.314 14.0511C349.398 12.9848 350.688 12.4207 351.184 12.3588C351.382 12.334 351.637 12.3527 351.947 12.4147C352.356 12.4644 352.66 12.4769 352.858 12.4521C353.851 12.3283 355.135 11.3114 356.71 9.40156L356.878 9.53183C357.498 9.65597 357.826 9.86689 357.864 10.1646C357.888 10.363 357.64 10.7971 357.119 11.4668ZM363.37 116.048C362.079 119.434 360.336 122.02 358.141 123.805C356.168 124.958 353.166 126.744 349.135 129.162L348.725 129.515C348.44 129.652 348.148 129.739 347.851 129.776L340.557 130.686C340.136 130.537 339.553 130.307 338.809 129.997C336.229 130.319 333.37 129.215 330.232 126.684C327.653 124.587 325.489 122.187 323.74 119.483C323.604 119.197 323.077 118.608 322.159 117.715C321.241 116.822 320.739 116.028 320.653 115.333C319.872 109.082 319.451 104.498 319.39 101.584C319.576 100.653 319.806 99.2642 320.079 97.4161C320.005 94.4021 320.143 89.85 320.491 83.76C320.727 82.4204 321.056 80.2127 321.478 77.1367C321.888 73.9615 322.379 70.625 322.95 67.1274C323.608 63.5181 324.849 60.5415 326.673 58.1975C326.747 57.9867 326.815 57.7262 326.877 57.4162C328.341 56.2257 329.222 55.6119 329.52 55.5747C331.306 55.3518 332.986 55.8978 334.561 57.2129L334.636 57.8083C334.611 58.4161 334.834 58.9929 335.305 59.5387C335.863 59.9729 336.161 60.3389 336.198 60.6366L336.123 61.2505L335.639 63.4272C333.38 73.5853 332.504 80.6985 333.012 84.7669C333.483 88.5377 334.635 92.5256 336.47 96.7307C338.43 98.7032 340.439 100.67 342.497 102.63C345.325 105.098 347.632 106.221 349.418 105.998C349.703 105.862 351.093 105.286 353.586 104.269C354.367 103.264 354.653 101.919 354.442 100.232C354.319 99.2395 353.599 97.5153 352.285 95.0591C352.732 94.6003 353.247 93.881 353.83 92.9012C358.357 95.2587 361.073 96.8344 361.978 97.6284C364.334 99.5514 365.729 102.249 366.163 105.722C366.361 107.31 365.43 110.752 363.37 116.048ZM351.909 13.3264C350.297 14.1323 347.928 15.335 344.802 16.9345L345.025 17.5113C346.575 17.0154 347.741 16.6684 348.523 16.47C348.126 17.3258 346.966 18.1256 345.043 18.8695C344.472 19.1423 343.679 19.6444 342.661 20.3761L346.773 20.6187C350.06 19.503 352.244 17.2149 353.323 13.7546C352.728 13.8289 352.257 13.6861 351.909 13.3264ZM345.748 28.1536L344.985 29.307L346.157 30.2189L347.088 29.1957L345.748 28.1536ZM338.195 28.1894C336.706 28.3752 335.478 29.8386 334.51 32.5796L333.766 32.6725C333.096 31.3452 332.235 28.8829 331.181 25.2857C330.747 25.8438 329.928 26.5507 328.725 27.4063C328.686 34.3646 328.741 38.4392 328.89 39.6299C328.964 40.2253 329.497 41.2673 330.489 42.7559C331.568 44.1329 332.405 44.7842 333.001 44.7099C334.688 44.4994 336.648 42.4407 338.881 38.5341C341.214 34.615 342.318 31.7562 342.194 29.9577C339.826 28.7417 338.492 28.1523 338.195 28.1894ZM330.694 45.6025L329.912 46.6071L331.084 47.519L332.014 46.4958L330.694 45.6025ZM349.808 107.915C348.32 108.101 347.365 108.119 346.943 107.97C345.008 107.002 341.579 104.155 336.656 99.4285C335.738 98.5353 335.199 97.8468 335.038 97.363C333.19 93.8649 331.975 89.784 331.393 85.1201C331.269 84.1278 331.226 83.3774 331.263 82.8689C331.226 81.765 331.543 80.2642 332.213 78.3666C329.67 81.405 328.844 86.4965 329.736 93.641C330.207 97.4118 330.746 100.116 331.353 101.753C332.258 104.16 334.025 106.61 336.654 109.103C339.643 112.056 342.21 113.247 344.356 112.677L344.524 112.807C345.057 113.043 345.671 113.117 346.365 113.031L348.003 112.826C348.598 112.752 349.411 111.996 350.44 110.557C351.569 109.106 352.239 108.015 352.45 107.283C352.053 107.332 351.563 107.444 350.98 107.617C350.497 107.779 350.106 107.878 349.808 107.915ZM364.061 104.624C363.738 102.851 363.577 101.964 363.577 101.964L362.833 102.057C362.956 105.468 361.536 109.021 358.57 112.717C355.717 116.499 352.616 118.7 349.267 119.32C347.27 120.274 346.519 120.721 347.015 120.659C346.321 120.746 343.989 120.23 340.02 119.113C339.809 119.039 338.705 118.27 336.709 116.806C328.821 110.938 324.586 105.268 324.004 99.7983C323.831 98.4091 323.273 96.7655 322.331 94.8676C321.276 98.5265 320.804 100.802 320.916 101.695L322.662 115.687C322.86 117.275 325.421 120.432 330.344 125.158C331.721 126.498 332.93 127.305 333.972 127.578C337.941 128.695 341.215 129.092 343.795 128.77C347.467 128.312 350.189 127.519 351.963 126.39C355.139 124.381 357.13 122.974 357.936 122.168C359.276 120.791 360.517 118.621 361.658 115.657C363.632 110.473 364.432 106.795 364.061 104.624ZM467.224 77.13C467.248 77.6295 467.045 78.6401 466.616 80.1619C466.182 81.5838 465.982 82.6444 466.015 83.3436C466.033 83.7432 466.112 84.3402 466.249 85.1346C465.453 87.3744 465.067 88.744 465.09 89.2435C465.217 91.9405 465.197 93.6433 465.03 94.3519C464.52 96.278 463.427 98.5818 461.751 101.263C454.285 112.826 445.108 118.864 434.22 119.375C431.723 119.492 429.102 119.115 426.358 118.243C425.74 117.871 424.818 117.414 423.591 116.871L413.54 113.889L411.971 112.461C408.6 111.018 403.988 108.732 398.134 105.603C392.443 101.666 388.749 95.4824 387.052 87.0528C385.62 80.0122 384.876 75.8926 384.819 74.6939C384.275 63.1067 385.947 51.8158 389.836 40.8212C395.315 25.3471 404.199 17.3214 416.485 16.7443C416.985 16.7208 417.893 16.8784 419.21 17.2169C420.528 17.5555 421.388 17.7653 421.793 17.8464C427.319 18.2876 432.056 20.0173 436.002 23.0354C440.466 26.4297 442.82 30.724 443.064 35.9183C443.261 40.1136 441.812 44.4364 438.718 48.8865C435.723 53.3319 432.197 56.0503 428.139 57.0418C427.844 57.1558 427.209 57.486 426.233 58.0324C425.358 58.574 424.72 58.8543 424.321 58.873C421.823 58.9903 419.022 57.9706 415.918 55.8139C412.908 53.5526 411.347 51.2233 411.235 48.826C411.141 46.8282 411.789 44.6453 413.18 42.2775C414.565 39.8098 416.207 38.5313 418.105 38.4422C419.503 38.3765 420.521 38.7291 421.158 39.5001C422.855 41.5227 423.912 42.7244 424.331 43.1052C425.854 41.4319 426.569 39.5963 426.475 37.5985C426.306 34.0025 423.724 32.3218 418.73 32.5564C413.136 32.8191 408.636 36.1339 405.231 42.5007C402.379 47.8404 401.077 53.1574 401.325 58.4515C401.551 63.2462 402.359 67.6632 403.75 71.7024C404.443 73.672 405.897 75.8562 408.112 78.2549C410.427 80.6489 412.554 82.2509 414.495 83.0607C415.522 83.6131 417.058 84.3419 419.102 85.2469C421.632 85.8288 425.145 86.0142 429.64 85.8031L433.386 85.6271C436.083 85.5004 439.101 84.758 442.441 83.3998L450.249 80.1799C451.134 79.838 452.245 78.9849 453.582 77.6207C455.491 75.6289 456.69 74.5214 457.18 74.2982C459.227 73.1009 461.463 71.6944 463.89 70.0787C465.939 71.0837 467.051 73.4341 467.224 77.13ZM441.4 38.8496C441.358 37.9506 440.952 36.7683 440.182 35.3028C440.41 35.8928 440.438 36.4921 440.267 37.1008C439.675 39.4311 438.572 42.5864 436.957 46.5665C439.961 42.3209 441.442 39.7486 441.4 38.8496ZM433.993 50.6101L433.523 50.1817L432.373 51.2868L432.851 51.865L433.993 50.6101ZM430.584 38.757C430.537 37.7581 430.117 36.2762 429.324 34.3112L427.675 34.3886C428.373 36.4582 428.703 38.1446 428.664 39.4478C428.549 41.2552 427.741 43.2453 426.241 45.4181C424.837 47.4863 423.285 48.5602 421.587 48.64C418.99 48.762 417.35 46.8869 416.668 43.0146C416.083 43.3424 415.405 43.8248 414.634 44.4617L414.838 48.8069C416.197 50.0445 417.576 50.6304 418.975 50.5647L424.069 50.3254C426.367 50.2175 428.101 48.7845 429.273 46.0265C430.269 43.7773 430.706 41.3541 430.584 38.757ZM421.369 43.9951L419.644 42.4244L419.143 44.5502L421.369 43.9951ZM451.132 82.9916C441.783 86.434 436.309 88.1928 434.711 88.2679C433.912 88.3054 432.611 88.3164 430.808 88.301C429.101 88.181 427.848 88.1398 427.049 88.1773C412.365 88.867 403.177 81.8904 399.486 67.2475L399.62 70.0944C399.523 72.3013 399.924 74.4349 400.821 76.495C403.177 81.8905 406.901 86.5709 411.993 90.5363C412.592 90.5082 413.215 90.9795 413.861 91.9502C414.726 93.3112 415.211 94.0392 415.315 94.1344C416.142 94.6962 417.971 95.261 420.801 95.8289C423.331 96.4108 424.648 96.7494 424.753 96.8446C427.283 97.4265 430.046 97.6471 433.043 97.5063C436.139 97.3609 439.365 95.7077 442.721 92.5467C444.544 90.8594 447.347 87.6743 451.132 82.9916ZM400.022 65.8708L399.282 62.9023L398.533 62.9375L399.123 65.9131L400.022 65.8708ZM455.128 104.127C454.928 104.137 453.403 104.709 450.553 105.844C447.884 106.57 444.971 107.408 441.812 108.357C439.947 109.145 438.065 109.584 436.167 109.673C424.081 110.241 416.347 109.703 412.966 108.06C411.53 107.327 409.714 105.96 407.518 103.961C405.317 101.862 403.7 100.486 402.669 99.8341C398.128 96.9439 395.518 94.6639 394.839 92.9939C392.351 86.904 390.92 82.0157 390.546 78.3292C390.524 75.7274 390.303 72.0837 389.883 67.3983L386.886 67.5391C387.518 68.2101 387.86 69.0951 387.912 70.1939C387.94 70.7932 387.782 71.7016 387.439 72.919C387.196 74.1318 387.086 74.9879 387.109 75.4873C387.161 76.5861 387.97 79.9519 389.536 85.5846C391.453 92.302 393.001 96.484 394.179 98.1305C396.532 101.324 399.448 103.739 402.929 105.378C404.769 106.193 407.577 107.362 411.353 108.887C412.08 109.453 412.91 110.065 413.842 110.722C424.033 114.548 431.126 116.367 435.121 116.179C442.813 115.818 449.482 111.801 455.128 104.127ZM439.671 30.8218C437.319 27.6287 433.986 24.8821 429.674 22.5819C425.047 19.9961 420.886 18.79 417.19 18.9636C401.507 19.7003 392.057 32.708 388.84 57.9869C388.467 60.7073 388.221 62.9213 388.101 64.6289L389.62 65.008C392.216 52.0719 395.133 42.7748 398.371 37.1166C403.738 27.7545 411.665 22.8271 422.154 22.3344C425.15 22.1937 428.296 23.0971 431.591 25.0446C432.209 25.416 434.903 27.3418 439.671 30.8218ZM524.797 8.18494L523.878 8.91215C522.633 10.6815 520.833 12.687 518.476 14.9287C516.836 16.4881 514.917 17.2402 512.717 17.1851L509.868 17.1137C512.37 21.0776 513.6 23.8593 513.56 25.4588C513.53 26.6585 512.965 27.2445 511.866 27.2169C511.666 27.2119 511.567 27.1594 511.57 27.0594L511.573 26.9095C511.478 26.7071 511.285 26.4521 510.992 26.1447C509.848 27.9166 507.975 30.7706 505.376 34.7067C504.751 35.6913 503.065 37.0995 500.319 38.9313C497.572 40.763 495.749 41.6676 494.849 41.6451C493.149 41.6025 491.682 40.2653 490.448 37.6336C489.878 36.4189 489.106 35.2992 488.131 34.2745C488.049 33.5722 487.97 32.7199 487.895 31.7178C487.178 28.3987 487.246 25.6996 488.098 23.6203L488.267 22.8743C488.582 22.282 488.745 21.7859 488.755 21.386C488.765 20.9862 488.475 20.5788 487.885 20.1639L487.296 19.699C487.099 19.594 486.952 19.4903 486.854 19.3878C486.979 18.3906 487.658 17.2573 488.89 15.9877C490.122 14.7182 491.241 13.996 492.245 13.8211C492.448 13.7262 492.699 13.6824 492.999 13.69L494.195 13.87C494.594 13.88 495.248 13.7463 496.155 13.469C497.065 13.0917 497.72 12.908 498.12 12.918C498.819 12.9356 499.857 13.4617 501.231 14.4965C501.446 13.9017 501.609 13.4056 501.719 13.0082L501.895 11.9623C502.012 11.265 502.281 10.5215 502.701 9.73181C503.221 8.94458 504.304 7.62132 505.951 5.762C507.701 3.80523 508.876 2.83435 509.476 2.84939C509.576 2.85189 509.672 3.00435 509.764 3.30676C509.957 3.61168 510.303 3.7704 510.803 3.78293C510.003 3.76288 510.704 3.73044 512.906 3.68559C513.006 3.6881 513.904 3.76063 515.601 3.90319L515.59 4.35305C515.58 4.75292 513.595 6.10363 509.636 8.40516L509.603 9.75474L510.63 10.6808C511.137 10.3934 512.499 9.92736 514.716 9.28271C516.935 8.53808 518.295 8.17203 518.795 8.18456C518.995 8.18957 519.243 8.24581 519.541 8.3533C519.938 8.46329 520.237 8.52079 520.437 8.5258C521.436 8.55085 522.857 7.7362 524.699 6.08184L524.846 6.23555C525.44 6.45051 525.734 6.70795 525.726 7.00786C525.721 7.20779 525.412 7.60015 524.797 8.18494ZM515.429 112.533C513.65 115.689 511.541 117.987 509.105 119.427C506.983 120.274 503.749 121.593 499.402 123.385L498.945 123.673C498.643 123.766 498.341 123.808 498.041 123.801L490.694 123.617C490.299 123.407 489.757 123.093 489.067 122.676C486.468 122.611 483.805 121.093 481.078 118.124C478.839 115.667 477.056 112.972 475.729 110.038C475.637 109.735 475.203 109.074 474.429 108.054C473.654 107.035 473.275 106.175 473.293 105.475C473.451 99.177 473.716 94.5822 474.088 91.6906C474.411 90.7984 474.845 89.4589 475.39 87.672C475.765 84.6804 476.577 80.1994 477.827 74.2288C478.26 72.9393 478.913 70.805 479.788 67.826C480.666 64.747 481.647 61.5205 482.732 58.1467C483.919 54.6753 485.589 51.9163 487.741 49.8696C487.846 49.6721 487.952 49.4247 488.059 49.1273C489.684 48.1677 490.646 47.6917 490.946 47.6992C492.745 47.7443 494.326 48.5342 495.688 50.0688L495.673 50.6686C495.558 51.2659 495.693 51.8694 496.078 52.4793C496.565 52.9917 496.805 53.3978 496.798 53.6977L496.633 54.2938L495.83 56.3743C492.086 66.0835 490.162 72.9875 490.059 77.0862C489.964 80.885 490.511 85 491.701 89.4312C493.345 91.6731 495.039 93.9163 496.784 96.1607C499.213 99.0224 501.327 100.476 503.126 100.521C503.429 100.429 504.888 100.065 507.505 99.4303C508.427 98.5532 508.91 97.2649 508.952 95.5654C508.977 94.5657 508.523 92.7537 507.588 90.1295C508.098 89.7422 508.714 89.1074 509.436 88.2252C513.562 91.2295 516.014 93.1916 516.791 94.1113C518.835 96.3633 519.814 99.2387 519.726 102.738C519.686 104.337 518.254 107.602 515.429 112.533ZM519.368 9.24925C517.654 9.80648 515.132 10.6436 511.803 11.7605L511.938 12.3641C513.545 12.1043 514.75 11.9344 515.552 11.8545C515.032 12.6417 513.766 13.2602 511.754 13.7099C511.149 13.8948 510.29 14.2734 509.175 14.8456L513.205 15.6969C516.621 15.0823 519.121 13.1443 520.703 9.88289C520.103 9.86786 519.658 9.65665 519.368 9.24925ZM511.071 22.9957L510.145 24.0228L511.169 25.0988L512.241 24.2254L511.071 22.9957ZM503.596 21.9081C502.097 21.8705 500.665 23.135 499.3 25.7016L498.55 25.6828C498.085 24.2707 497.599 21.7077 497.092 17.9939C496.58 18.4812 495.665 19.0584 494.348 19.7257C493.275 26.6009 492.724 30.6384 492.694 31.838C492.679 32.4378 493.051 33.5475 493.811 35.167C494.673 36.6891 495.404 37.4577 496.004 37.4727C497.703 37.5153 499.948 35.771 502.737 32.2398C505.626 28.7111 507.144 26.0482 507.289 24.2513C505.127 22.6967 503.896 21.9156 503.596 21.9081ZM493.59 38.0124L492.667 38.8896L493.691 39.9655L494.763 39.0921L493.59 38.0124ZM503.227 102.474C501.728 102.437 500.781 102.313 500.386 102.103C498.616 100.858 495.649 97.5327 491.483 92.1266C490.708 91.1069 490.277 90.3458 490.19 89.8435C488.883 86.1096 488.288 81.8934 488.406 77.1948C488.431 76.1951 488.5 75.4466 488.613 74.9493C488.74 73.8521 489.276 72.4151 490.221 70.6382C487.254 73.2647 485.681 78.1768 485.5 85.3746C485.405 89.1734 485.536 91.9275 485.893 93.637C486.431 96.1513 487.814 98.8368 490.043 101.694C492.559 105.058 494.921 106.617 497.128 106.373L497.274 106.526C497.766 106.839 498.362 107.004 499.062 107.021L500.712 107.063C501.312 107.078 502.228 106.45 503.46 105.181C504.792 103.914 505.617 102.934 505.934 102.242C505.534 102.232 505.033 102.269 504.431 102.354C503.928 102.442 503.527 102.482 503.227 102.474ZM517.81 101.339C517.756 99.5372 517.728 98.6362 517.728 98.6362L516.978 98.6174C516.593 102.009 514.66 105.311 511.178 108.525C507.794 111.841 504.4 113.557 500.996 113.672C498.879 114.319 498.071 114.649 498.571 114.661C497.871 114.644 495.642 113.788 491.883 112.093C491.685 111.988 490.708 111.063 488.951 109.319C482.024 102.343 478.679 96.1071 478.917 90.6113C478.952 89.2117 478.645 87.5035 477.995 85.4866C476.408 88.9479 475.603 91.1284 475.58 92.0281L475.227 106.124C475.187 107.723 477.25 111.226 481.416 116.632C482.578 118.162 483.654 119.139 484.643 119.564C488.402 121.259 491.581 122.138 494.18 122.204C497.879 122.296 500.69 121.917 502.611 121.065C506.05 119.55 508.229 118.454 509.146 117.777C510.675 116.615 512.225 114.653 513.795 111.892C516.517 107.059 517.855 103.541 517.81 101.339ZM638.147 67.4429C637.234 75.9943 633.004 84.9961 625.458 94.4484C618.735 102.782 611.222 109.572 602.918 114.82C593.215 120.925 584.435 123.558 576.58 122.719C565.344 121.519 556.298 117.234 549.441 109.865C542.329 102.066 539.368 92.5977 540.557 81.461C542.118 66.8441 547.363 53.9783 556.294 42.8636C565.895 31.1166 577.67 23.9764 591.618 21.4429C592.438 22.2345 593.639 22.765 595.219 23.0343C597.03 23.0265 599.78 23.1693 603.47 23.4627C611.315 24.4009 619.263 30.0265 627.313 40.3395C635.374 50.5531 638.986 59.5876 638.147 67.4429ZM622.141 70.4104C622.385 68.1234 620.767 61.6148 617.287 50.8846C616.011 46.8262 613.602 43.9542 610.061 42.2687C603.554 39.1603 599.455 37.5159 597.765 37.3354C595.478 37.0912 592.653 37.6444 589.291 38.9951C586.646 40.2212 584.001 41.4473 581.356 42.6734C583.397 42.3885 585.761 42.3895 588.445 42.6761C594.411 43.3131 599.767 45.8964 604.513 50.4259C609.526 55.2855 611.724 60.5989 611.108 66.3661C610.121 75.6136 606.754 83.6012 601.007 90.3291C595.37 96.9682 588.048 101.969 579.04 105.332L586.327 104.903C588.756 104.76 590.984 104.143 593.011 103.052C598.873 99.957 604.8 95.3099 610.792 89.1111C617.795 81.914 621.579 75.6804 622.141 70.4104ZM635.611 67.1722C636.514 58.7202 633.08 49.9059 625.31 40.7291C617.651 31.4635 609.595 26.3795 601.143 25.477C600.149 25.3709 598.636 25.4105 596.605 25.5959C594.684 25.6925 593.226 25.6877 592.232 25.5815C590.939 25.4435 590.12 25.1046 589.776 24.565L585.904 25.5092L584.508 24.4551C575.468 28.116 567.766 33.378 561.401 40.2411C554.806 47.3812 550.363 55.5557 548.072 64.7645C549.711 60.7157 551.528 56.8869 553.522 53.2783C554.913 50.6109 559.786 45.9518 568.139 39.3011C576.602 32.5616 581.836 29.701 583.839 30.7195L592.888 27.9143C603.229 29.0185 612.458 33.4735 620.575 41.2795C629.236 49.6463 633.03 58.8511 631.958 68.894C630.769 80.0307 623.603 90.6298 610.46 100.691C597.428 110.664 585.294 115.051 574.057 113.851C574.654 113.915 571.719 113.149 565.252 111.553C556.807 102.103 551.709 95.2228 549.957 90.9124C547.636 85.3344 546.892 76.757 547.726 65.1801C544.615 73.5974 542.948 78.8501 542.725 80.9382C541.514 92.2738 544.398 101.532 551.375 108.714C557.897 115.444 566.925 119.425 578.46 120.657C586.216 121.485 594.954 118.295 604.674 111.086C612.215 105.455 618.927 98.6286 624.812 90.6081C631.29 81.7457 634.889 73.9338 635.611 67.1722ZM609.036 65.994C609.535 61.3206 607.456 56.7742 602.799 52.3547C598.142 47.9353 593.427 45.4708 588.654 44.9612C579.804 44.0163 572.575 46.2614 566.966 51.6967C561.698 56.766 558.581 63.825 557.615 72.8735C556.702 81.4249 557.859 88.4876 561.085 94.0617C562.009 95.7694 563.712 97.7113 566.195 99.8872C568.945 102.393 571.065 103.726 572.557 103.885C578.324 104.501 585.141 101.407 593.008 94.604C600.875 87.8008 605.475 81.4533 606.808 75.5615L609.036 65.994ZM552.061 90.9862L551.639 89.2818L551.011 89.5164L551.464 90.9225L552.061 90.9862ZM736.441 140.605C736.066 142.161 735.174 144.157 733.765 146.595C732.904 148.034 731.281 149.649 728.896 151.44C726.584 153.352 724.738 154.399 723.357 154.581C721.031 154.844 718.458 154.636 715.638 153.958C712.235 153.138 710.458 146.848 710.307 135.086C708.395 138.328 705.113 142.99 700.461 149.07C699.667 149.805 698.799 150.418 697.857 150.912C691.702 154.264 687.312 155.625 684.686 154.993L681.77 154.291C677.784 153.331 673.847 151.098 669.96 147.591C664.98 143.924 661.674 140.351 660.043 136.872L657.639 128.271C656.812 125.295 656.785 122.203 657.558 118.994C658.447 115.3 660.241 111.052 662.94 106.25C668.551 96.1837 672.199 87.6505 673.884 80.6505C674.563 77.831 674.825 75.8884 674.67 74.8225C674.384 72.5936 672.831 71.1398 670.011 70.4611C668.359 70.0633 667.375 69.8779 667.06 69.9049C665.873 70.1336 664.84 71.222 663.959 73.1701C666.408 75.8166 667.515 77.626 667.281 78.5982C666.86 80.3482 665.589 81.9965 663.468 83.5432C661.371 84.9926 659.447 85.5066 657.697 85.0854C655.072 84.4535 652.499 81.4685 649.978 76.1304C649.435 74.9709 649.467 73.1273 650.075 70.5995C651.222 65.8356 655.034 60.6845 661.509 55.1462C663.845 53.1368 667.97 52.0214 673.886 51.7997C678.663 51.6123 682.655 51.9048 685.864 52.6771C686.739 52.8877 689.04 54.0075 692.769 56.0364C693.064 56.5189 693.568 57.2058 694.279 58.097C698.501 61.0675 701.029 64.4531 701.863 68.2538C702.417 70.6501 702.191 73.9386 701.185 78.1192C700.53 80.8414 697.367 88 691.696 99.5948C688.316 104.233 685.683 109.616 683.797 115.745C683.61 116.523 683.099 117.788 682.266 119.542C681.456 121.198 680.945 122.464 680.735 123.339C680.313 125.089 680.214 127.637 680.438 130.982C681.032 132.359 682.488 133.789 684.805 135.273C686.78 136.468 688.691 137.288 690.538 137.733C691.997 138.084 694.411 136.814 697.781 133.922C700.237 131.839 701.897 130.284 702.761 129.258C709.242 121.561 713.936 114.668 716.841 108.579C717.504 106.681 719.768 100.695 723.633 90.6197C723.719 89.4062 724.057 87.7903 724.645 85.772C725.657 84.987 726.969 83.8113 728.58 82.2449C729.281 81.8992 730.214 81.8668 731.381 82.1476C734.881 82.9901 736.21 85.1613 735.367 88.6614C735.156 89.5364 734.49 91.0217 733.369 93.1174C732.247 95.2132 731.546 96.8444 731.265 98.011C730.026 100.593 728.718 103.466 727.339 106.632C724.464 113.448 722.464 119.19 721.341 123.856C720.686 126.579 720.888 130.227 721.946 134.802C723.156 140.03 724.916 142.974 727.226 143.633L728.277 143.114C727.726 141.13 727.521 139.846 727.661 139.263C727.895 138.291 728.771 137.216 730.289 136.039C731.806 134.861 733.003 134.378 733.878 134.588C736.405 135.197 737.26 137.202 736.441 140.605ZM727.399 146.76C724.731 146.735 722.489 144.087 720.672 138.815C720.497 138.259 719.568 134.641 717.884 127.961C717.683 127.09 717.98 125.001 718.775 121.696C718.916 121.113 719.235 120.212 719.734 118.995C720.33 117.802 720.698 116.913 720.839 116.33C720.172 117.815 719.098 119.716 717.614 122.033C716.633 123.546 715.943 125.128 715.546 126.781C715.475 127.073 715.432 127.68 715.416 128.601C715.303 129.5 715.162 130.083 714.995 130.351C714.57 131.689 714.417 133.607 714.536 136.104C714.752 138.624 715.12 140.513 715.641 141.77C715.912 142.349 716.847 143.809 718.444 146.147C720.041 148.486 721.326 149.772 722.298 150.006C723.659 150.334 725.359 149.252 727.399 146.76ZM686.844 139.621C682.75 137.401 680.013 135.097 678.634 132.708C677.352 130.342 677.237 126.971 678.29 122.596C678.758 120.652 680.44 116.017 683.335 108.691C684.861 105.767 687.342 101.015 690.777 94.4366C695.688 84.7161 698.425 78.6891 698.987 76.3557C699.267 75.189 699.385 73.4174 699.34 71.0409C699.319 68.5671 699.075 67.017 698.608 66.3904C697.843 64.8691 695.872 62.8005 692.696 60.1846C690.516 57.7055 687.53 56.0096 683.738 55.0969C679.655 54.114 675.88 53.7711 672.415 54.0683C671.64 54.2934 670.539 54.5941 669.112 54.9704C668.287 54.9776 667.293 55.047 666.13 55.1784C664.321 56.2858 661.034 59.0432 656.27 63.4507L657.291 63.6965C659.767 61.1038 663.218 59.1575 667.645 57.8574C672.17 56.5808 676.182 56.3637 679.682 57.2062C683.765 58.1891 686.983 59.9921 689.334 62.6153C694.014 67.9587 695.558 73.9361 693.966 80.5472C692.983 84.6306 690.488 90.5099 686.481 98.1852C684.565 101.016 681.37 105.955 676.897 113.004C674.385 117.028 673.036 119.429 672.849 120.207C672.24 122.734 672.508 125.679 673.654 129.04L676.454 137.274C679.6 139.163 681.27 140.131 681.464 140.177C680.978 140.06 682.771 139.875 686.844 139.621ZM683.137 81.9519C683.043 82.3408 683.018 82.2319 683.061 81.6251C683.202 81.0418 683.364 80.1551 683.547 78.965C683.731 77.7749 683.005 75.2346 681.37 71.3439C679.833 67.4767 678.578 65.426 677.605 65.192C675.953 64.7942 673.412 65.5198 669.984 67.3689C670.035 67.5868 670.171 67.8766 670.392 68.2385C671.823 68.2745 672.796 68.5085 673.309 68.9406C676.193 71.4863 677.641 73.3776 677.652 74.6145C677.619 76.4581 677.053 79.6647 675.953 84.2341C675.86 84.623 675.573 85.1713 675.094 85.8788C674.736 86.5126 674.51 87.0239 674.417 87.4128C674.019 89.0656 671.317 94.9467 666.313 105.056C661.904 113.972 659.535 119.11 659.208 120.472C658.623 122.902 659.126 126.366 660.718 130.864C662.407 135.384 664.204 138.388 666.108 139.875C665.678 137.817 665.081 134.742 664.318 130.65C663.86 128.277 663.994 125.584 664.72 122.57C666.405 115.57 671.458 105.472 679.88 92.2765C680.111 90.8919 680.483 89.1302 680.998 86.9913C682.681 82.5622 683.394 80.8824 683.137 81.9519ZM688.702 144.08L688.913 143.205L686.585 143.261L686.374 144.136L688.702 144.08ZM703.045 140.898C701.912 141.757 700.368 142.619 698.411 143.485C696.551 144.375 693.711 145.491 689.89 146.834C686.167 148.201 682.555 148.463 679.055 147.62C678.278 147.433 675.466 146.294 670.621 144.202C674.609 148.144 678.888 150.666 683.458 151.766C687.152 152.655 690.941 151.87 694.824 149.41C698.323 147.27 701.063 144.432 703.045 140.898ZM676.625 144.258L676.835 143.383L675.523 143.067L675.312 143.942L676.625 144.258ZM756.797 174.732L754.025 172.49L754.272 171.943L757.044 174.185L756.797 174.732ZM822.56 158.54C819.553 165.191 813.813 171.211 805.34 176.598C801.935 178.79 797.502 180.462 792.042 181.615C790.354 181.949 785.618 182.716 777.832 183.914C769.78 184.005 765.708 184.029 765.617 183.988L761.107 181.948C757.28 180.218 753.786 177.266 750.624 173.093C746.708 167.92 745.635 163.374 747.407 159.456C749.261 155.356 753 151.943 758.622 149.217C764.336 146.533 769.197 146.097 773.206 147.91C774.482 148.487 775.416 150.062 776.008 152.634C776.692 155.248 776.725 157.239 776.107 158.605C775.324 160.337 773.551 161.346 770.787 161.632C769.852 161.758 767.755 161.907 764.494 162.079L764 163.173C765.148 166.216 766.268 167.985 767.362 168.479C769.822 169.592 773.657 169.241 778.868 167.426C783.772 165.803 787.257 163.922 789.322 161.782C793.278 157.645 795.895 154.164 797.172 151.339C798.655 148.059 798.74 145.079 797.428 142.401C797.043 140.581 795.967 138.228 794.199 135.343C791.786 133.155 788.985 131.34 785.796 129.897C785.432 129.733 785.229 129.696 785.188 129.787C785.105 129.969 784.927 129.998 784.654 129.875C782.103 128.721 779.637 126.893 777.257 124.39C771.609 118.434 770.578 111.492 774.162 103.565C776.222 99.0091 780.737 94.8499 787.707 91.0872C794.767 87.3658 800.818 85.8767 805.86 86.62C812.839 87.6905 820.2 89.9769 827.945 93.4791C827.125 93.1083 828.729 94.0528 832.755 96.3126C834.261 100.506 834.417 103.923 833.222 106.566C831.162 111.122 827.001 114.014 820.738 115.243C818.074 115.794 815.649 115.575 813.462 114.587C811.64 113.762 810.272 112.54 809.358 110.92C808.577 109.25 808.578 107.549 809.361 105.818C809.608 105.271 810.364 104.57 811.628 103.715C813.025 102.811 813.952 102.461 814.407 102.667C815.683 103.244 816.475 104.041 816.783 105.058C817.067 106.614 817.418 108.144 817.835 109.65C819.34 109.233 821.822 108.599 825.279 107.748C826.81 103.392 825.07 100.081 820.058 97.8146C819.147 97.4026 817.901 97.0036 816.319 96.6177C814.282 96.0258 812.97 95.6518 812.382 95.4957C808.725 95.8174 805.127 97.0989 801.589 99.3403C798.143 101.623 795.678 104.404 794.194 107.685C792.505 111.42 792.943 115.185 795.507 118.979C797.599 122.12 800.65 124.597 804.659 126.41C805.297 126.698 806.656 127.697 808.736 129.406C810.908 131.156 812.429 132.283 813.299 132.786C817.922 135.425 821.157 139.193 823.004 144.089C824.892 148.893 824.744 153.71 822.56 158.54ZM796.462 124.514C793.55 121.002 791.781 118.117 791.156 115.859C790.373 112.981 790.805 109.719 792.453 106.074C793.895 102.885 797.331 99.1707 802.76 94.931C799.111 95.4761 795.637 96.4843 792.338 97.9556C787.939 99.9173 785.183 102.128 784.071 104.588C783.041 106.866 782.67 109.991 782.959 113.963C786.138 118.583 790.639 122.1 796.462 124.514ZM820.696 157.202C822.138 154.013 822.317 150.583 821.234 146.91C820.192 143.147 818.37 140.018 815.766 137.523C818.121 143.966 818.062 149.921 815.59 155.388C814.725 157.301 812.971 159.965 810.33 163.38C807.82 166.745 805.698 169.133 803.963 170.543C802.319 171.995 800.161 173.488 797.491 175.025C793.73 177.275 791.523 178.637 790.87 179.11C796.512 178.039 802.317 175.396 808.284 171.18C814.292 166.873 818.43 162.214 820.696 157.202ZM812.069 151.161C814.17 146.514 812.642 141.763 807.485 136.906C806.324 135.833 804.514 134.74 802.053 133.627L796.996 131.34C790.666 127.38 786.622 124.674 784.864 123.22C779.733 119.035 777.297 115.079 777.554 111.354C777.667 109.649 778.403 107.293 779.762 104.287C781.493 100.46 784.789 97.1758 789.65 94.4352C793.767 92.1265 798.249 90.5866 803.098 89.8158C798.082 89.7428 792.838 91.2676 787.365 94.39C781.893 97.5125 778.168 101.261 776.19 105.634C774.913 108.459 774.284 110.699 774.304 112.354C774.291 114.324 775.003 116.511 776.439 118.917C778.008 121.272 779.393 122.941 780.595 123.924C781.142 124.171 781.921 124.633 782.932 125.31C784.457 126.548 785.311 127.209 785.493 127.291C785.766 127.415 785.969 127.452 786.102 127.402C786.366 127.302 786.635 127.314 786.909 127.437C787.182 127.561 787.53 127.883 787.953 128.404C788.417 128.833 788.786 129.11 789.06 129.233C793.383 131.079 796.7 134.06 799.008 138.177C801.376 142.649 801.612 146.982 799.717 151.173C797.327 156.458 793.632 160.988 788.632 164.763C783.765 168.489 778.502 170.663 772.842 171.287C769.723 171.632 767.525 171.516 766.249 170.939C764.792 170.28 763.527 168.83 762.455 166.589C761.433 164.481 761.231 162.743 761.849 161.377C762.013 161.012 762.637 160.361 763.719 159.424C764.893 158.528 765.541 157.943 765.665 157.67C766.324 156.212 766.01 154.479 764.724 152.47C759.149 154.12 756.094 155.537 755.558 156.721C754.487 159.09 754.077 161.21 754.329 163.08C754.843 163.641 755.341 164.361 755.823 165.237C755.849 165.907 756.107 166.792 756.598 167.892C758.323 169.66 760.333 171.282 762.628 172.759C764.236 173.815 765.222 174.426 765.586 174.59C766.224 174.879 768.463 174.903 772.302 174.664C775.736 174.351 778.119 174.057 779.451 173.781C785.664 172.42 790.964 170.043 795.352 166.649C798.484 164.334 801.616 162.019 804.748 159.704C808.392 156.742 810.832 153.895 812.069 151.161ZM790.411 179.396L790.522 178.787L789.181 178.84L788.934 179.386L790.411 179.396ZM860.591 184.706C858.591 182.746 857.435 180.353 857.124 177.528C856.812 174.703 857.458 172.186 859.062 169.977C870.921 154.016 879.79 143.036 885.669 137.036C887.069 135.608 891.866 130.998 900.06 123.207C908.254 115.415 914.311 109.52 918.23 105.52C923.13 100.52 925.995 97.1673 926.826 95.4617L929.68 94.478C932.523 95.8633 934.98 97.5708 937.051 99.6004C937.551 100.09 938.054 100.863 938.56 101.919C939.207 102.973 939.745 103.71 940.173 104.13C940.602 104.55 941.03 104.899 941.457 105.177L943.092 109.51C941.021 114.481 935.646 121.395 926.968 130.252L896.943 160.894C896.523 161.322 895.299 162.643 893.271 164.856C891.242 166.927 889.492 168.713 888.022 170.213C874.235 184.284 865.091 189.115 860.591 184.706ZM835.82 241.706C834.035 239.956 832.243 237.641 830.446 234.76C829.006 232.229 827.566 229.698 826.126 227.167C825.132 226.753 822.474 226.179 818.153 225.445C814.823 224.842 812.373 223.771 810.801 222.231C808.587 220.062 808.74 217.691 811.259 215.12C811.539 214.834 813.087 214.041 815.902 212.739C818.647 211.509 820.372 210.678 821.074 210.247C819.416 207.082 817.758 203.987 816.1 200.963C813.793 196.602 813.479 193.565 815.159 191.851C817.119 189.851 822.164 188.774 830.295 188.62C838.495 188.396 843.595 189.263 845.595 191.223C846.81 192.412 847.684 194.949 848.218 198.833C848.753 202.717 849.592 205.219 850.735 206.338C851.02 206.618 853.115 207.481 857.019 208.926C860.993 210.3 863.123 211.127 863.409 211.407C866.48 214.416 866.616 217.35 863.816 220.207C862.767 221.278 860.657 222.431 857.487 223.665C854.459 224.898 852.42 226.051 851.37 227.122L850.953 227.763C851.792 233.765 851.546 237.444 850.216 238.802C848.187 240.873 845.868 242.311 843.26 243.115C840.157 243.995 837.677 243.526 835.82 241.706ZM939.046 108.066L937.546 106.596C937.135 107.873 936.37 109.083 935.25 110.226C933.85 111.654 931.608 113.657 928.522 116.234C925.509 118.882 923.267 120.955 921.797 122.455C915.638 128.741 906.441 138.699 894.204 152.33C882.248 165.675 873.051 175.633 866.612 182.205C872.591 179.103 879.609 173.869 887.666 166.504C890.819 163.573 897.119 157.286 906.567 147.643C918.535 135.429 929.361 122.237 939.046 108.066ZM875.65 163.55C882.369 156.693 891.985 146.165 904.498 131.965C917.5 117.124 927.045 106.597 933.134 100.383L929.609 97.9791L915.649 112.441C914.251 114.011 911.868 116.086 908.5 118.666C905.203 121.316 902.855 123.355 901.455 124.784C901.105 125.141 900.688 125.852 900.204 126.918C899.791 128.053 899.445 128.764 899.165 129.05C892.032 136.901 884.899 144.752 877.766 152.603C868.189 163.52 862.265 171.995 859.993 178.029L861.064 179.079C862.11 177.583 866.972 172.407 875.65 163.55ZM848.017 231.187C846.27 226.255 845.851 223.324 846.761 222.396C846.901 222.253 848.521 221.6 851.621 220.437C854.722 219.415 856.867 218.297 858.057 217.083C858.617 216.512 859.104 215.8 859.52 214.947C859.087 214.103 858.764 213.576 858.549 213.366C858.264 213.086 856.417 212.327 853.01 211.088C849.675 209.92 847.864 209.196 847.579 208.916C846.721 208.076 845.742 205.647 844.64 201.627C843.465 197.255 842.339 194.402 841.265 193.07C834.912 194.124 829.965 194.458 826.425 194.069C824.584 193.805 823.133 193.643 822.071 193.583C819.879 193.535 818.538 193.761 818.048 194.261C818.122 194.614 819.606 197.957 822.499 204.292C824.956 209.5 825.695 212.604 824.715 213.604C823.945 214.39 822.433 215.218 820.179 216.09C817.997 217.031 816.52 217.895 815.75 218.681C815.75 218.681 815.473 219.178 814.917 220.174L816.524 221.749C818.931 222.007 821.302 222.231 823.638 222.419C826.54 222.743 828.706 223.605 830.135 225.005C831.206 226.054 832.321 227.917 833.48 230.592C834.568 233.339 835.648 235.237 836.72 236.287C837.363 236.917 838.676 237.434 840.66 237.838C842.646 238.384 843.918 238.371 844.478 237.799C845.528 236.728 846.708 234.524 848.017 231.187ZM836.991 231.723C835.706 230.464 834.309 228.675 832.8 226.356C830.86 223.335 829.604 221.474 829.031 220.773C823.943 221.108 820.792 220.68 819.577 219.49C818.506 218.44 818.355 217.523 819.125 216.737C819.755 216.094 821.232 215.301 823.556 214.358C825.951 213.485 827.569 212.62 828.409 211.763C828.619 211.549 829.037 210.979 829.664 210.053L829.542 208.463C826.685 205.664 824.969 203.843 824.395 203C822.459 200.403 822.296 198.284 823.906 196.641C824.886 195.641 826.228 195.486 827.932 196.176C830.276 197.212 833.427 197.64 837.385 197.458C840.638 197.425 842.8 197.933 843.871 198.983C845.085 200.173 845.158 203.814 844.088 209.906C846.007 210.806 848.743 212.157 852.297 213.96C852.169 215.234 851.894 216.085 851.475 216.514C850.775 217.228 849.366 217.737 847.247 218.042C845.13 218.488 843.827 218.961 843.337 219.461C841.867 220.96 841.9 224.142 843.434 229.006C842.74 230.286 842.253 231.069 841.973 231.354C840.223 233.14 838.563 233.263 836.991 231.723Z" fill="#FFE8A3"/>
</g>
<defs>
<filter id="filter0_d_58_186" x="0" y="0" width="969.336" height="258.746" filterUnits="userSpaceOnUse" color-interpolation-filters="sRGB">
<feFlood flood-opacity="0" result="BackgroundImageFix"/>
<feColorMatrix in="SourceAlpha" type="matrix" values="0 0 0 0 0 0 0 0 0 0 0 0 0 0 0 0 0 0 127 0" result="hardAlpha"/>
<feOffset dx="2" dy="4"/>
<feGaussianBlur stdDeviation="2.5"/>
<feComposite in2="hardAlpha" operator="out"/>
<feColorMatrix type="matrix" values="0 0 0 0 0.301961 0 0 0 0 0.0313726 0 0 0 0 0.0117647 0 0 0 0.5 0"/>
<feBlend mode="normal" in2="BackgroundImageFix" result="effect1_dropShadow_58_186"/>
<feBlend mode="normal" in="SourceGraphic" in2="effect1_dropShadow_58_186" result="shape"/>
</filter>
</defs>
</svg>
